<svg width="24" height="24" viewBox="0 0 24 24" fill="none" xmlns="http://www.w3.org/2000/svg">
<path fill-rule="evenodd" clip-rule="evenodd" d="M12.0002 23C18.0754 23 23.0002 18.0751 23.0002 12C23.0002 5.92487 18.0754 1 12.0002 1C5.92511 1 1.00024 5.92487 1.00024 12C1.00024 18.0751 5.92511 23 12.0002 23ZM17.5682 8.78983C17.8387 8.47616 17.8037 8.00258 17.4901 7.73205C17.1764 7.46153 16.7028 7.4965 16.4323 7.81017L10.9596 14.1556L7.53057 10.7265C7.23768 10.4336 6.76281 10.4336 6.46991 10.7265C6.17702 11.0194 6.17702 11.4943 6.46991 11.7872L10.4699 15.7872C10.6174 15.9346 10.8195 16.014 11.0279 16.0064C11.2362 15.9987 11.432 15.9046 11.5682 15.7467L17.5682 8.78983Z" fill="#CCCCCC"/>
</svg>
