<svg width="36" height="36" viewBox="0 0 36 36" fill="none" xmlns="http://www.w3.org/2000/svg">
<path d="M26.3499 14.9231L25.9837 14.7193C25.9269 14.6877 25.8989 14.6718 25.8714 14.6554C25.5983 14.4918 25.3682 14.2658 25.2002 13.9954C25.1833 13.9681 25.1674 13.9396 25.1348 13.8832C25.1023 13.8269 25.0858 13.7984 25.0706 13.7701C24.92 13.4888 24.8385 13.1753 24.8336 12.8562C24.8331 12.8241 24.8332 12.7913 24.8343 12.7262L24.8415 12.3009C24.8529 11.6204 24.8587 11.2791 24.763 10.9727C24.6781 10.7007 24.536 10.45 24.3462 10.2374C24.1317 9.99697 23.8347 9.82547 23.2402 9.48289L22.7464 9.19833C22.1536 8.8567 21.8571 8.68583 21.5423 8.62069C21.2639 8.56306 20.9765 8.56573 20.6991 8.62801C20.3859 8.69831 20.0931 8.87363 19.5079 9.22408L19.5045 9.22567L19.1507 9.43753C19.0948 9.47103 19.0665 9.48792 19.0384 9.50351C18.7601 9.65823 18.4495 9.74378 18.1312 9.75399C18.0992 9.75502 18.0665 9.75502 18.0013 9.75502C17.9365 9.75502 17.9024 9.75502 17.8704 9.75399C17.5515 9.74373 17.2402 9.65772 16.9615 9.50236C16.9334 9.4867 16.9056 9.46968 16.8496 9.43602L16.4935 9.22225C15.9042 8.86849 15.6091 8.69134 15.2943 8.62069C15.0157 8.55819 14.7274 8.55646 14.4479 8.61483C14.1324 8.68074 13.8358 8.85288 13.2426 9.19715L13.2399 9.19833L12.7523 9.48136L12.7469 9.48466C12.159 9.82584 11.8644 9.99684 11.6517 10.2363C11.4629 10.4487 11.3218 10.6989 11.2374 10.9703C11.1419 11.277 11.147 11.6191 11.1585 12.3028L11.1657 12.7275C11.1668 12.7918 11.1686 12.8237 11.1682 12.8554C11.1634 13.1751 11.0809 13.4893 10.9297 13.7711C10.9148 13.799 10.8987 13.8268 10.8665 13.8825C10.8344 13.9382 10.8188 13.9659 10.8021 13.9928C10.6334 14.2646 10.4021 14.492 10.1273 14.6558C10.1001 14.6721 10.0715 14.6876 10.0152 14.7188L9.65365 14.9192C9.05208 15.2526 8.75137 15.4194 8.53256 15.6568C8.33898 15.8668 8.19275 16.116 8.10349 16.3873C8.00259 16.694 8.00267 17.0379 8.00424 17.7257L8.00551 18.2878C8.00706 18.971 8.00919 19.3123 8.11032 19.6169C8.19979 19.8864 8.34495 20.1341 8.53744 20.3429C8.75502 20.5788 9.05274 20.7446 9.64974 21.0767L10.0081 21.2761C10.0691 21.31 10.0998 21.3268 10.1292 21.3445C10.4015 21.5085 10.6309 21.7352 10.7982 22.0055C10.8163 22.0347 10.8336 22.065 10.8683 22.1256C10.9026 22.1854 10.9201 22.2154 10.9359 22.2454C11.0826 22.5231 11.1611 22.8316 11.1665 23.1456C11.1671 23.1795 11.1666 23.2138 11.1654 23.2828L11.1585 23.6903C11.1469 24.3764 11.1419 24.7198 11.2379 25.0274C11.3229 25.2995 11.4648 25.5501 11.6546 25.7628C11.8692 26.0032 12.1665 26.1746 12.7611 26.5172L13.2548 26.8017C13.8476 27.1433 14.1439 27.314 14.4587 27.3791C14.7371 27.4367 15.0246 27.4345 15.3021 27.3722C15.6157 27.3018 15.9095 27.1259 16.4964 26.7744L16.8502 26.5626C16.9062 26.5291 16.9346 26.5123 16.9626 26.4967C17.2409 26.3419 17.5512 26.256 17.8695 26.2457C17.9015 26.2447 17.9342 26.2447 17.9994 26.2447C18.0648 26.2447 18.0974 26.2447 18.1295 26.2457C18.4484 26.256 18.7607 26.3423 19.0394 26.4976C19.0639 26.5113 19.0885 26.5261 19.1316 26.552L19.5078 26.7778C20.0971 27.1316 20.3916 27.3083 20.7065 27.3789C20.985 27.4414 21.2736 27.444 21.5531 27.3856C21.8685 27.3197 22.1657 27.1472 22.7586 26.8031L23.2536 26.5158C23.8418 26.1744 24.1367 26.0033 24.3495 25.7638C24.5383 25.5513 24.6796 25.3012 24.764 25.0298C24.8588 24.7253 24.853 24.3859 24.8417 23.712L24.8343 23.2725C24.8332 23.2082 24.8331 23.1762 24.8336 23.1446C24.8383 22.8249 24.9195 22.5105 25.0706 22.2287C25.0856 22.2009 25.1018 22.1728 25.1338 22.1173C25.166 22.0616 25.1827 22.0338 25.1994 22.0069C25.3681 21.7351 25.5995 21.5075 25.8744 21.3437C25.9012 21.3277 25.9288 21.3123 25.9838 21.2819L25.9857 21.281L26.3472 21.0807C26.9488 20.7473 27.2501 20.5803 27.4689 20.3429C27.6625 20.1328 27.8085 19.8841 27.8978 19.6127C27.9981 19.3078 27.9973 18.9659 27.9958 18.2862L27.9945 17.712C27.9929 17.0288 27.9921 16.6875 27.891 16.3829C27.8015 16.1134 27.6555 15.8657 27.463 15.657C27.2457 15.4212 26.9475 15.2554 26.3517 14.9239L26.3499 14.9231Z" stroke="#011327" stroke-width="2" stroke-linecap="round" stroke-linejoin="round"/>
<path d="M14.0003 18.0001C14.0003 20.2092 15.7912 22.0001 18.0003 22.0001C20.2095 22.0001 22.0003 20.2092 22.0003 18.0001C22.0003 15.7909 20.2095 14.0001 18.0003 14.0001C15.7912 14.0001 14.0003 15.7909 14.0003 18.0001Z" stroke="#011327" stroke-width="2" stroke-linecap="round" stroke-linejoin="round"/>
</svg>
