<svg width="25" height="24" viewBox="0 0 25 24" fill="none" xmlns="http://www.w3.org/2000/svg">
<path fill-rule="evenodd" clip-rule="evenodd" d="M21.7315 8.66747L13.1336 1.72485C12.9537 1.57927 12.7305 1.5 12.5005 1.5C12.2705 1.5 12.0473 1.57927 11.8674 1.72485L3.26849 8.66747C3.02883 8.86104 2.83527 9.10701 2.70221 9.38708C2.56916 9.66714 2.50004 9.97408 2.5 10.285V20.0194C2.5 20.6773 2.75737 21.3082 3.2155 21.7734C3.67363 22.2386 4.29498 22.5 4.94287 22.5H10.4648V17.5884C10.4648 17.3143 10.572 17.0514 10.7629 16.8575C10.9538 16.6637 11.2127 16.5548 11.4826 16.5548H13.5184C13.7883 16.5548 14.0472 16.6637 14.2381 16.8575C14.429 17.0514 14.5362 17.3143 14.5362 17.5884V22.5H20.0571C20.705 22.5 21.3264 22.2386 21.7845 21.7734C22.2426 21.3082 22.5 20.6773 22.5 20.0194V10.2861C22.5 9.97512 22.4308 9.66818 22.2978 9.38811C22.1647 9.10805 21.9712 8.86207 21.7315 8.6685" fill="#5AC563"/>
</svg>
