<svg width="21" height="20" viewBox="0 0 21 20" fill="none" xmlns="http://www.w3.org/2000/svg">
<path fill-rule="evenodd" clip-rule="evenodd" d="M3.19149 0.114703L3.18974 0.114112C2.81367 -0.0142633 2.40914 -0.0347825 2.022 0.0548853C1.63439 0.144661 1.27969 0.341306 0.998239 0.62254C0.716785 0.90378 0.519877 1.25834 0.429967 1.64593C0.340056 2.03354 0.360769 2.43857 0.489739 2.81499L1.16546 2.58346C0.48995 2.8156 0.489698 2.81486 0.489739 2.81499L0.490938 2.81847L0.493881 2.82704L0.505508 2.86087L0.550871 2.99289L0.723109 3.49411L1.33838 5.2848C1.84784 6.76769 2.52783 8.74707 3.20989 10.7332C3.89194 12.7193 4.57603 14.712 5.09374 16.2216C5.35262 16.9764 5.56983 17.6103 5.72437 18.062L5.90636 18.595L5.95677 18.7434L5.97079 18.7851C5.9729 18.7916 5.9733 18.7927 5.97263 18.7906C6.06514 19.0901 6.20227 19.3523 6.43444 19.5843C6.70093 19.8506 7.06224 20 7.43887 20C7.8155 20 8.17682 19.8506 8.4433 19.5843C8.546 19.4816 8.63853 19.3701 8.71842 19.2133C8.78176 19.0889 8.82999 18.9471 8.87453 18.8163L8.87669 18.81C8.92547 18.6667 9.61692 16.6724 10.2979 14.7089L11.2271 12.0304L11.531 11.1542L11.5333 11.1476L11.5431 11.1442L12.4253 10.8323C13.1564 10.5738 14.1335 10.2282 15.1176 9.87964C17.0636 9.19039 19.0936 8.47003 19.2292 8.41354C19.2475 8.4059 19.2696 8.39734 19.2948 8.38761C19.4533 8.32627 19.7335 8.21787 19.9586 7.99289C20.2252 7.72659 20.375 7.36529 20.375 6.98844C20.375 6.61161 20.2252 6.25031 19.9586 5.98401L19.9478 5.97263C19.9118 5.93463 19.805 5.82194 19.6882 5.73911C19.5312 5.62789 19.3568 5.55671 19.1553 5.49761C19.1563 5.49791 19.1555 5.49766 19.1523 5.49663L19.1022 5.48039L18.9466 5.42901C18.815 5.38531 18.6309 5.3238 18.4013 5.2469C17.9425 5.09316 17.3043 4.87857 16.547 4.62361C15.0328 4.11371 13.0438 3.44267 11.0647 2.77451C9.0856 2.10637 7.11659 1.44117 5.64233 0.943011L3.86263 0.341561L3.3647 0.173256L3.2336 0.128937L3.19999 0.117577L3.19149 0.114703Z" fill="#5AC563"/>
</svg>
