<svg width="25" height="24" viewBox="0 0 25 24" fill="none" xmlns="http://www.w3.org/2000/svg">
<g clip-path="url(#clip0_121377_1202)">
<path fill-rule="evenodd" clip-rule="evenodd" d="M17.5 18.4286V7.71429L17.5003 7.7083V7.70051V7.69277V7.68504V7.67734V7.66967V7.66203V7.65441V7.64681V7.63924V7.63171V7.6242V7.6167V7.60924V7.6018V7.59439V7.587V7.57964V7.57231V7.565V7.55771V7.55046V7.54321V7.53601V7.52883V7.52166V7.51453V7.50741V7.50033V7.49327V7.48623V7.47921V7.47223V7.46526V7.45831V7.4514V7.44451V7.43764V7.43079V7.42397V7.41717V7.4104V7.40364V7.39691V7.3902V7.38353V7.37686V7.37023V7.36361V7.35701V7.35046V7.3439V7.33739V7.33087V7.3244V7.31794V7.31151V7.3051V7.2987V7.29233V7.28599V7.27966V7.27336V7.26707V7.26081V7.25457V7.24836V7.24216V7.23599V7.22983V7.2237V7.21759V7.2115V7.20543V7.19937V7.19334V7.18734V7.18134V7.17539V7.16943V7.1635V7.1576V7.15171V7.14584V7.13999V7.13416V7.12836V7.12256V7.1168V7.11104V7.10531V7.0996V7.09391V7.08823V7.08259V7.07694V7.07133V7.06573V7.06014V7.05459V7.04904V7.04351V7.03801V7.03253V7.02706V7.0216V7.01617V7.01076V7.00536V6.99997V6.99461V6.98927V6.98394V6.97863V6.97334V6.96807V6.9628V6.95757V6.95234V6.94713V6.94194V6.93677V6.93161V6.92647V6.92134V6.91624V6.91114V6.90607V6.90101V6.89597V6.89094V6.88593V6.88093V6.87596V6.87099V6.86604V6.86111V6.85619V6.85129V6.8464V6.84153V6.83667V6.83183V6.827V6.82219V6.81739V6.81261V6.80784V6.80309V6.79834V6.79361V6.78891V6.78421V6.77953V6.77486V6.7702V6.76556V6.76093V6.75631V6.75171V6.74713V6.74256V6.738V6.73346V6.72891V6.7244V6.71989V6.71539V6.71091V6.70644V6.70199V6.69754V6.6931V6.68869V6.68429V6.67989V6.6755V6.67113V6.66677V6.66243V6.65809V6.65376V6.64946V6.64514V6.64086V6.63659V6.63231V6.62806V6.62381V6.61959V6.61536V6.61114V6.60694V6.60276V6.59859V6.59441V6.59026V6.5861V6.58197V6.57784V6.57371V6.56961V6.56551V6.56143V6.55736V6.55329V6.54923V6.54517V6.54113V6.5371V6.53309V6.52907V6.52507V6.52107V6.51709V6.51311V6.50914V6.50519V6.50124V6.4973V6.49337V6.48944V6.48553V6.48161V6.47771V6.47383V6.46994V6.46607V6.4622V6.45833V6.45449V6.45064V6.4468V6.44297V6.43914V6.43533V6.43151V6.42771V6.42393V6.42013V6.41636V6.41257V6.40881V6.40504V6.40129V6.39754V6.3938V6.39006V6.38633V6.38261V6.37889V6.37517V6.37147V6.36777V6.36407V6.36039V6.3567V6.35301V6.34934V6.34567V6.34201V6.33836V6.3347V6.33104V6.3274V6.32377V6.32013V6.3165V6.31287V6.30926V6.30563V6.30201V6.29841V6.2948V6.2912V6.2876V6.28401V6.28043V6.27683V6.27326V6.26967V6.2661V6.26253V6.25896V6.25539V6.25183V6.24826V6.2447V6.24114V6.2376V6.23404V6.2305V6.22696V6.22341V6.21987V6.21633V6.2128V6.20926V6.20573V6.2022V6.19867V6.19514V6.19161V6.18809V6.18457V6.18104V6.17753V6.17401V6.17049V6.16697V6.16346V6.15994V6.15643V6.15291V6.1494V6.14589V6.14237V6.13887V6.13536V6.13184V6.12833V6.12481V6.1213V6.1178V6.11429V6.11077V6.10726V6.10374V6.10023V6.09671V6.0932V6.08969V6.08617V6.08264V6.07913V6.07561V6.07209V6.06857V6.06504V6.06151V6.05799V6.05446V6.05093V6.0474V6.04386V6.04033V6.03679V6.03324V6.0297V6.02616V6.0226V6.01906V6.0155V6.01194V6.00839V6.00483V6.00126V5.99769V5.99411V5.99054V5.98697V5.98339V5.9798V5.97621V5.97263V5.96903V5.96543V5.96183V5.95823V5.95461V5.951V5.94739V5.94376V5.94013V5.9365V5.93286V5.92923V5.92557V5.92193V5.91827V5.91461V5.91094V5.90727V5.9036V5.89991V5.89623V5.89254V5.88884V5.88514V5.88143V5.87771V5.874V5.87027V5.86654C17.5003 5.10541 17.7011 4.32621 18.0301 3.8327C18.3036 3.42241 18.858 3.31154 19.2683 3.58507C19.6786 3.8586 19.7894 4.41294 19.5159 4.82324C19.4851 4.86939 19.4233 4.99386 19.3701 5.19849C19.3193 5.39431 19.286 5.62641 19.286 5.86654V5.87027V5.874V5.87771V5.88143V5.88514V5.88884V5.89254V5.89623V5.89991V5.9036V5.90727V5.91094V5.91461V5.91827V5.92193V5.92557V5.92923V5.93286V5.9365V5.94013V5.94376V5.94739V5.951V5.95461V5.95823V5.96183V5.96543V5.96903V5.97263V5.97621V5.9798V5.98339V5.98697V5.99054V5.99411V5.99769V6.00126V6.00483V6.00839V6.01194V6.0155V6.01906V6.0226V6.02616V6.0297V6.03324V6.03679V6.04033V6.04386V6.0474V6.05093V6.05446V6.05799V6.06151V6.06504V6.06857V6.07209V6.07561V6.07913V6.08264V6.08617V6.08969V6.0932V6.09671V6.10023V6.10374V6.10726V6.11077V6.11429V6.1178V6.1213V6.12481V6.12833V6.13184V6.13536V6.13887V6.14237V6.14589V6.1494V6.15291V6.15643V6.15994V6.16346V6.16697V6.17049V6.17401V6.17753V6.18104V6.18457V6.18809V6.19161V6.19514V6.19867V6.2022V6.20573V6.20926V6.2128V6.21633V6.21987V6.22341V6.22696V6.2305V6.23404V6.2376V6.24114V6.2447V6.24826V6.25183V6.25539V6.25896V6.26253V6.2661V6.26967V6.27326V6.27683V6.28043V6.28401V6.2876V6.2912V6.2948V6.29841V6.30201V6.30563V6.30926V6.31287V6.3165V6.32013V6.32377V6.3274V6.33104V6.3347V6.33836V6.34201V6.34567V6.34934V6.35301V6.3567V6.36039V6.36407V6.36777V6.37147V6.37517V6.37889V6.38261V6.38633V6.39006V6.3938V6.39754V6.40129V6.40504V6.40881V6.41257V6.41636V6.42013V6.42393V6.42771V6.43151V6.43533V6.43914V6.44297V6.4468V6.45064V6.45449V6.45833V6.4622V6.46607V6.46994V6.47383V6.47771V6.48161V6.48553V6.48944V6.49337V6.4973V6.50124V6.50519V6.50914V6.51311V6.51709V6.52107V6.52507V6.52907V6.53309V6.5371V6.54113V6.54517V6.54923V6.55329V6.55736V6.56143V6.56551V6.56961V6.57371V6.57784V6.58197V6.5861V6.59026V6.59441V6.59859V6.60276V6.60694V6.61114V6.61536V6.61959V6.62381V6.62806V6.63231V6.63659V6.64086V6.64514V6.64946V6.65376V6.65809V6.66243V6.66677V6.67113V6.6755V6.67989V6.68429V6.68869V6.6931V6.69754V6.70199V6.70644V6.71091V6.71539V6.71989V6.7244V6.72891V6.73346V6.738V6.74256V6.74713V6.75171V6.75631V6.76093V6.76556V6.7702V6.77486V6.77953V6.78421V6.78891V6.79361V6.79834V6.80309V6.80784V6.81261V6.81739V6.82219V6.827V6.83183V6.83667V6.84153V6.8464V6.85129V6.85619V6.86111V6.86604V6.87099V6.87596V6.88093V6.88593V6.89094V6.89597V6.90101V6.90607V6.91114V6.91624V6.92134V6.92647V6.93161V6.93677V6.94194V6.94713V6.95234V6.95757V6.9628V6.96807V6.97334V6.97863V6.98394V6.98927V6.99461V6.99997V7.00536V7.01076V7.01617V7.0216V7.02706V7.03253V7.03801V7.04351V7.04904V7.05459V7.06014V7.06573V7.07133V7.07694V7.08259V7.08823V7.09391V7.0996V7.10531V7.11104V7.1168V7.12256V7.12836V7.13416V7.13999V7.14584V7.15171V7.1576V7.1635V7.16943V7.17539V7.18134V7.18734V7.19334V7.19937V7.20543V7.2115V7.21759V7.2237V7.22983V7.23599V7.24216V7.24836V7.25457V7.26081V7.26707V7.27336V7.27966V7.28599V7.29233V7.2987V7.3051V7.31151V7.31794V7.3244V7.33087V7.33739V7.3439V7.35046V7.35701V7.36361V7.37023V7.37686V7.38353V7.3902V7.39691V7.40364V7.4104V7.41717V7.42397V7.43079V7.43764V7.44451V7.4514V7.45831V7.46526V7.47223V7.47921V7.48623V7.49327V7.50033V7.50741V7.51453V7.52166V7.52883V7.53601V7.54321V7.55046V7.55771V7.565V7.57231V7.57964V7.587V7.59439V7.6018V7.60924V7.6167V7.6242V7.63171V7.63924V7.64681V7.65441V7.66203V7.66967V7.67734V7.68504V7.69277V7.70051V7.7083V7.71429H21.0714C21.4503 7.71429 21.8137 7.56377 22.0816 7.29587C22.3494 7.02796 22.5 6.6646 22.5 6.28571V5.21429C22.5 4.3618 22.1613 3.54424 21.5586 2.94144C20.9557 2.33865 20.1381 2 19.2857 2H8.92857C7.98137 2 7.07296 2.37627 6.40319 3.04605C5.73341 3.71581 5.35714 4.62423 5.35714 5.57143V18.4286C5.35714 18.9969 5.13137 19.542 4.72951 19.9439C4.32766 20.3457 3.78261 20.5714 3.21429 20.5714C2.8198 20.5714 2.5 20.8913 2.5 21.2857C2.5 21.6801 2.8198 22 3.21429 22H13.9286C14.8758 22 15.7842 21.6237 16.454 20.954C17.1237 20.2841 17.5 19.3757 17.5 18.4286ZM9.89589 7C9.89589 6.50689 10.2956 6.10714 10.7887 6.10714H13.5565C14.0496 6.10714 14.4493 6.50689 14.4493 7C14.4493 7.49311 14.0496 7.89286 13.5565 7.89286H10.7887C10.2956 7.89286 9.89589 7.49311 9.89589 7ZM8.94357 10.3929C8.45046 10.3929 8.05071 10.7926 8.05071 11.2857C8.05071 11.7788 8.45046 12.1786 8.94357 12.1786H13.5564C14.0496 12.1786 14.4493 11.7788 14.4493 11.2857C14.4493 10.7926 14.0496 10.3929 13.5564 10.3929H8.94357ZM8.05071 15.5714C8.05071 15.0783 8.45046 14.6786 8.94357 14.6786H13.5564C14.0496 14.6786 14.4493 15.0783 14.4493 15.5714C14.4493 16.0645 14.0496 16.4643 13.5564 16.4643H8.94357C8.45046 16.4643 8.05071 16.0645 8.05071 15.5714Z" fill="#B4C0D3"/>
</g>
<defs>
<clipPath id="clip0_121377_1202">
<rect width="20" height="20" fill="white" transform="translate(2.5 2)"/>
</clipPath>
</defs>
</svg>
