<svg width="25" height="24" viewBox="0 0 25 24" fill="none" xmlns="http://www.w3.org/2000/svg">
<path fill-rule="evenodd" clip-rule="evenodd" d="M5.31649 2.1147L5.31474 2.11411C4.93867 1.98574 4.53414 1.96522 4.147 2.05489C3.75939 2.14466 3.40469 2.34131 3.12324 2.62254C2.84179 2.90378 2.64488 3.25834 2.55497 3.64593C2.46506 4.03354 2.48577 4.43857 2.61474 4.81499L3.29046 4.58346C2.61495 4.8156 2.6147 4.81486 2.61474 4.81499L2.61594 4.81847L2.61888 4.82704L2.63051 4.86087L2.67587 4.99289L2.84811 5.49411L3.46338 7.2848C3.97284 8.76769 4.65283 10.7471 5.33489 12.7332C6.01694 14.7193 6.70103 16.712 7.21874 18.2216C7.47762 18.9764 7.69483 19.6103 7.84937 20.062L8.03136 20.595L8.08177 20.7434L8.09579 20.7851C8.0979 20.7916 8.0983 20.7927 8.09763 20.7906C8.19014 21.0901 8.32727 21.3523 8.55944 21.5843C8.82593 21.8506 9.18724 22 9.56387 22C9.9405 22 10.3018 21.8506 10.5683 21.5843C10.671 21.4816 10.7635 21.3701 10.8434 21.2133C10.9068 21.0889 10.955 20.9471 10.9995 20.8163L11.0017 20.81C11.0505 20.6667 11.7419 18.6724 12.4229 16.7089L13.3521 14.0304L13.656 13.1542L13.6583 13.1476L13.6681 13.1442L14.5503 12.8323C15.2814 12.5738 16.2585 12.2282 17.2426 11.8796C19.1886 11.1904 21.2186 10.47 21.3542 10.4135C21.3725 10.4059 21.3946 10.3973 21.4198 10.3876C21.5783 10.3263 21.8585 10.2179 22.0836 9.99289C22.3502 9.72659 22.5 9.36529 22.5 8.98844C22.5 8.61161 22.3502 8.25031 22.0836 7.98401L22.0728 7.97263C22.0368 7.93463 21.93 7.82194 21.8132 7.73911C21.6562 7.62789 21.4818 7.55671 21.2803 7.49761C21.2813 7.49791 21.2805 7.49766 21.2773 7.49663L21.2272 7.48039L21.0716 7.42901C20.94 7.38531 20.7559 7.3238 20.5263 7.2469C20.0675 7.09316 19.4293 6.87857 18.672 6.62361C17.1578 6.11371 15.1688 5.44267 13.1897 4.77451C11.2106 4.10637 9.24159 3.44117 7.76733 2.94301L5.98763 2.34156L5.4897 2.17326L5.3586 2.12894L5.32499 2.11758L5.31649 2.1147Z" fill="#B4C0D3"/>
</svg>
