<svg width="21" height="20" viewBox="0 0 21 20" fill="none" xmlns="http://www.w3.org/2000/svg">
<g clip-path="url(#clip0_121377_1827)">
<path fill-rule="evenodd" clip-rule="evenodd" d="M15.625 16.4286V5.71429L15.6253 5.7083V5.70051V5.69277V5.68504V5.67734V5.66967V5.66203V5.65441V5.64681V5.63924V5.63171V5.6242V5.6167V5.60924V5.6018V5.59439V5.587V5.57964V5.57231V5.565V5.55771V5.55046V5.54321V5.53601V5.52883V5.52166V5.51453V5.50741V5.50033V5.49327V5.48623V5.47921V5.47223V5.46526V5.45831V5.4514V5.44451V5.43764V5.43079V5.42397V5.41717V5.4104V5.40364V5.39691V5.3902V5.38353V5.37686V5.37023V5.36361V5.35701V5.35046V5.3439V5.33739V5.33087V5.3244V5.31794V5.31151V5.3051V5.2987V5.29233V5.28599V5.27966V5.27336V5.26707V5.26081V5.25457V5.24836V5.24216V5.23599V5.22983V5.2237V5.21759V5.2115V5.20543V5.19937V5.19334V5.18734V5.18134V5.17539V5.16943V5.1635V5.1576V5.15171V5.14584V5.13999V5.13416V5.12836V5.12256V5.1168V5.11104V5.10531V5.0996V5.09391V5.08823V5.08259V5.07694V5.07133V5.06573V5.06014V5.05459V5.04904V5.04351V5.03801V5.03253V5.02706V5.0216V5.01617V5.01076V5.00536V4.99997V4.99461V4.98927V4.98394V4.97863V4.97334V4.96807V4.9628V4.95757V4.95234V4.94713V4.94194V4.93677V4.93161V4.92647V4.92134V4.91624V4.91114V4.90607V4.90101V4.89597V4.89094V4.88593V4.88093V4.87596V4.87099V4.86604V4.86111V4.85619V4.85129V4.8464V4.84153V4.83667V4.83183V4.827V4.82219V4.81739V4.81261V4.80784V4.80309V4.79834V4.79361V4.78891V4.78421V4.77953V4.77486V4.7702V4.76556V4.76093V4.75631V4.75171V4.74713V4.74256V4.738V4.73346V4.72891V4.7244V4.71989V4.71539V4.71091V4.70644V4.70199V4.69754V4.6931V4.68869V4.68429V4.67989V4.6755V4.67113V4.66677V4.66243V4.65809V4.65376V4.64946V4.64514V4.64086V4.63659V4.63231V4.62806V4.62381V4.61959V4.61536V4.61114V4.60694V4.60276V4.59859V4.59441V4.59026V4.5861V4.58197V4.57784V4.57371V4.56961V4.56551V4.56143V4.55736V4.55329V4.54923V4.54517V4.54113V4.5371V4.53309V4.52907V4.52507V4.52107V4.51709V4.51311V4.50914V4.50519V4.50124V4.4973V4.49337V4.48944V4.48553V4.48161V4.47771V4.47383V4.46994V4.46607V4.4622V4.45833V4.45449V4.45064V4.4468V4.44297V4.43914V4.43533V4.43151V4.42771V4.42393V4.42013V4.41636V4.41257V4.40881V4.40504V4.40129V4.39754V4.3938V4.39006V4.38633V4.38261V4.37889V4.37517V4.37147V4.36777V4.36407V4.36039V4.3567V4.35301V4.34934V4.34567V4.34201V4.33836V4.3347V4.33104V4.3274V4.32377V4.32013V4.3165V4.31287V4.30926V4.30563V4.30201V4.29841V4.2948V4.2912V4.2876V4.28401V4.28043V4.27683V4.27326V4.26967V4.2661V4.26253V4.25896V4.25539V4.25183V4.24826V4.2447V4.24114V4.2376V4.23404V4.2305V4.22696V4.22341V4.21987V4.21633V4.2128V4.20926V4.20573V4.2022V4.19867V4.19514V4.19161V4.18809V4.18457V4.18104V4.17753V4.17401V4.17049V4.16697V4.16346V4.15994V4.15643V4.15291V4.1494V4.14589V4.14237V4.13887V4.13536V4.13184V4.12833V4.12481V4.1213V4.1178V4.11429V4.11077V4.10726V4.10374V4.10023V4.09671V4.0932V4.08969V4.08617V4.08264V4.07913V4.07561V4.07209V4.06857V4.06504V4.06151V4.05799V4.05446V4.05093V4.0474V4.04386V4.04033V4.03679V4.03324V4.0297V4.02616V4.0226V4.01906V4.0155V4.01194V4.00839V4.00483V4.00126V3.99769V3.99411V3.99054V3.98697V3.98339V3.9798V3.97621V3.97263V3.96903V3.96543V3.96183V3.95823V3.95461V3.951V3.94739V3.94376V3.94013V3.9365V3.93286V3.92923V3.92557V3.92193V3.91827V3.91461V3.91094V3.90727V3.9036V3.89991V3.89623V3.89254V3.88884V3.88514V3.88143V3.87771V3.874V3.87027V3.86654C15.6253 3.10541 15.8261 2.32621 16.1551 1.8327C16.4286 1.42241 16.983 1.31154 17.3933 1.58507C17.8036 1.8586 17.9144 2.41294 17.6409 2.82324C17.6101 2.86939 17.5483 2.99386 17.4951 3.19849C17.4443 3.39431 17.411 3.62641 17.411 3.86654V3.87027V3.874V3.87771V3.88143V3.88514V3.88884V3.89254V3.89623V3.89991V3.9036V3.90727V3.91094V3.91461V3.91827V3.92193V3.92557V3.92923V3.93286V3.9365V3.94013V3.94376V3.94739V3.951V3.95461V3.95823V3.96183V3.96543V3.96903V3.97263V3.97621V3.9798V3.98339V3.98697V3.99054V3.99411V3.99769V4.00126V4.00483V4.00839V4.01194V4.0155V4.01906V4.0226V4.02616V4.0297V4.03324V4.03679V4.04033V4.04386V4.0474V4.05093V4.05446V4.05799V4.06151V4.06504V4.06857V4.07209V4.07561V4.07913V4.08264V4.08617V4.08969V4.0932V4.09671V4.10023V4.10374V4.10726V4.11077V4.11429V4.1178V4.1213V4.12481V4.12833V4.13184V4.13536V4.13887V4.14237V4.14589V4.1494V4.15291V4.15643V4.15994V4.16346V4.16697V4.17049V4.17401V4.17753V4.18104V4.18457V4.18809V4.19161V4.19514V4.19867V4.2022V4.20573V4.20926V4.2128V4.21633V4.21987V4.22341V4.22696V4.2305V4.23404V4.2376V4.24114V4.2447V4.24826V4.25183V4.25539V4.25896V4.26253V4.2661V4.26967V4.27326V4.27683V4.28043V4.28401V4.2876V4.2912V4.2948V4.29841V4.30201V4.30563V4.30926V4.31287V4.3165V4.32013V4.32377V4.3274V4.33104V4.3347V4.33836V4.34201V4.34567V4.34934V4.35301V4.3567V4.36039V4.36407V4.36777V4.37147V4.37517V4.37889V4.38261V4.38633V4.39006V4.3938V4.39754V4.40129V4.40504V4.40881V4.41257V4.41636V4.42013V4.42393V4.42771V4.43151V4.43533V4.43914V4.44297V4.4468V4.45064V4.45449V4.45833V4.4622V4.46607V4.46994V4.47383V4.47771V4.48161V4.48553V4.48944V4.49337V4.4973V4.50124V4.50519V4.50914V4.51311V4.51709V4.52107V4.52507V4.52907V4.53309V4.5371V4.54113V4.54517V4.54923V4.55329V4.55736V4.56143V4.56551V4.56961V4.57371V4.57784V4.58197V4.5861V4.59026V4.59441V4.59859V4.60276V4.60694V4.61114V4.61536V4.61959V4.62381V4.62806V4.63231V4.63659V4.64086V4.64514V4.64946V4.65376V4.65809V4.66243V4.66677V4.67113V4.6755V4.67989V4.68429V4.68869V4.6931V4.69754V4.70199V4.70644V4.71091V4.71539V4.71989V4.7244V4.72891V4.73346V4.738V4.74256V4.74713V4.75171V4.75631V4.76093V4.76556V4.7702V4.77486V4.77953V4.78421V4.78891V4.79361V4.79834V4.80309V4.80784V4.81261V4.81739V4.82219V4.827V4.83183V4.83667V4.84153V4.8464V4.85129V4.85619V4.86111V4.86604V4.87099V4.87596V4.88093V4.88593V4.89094V4.89597V4.90101V4.90607V4.91114V4.91624V4.92134V4.92647V4.93161V4.93677V4.94194V4.94713V4.95234V4.95757V4.9628V4.96807V4.97334V4.97863V4.98394V4.98927V4.99461V4.99997V5.00536V5.01076V5.01617V5.0216V5.02706V5.03253V5.03801V5.04351V5.04904V5.05459V5.06014V5.06573V5.07133V5.07694V5.08259V5.08823V5.09391V5.0996V5.10531V5.11104V5.1168V5.12256V5.12836V5.13416V5.13999V5.14584V5.15171V5.1576V5.1635V5.16943V5.17539V5.18134V5.18734V5.19334V5.19937V5.20543V5.2115V5.21759V5.2237V5.22983V5.23599V5.24216V5.24836V5.25457V5.26081V5.26707V5.27336V5.27966V5.28599V5.29233V5.2987V5.3051V5.31151V5.31794V5.3244V5.33087V5.33739V5.3439V5.35046V5.35701V5.36361V5.37023V5.37686V5.38353V5.3902V5.39691V5.40364V5.4104V5.41717V5.42397V5.43079V5.43764V5.44451V5.4514V5.45831V5.46526V5.47223V5.47921V5.48623V5.49327V5.50033V5.50741V5.51453V5.52166V5.52883V5.53601V5.54321V5.55046V5.55771V5.565V5.57231V5.57964V5.587V5.59439V5.6018V5.60924V5.6167V5.6242V5.63171V5.63924V5.64681V5.65441V5.66203V5.66967V5.67734V5.68504V5.69277V5.70051V5.7083V5.71429H19.1964C19.5753 5.71429 19.9387 5.56377 20.2066 5.29587C20.4744 5.02796 20.625 4.6646 20.625 4.28571V3.21429C20.625 2.3618 20.2863 1.54424 19.6836 0.941443C19.0807 0.338647 18.2631 0 17.4107 0H7.05357C6.10637 0 5.19796 0.376274 4.52819 1.04605C3.85841 1.71581 3.48214 2.62423 3.48214 3.57143V16.4286C3.48214 16.9969 3.25637 17.542 2.85451 17.9439C2.45266 18.3457 1.90761 18.5714 1.33929 18.5714C0.944797 18.5714 0.625 18.8913 0.625 19.2857C0.625 19.6801 0.944797 20 1.33929 20H12.0536C13.0008 20 13.9092 19.6237 14.579 18.954C15.2487 18.2841 15.625 17.3757 15.625 16.4286ZM8.02089 5C8.02089 4.50689 8.42064 4.10714 8.91374 4.10714H11.6815C12.1746 4.10714 12.5743 4.50689 12.5743 5C12.5743 5.49311 12.1746 5.89286 11.6815 5.89286H8.91374C8.42064 5.89286 8.02089 5.49311 8.02089 5ZM7.06857 8.39286C6.57546 8.39286 6.17571 8.7926 6.17571 9.28571C6.17571 9.77883 6.57546 10.1786 7.06857 10.1786H11.6814C12.1746 10.1786 12.5743 9.77883 12.5743 9.28571C12.5743 8.7926 12.1746 8.39286 11.6814 8.39286H7.06857ZM6.17571 13.5714C6.17571 13.0783 6.57546 12.6786 7.06857 12.6786H11.6814C12.1746 12.6786 12.5743 13.0783 12.5743 13.5714C12.5743 14.0645 12.1746 14.4643 11.6814 14.4643H7.06857C6.57546 14.4643 6.17571 14.0645 6.17571 13.5714Z" fill="#5AC563"/>
</g>
<defs>
<clipPath id="clip0_121377_1827">
<rect width="20" height="20" fill="white" transform="translate(0.625)"/>
</clipPath>
</defs>
</svg>
