<svg width="25" height="24" viewBox="0 0 25 24" fill="none" xmlns="http://www.w3.org/2000/svg">
<path fill-rule="evenodd" clip-rule="evenodd" d="M22.1065 8.66747L13.5086 1.72485C13.3287 1.57927 13.1055 1.5 12.8755 1.5C12.6455 1.5 12.4223 1.57927 12.2424 1.72485L3.64349 8.66747C3.40383 8.86104 3.21027 9.10701 3.07721 9.38708C2.94416 9.66714 2.87504 9.97408 2.875 10.285V20.0194C2.875 20.6773 3.13237 21.3082 3.5905 21.7734C4.04863 22.2386 4.66998 22.5 5.31787 22.5H10.8398V17.5884C10.8398 17.3143 10.947 17.0514 11.1379 16.8575C11.3288 16.6637 11.5877 16.5548 11.8576 16.5548H13.8934C14.1633 16.5548 14.4222 16.6637 14.6131 16.8575C14.804 17.0514 14.9112 17.3143 14.9112 17.5884V22.5H20.4321C21.08 22.5 21.7014 22.2386 22.1595 21.7734C22.6176 21.3082 22.875 20.6773 22.875 20.0194V10.2861C22.875 9.97512 22.8058 9.66818 22.6728 9.38811C22.5397 9.10805 22.3462 8.86207 22.1065 8.6685" fill="#B4C0D3"/>
</svg>
