<svg width="25" height="24" viewBox="0 0 25 24" fill="none" xmlns="http://www.w3.org/2000/svg">
<path fill-rule="evenodd" clip-rule="evenodd" d="M22.2805 21H4.96953C4.82558 21 4.68401 20.9582 4.55827 20.8786C4.55326 20.8754 4.54829 20.8722 4.54335 20.8689C4.55877 20.9131 4.57553 20.9568 4.59363 21H1.9411C1.80199 21 1.66519 20.9617 1.54369 20.8886C1.42218 20.8155 1.32001 20.7101 1.24687 20.5824C1.17374 20.4547 1.13207 20.309 1.12582 20.159C1.11958 20.009 1.14896 19.8599 1.21118 19.7256L7.20524 8.97344C7.34006 8.68025 7.54827 8.43366 7.8063 8.26162C8.06433 8.08957 8.36185 7.99895 8.66516 8.00001C8.96846 7.99896 9.26597 8.08959 9.52398 8.26164C9.64026 8.33917 9.74642 8.43185 9.84031 8.5371L12.1143 4.06092C12.2545 3.74214 12.4702 3.47403 12.737 3.28664C13.0038 3.09926 13.3113 3 13.625 3C13.9387 3 14.2463 3.09926 14.5131 3.28664C14.7799 3.47403 14.9955 3.74214 15.1358 4.06092L23.0358 19.6116C23.1002 19.7579 23.1306 19.9204 23.1241 20.0838C23.1177 20.2472 23.0746 20.4059 22.9989 20.5451C22.9232 20.6842 22.8175 20.799 22.6917 20.8786C22.566 20.9582 22.4244 21 22.2805 21ZM9.23273 14.2574C9.8445 14.2574 10.3405 13.7521 10.3405 13.1287C10.3405 12.5053 9.8445 12 9.23273 12C8.62094 12 8.125 12.5053 8.125 13.1287C8.125 13.7521 8.62094 14.2574 9.23273 14.2574ZM15.343 16.144C15.7139 16.5004 15.7311 17.0957 15.3813 17.4736C14.5658 18.3551 13.267 18.7 12.125 18.7C10.983 18.7 9.68424 18.3551 8.86867 17.4736C8.51892 17.0957 8.5361 16.5004 8.90704 16.144C9.27798 15.7876 9.86221 15.8051 10.2119 16.1831C10.545 16.543 11.2566 16.8188 12.125 16.8188C12.9934 16.8188 13.705 16.543 14.0381 16.1831C14.3878 15.8051 14.972 15.7876 15.343 16.144ZM16.125 13.1287C16.125 13.7521 15.6291 14.2574 15.0173 14.2574C14.4055 14.2574 13.9095 13.7521 13.9095 13.1287C13.9095 12.5053 14.4055 12 15.0173 12C15.6291 12 16.125 12.5053 16.125 13.1287Z" fill="#5AC563"/>
</svg>
