<svg width="25" height="18" viewBox="0 0 25 18" fill="none" xmlns="http://www.w3.org/2000/svg">
<path fill-rule="evenodd" clip-rule="evenodd" d="M7.80435 8.63163C8.31822 8.63163 8.82705 8.53042 9.30181 8.33377C9.77656 8.13712 10.2079 7.84889 10.5713 7.48553C10.9346 7.12217 11.2229 6.6908 11.4195 6.21604C11.6162 5.74129 11.7174 5.23245 11.7174 4.71859C11.7174 4.20472 11.6162 3.69588 11.4195 3.22113C11.2229 2.74638 10.9346 2.31501 10.5713 1.95165C10.2079 1.58829 9.77656 1.30005 9.30181 1.1034C8.82705 0.906756 8.31822 0.805542 7.80435 0.805542C6.76654 0.805542 5.77125 1.21781 5.03741 1.95165C4.30357 2.68548 3.8913 3.68078 3.8913 4.71859C3.8913 5.75639 4.30357 6.75169 5.03741 7.48553C5.77125 8.21936 6.76654 8.63163 7.80435 8.63163M8.32609 15.0814C8.32609 13.7624 9.13061 11.8101 10.9139 10.3315C10.0343 10.0215 9.00643 9.82746 7.80435 9.82746C2.54522 9.82746 0.5 13.4149 0.5 15.0814C0.5 16.7509 4.85443 17.1934 7.80435 17.1934C8.29583 17.1934 8.82696 17.1798 9.37061 17.1516C8.68087 16.6017 8.32609 15.913 8.32609 15.0814Z" fill="#5AC563"/>
<path fill-rule="evenodd" clip-rule="evenodd" d="M17.1956 9.8285C11.9365 9.8285 9.8913 13.4149 9.8913 15.0824C9.8913 16.7499 14.2457 17.1944 17.1956 17.1944C20.1456 17.1944 24.5 16.7499 24.5 15.0824C24.5 13.4149 22.4548 9.8285 17.1956 9.8285ZM17.1956 8.63163C17.7095 8.63163 18.2183 8.53042 18.6931 8.33377C19.1679 8.13712 19.5992 7.84889 19.9626 7.48553C20.3259 7.12217 20.6142 6.69079 20.8108 6.21604C21.0075 5.74129 21.1087 5.23245 21.1087 4.71859C21.1087 4.20472 21.0075 3.69588 20.8108 3.22113C20.6142 2.74638 20.3259 2.31501 19.9626 1.95165C19.5992 1.58829 19.1679 1.30005 18.6931 1.1034C18.2183 0.906756 17.7095 0.805542 17.1956 0.805542C16.1578 0.805542 15.1625 1.21781 14.4287 1.95165C13.6949 2.68548 13.2826 3.68078 13.2826 4.71859C13.2826 5.75639 13.6949 6.75169 14.4287 7.48553C15.1625 8.21936 16.1578 8.63163 17.1956 8.63163" fill="#5AC563"/>
</svg>
