<svg width="25" height="24" viewBox="0 0 25 24" fill="none" xmlns="http://www.w3.org/2000/svg">
<g clip-path="url(#clip0_121377_1229)">
<path fill-rule="evenodd" clip-rule="evenodd" d="M7.80435 11.6316C8.31822 11.6316 8.82705 11.5304 9.30181 11.3338C9.77656 11.1371 10.2079 10.8489 10.5713 10.4855C10.9346 10.1222 11.2229 9.6908 11.4195 9.21604C11.6162 8.74129 11.7174 8.23245 11.7174 7.71859C11.7174 7.20472 11.6162 6.69588 11.4195 6.22113C11.2229 5.74638 10.9346 5.31501 10.5713 4.95165C10.2079 4.58829 9.77656 4.30005 9.30181 4.1034C8.82705 3.90676 8.31822 3.80554 7.80435 3.80554C6.76654 3.80554 5.77125 4.21781 5.03741 4.95165C4.30357 5.68548 3.8913 6.68078 3.8913 7.71859C3.8913 8.75639 4.30357 9.75169 5.03741 10.4855C5.77125 11.2194 6.76654 11.6316 7.80435 11.6316ZM8.32609 18.0814C8.32609 16.7624 9.13061 14.8101 10.9139 13.3315C10.0343 13.0215 9.00643 12.8275 7.80435 12.8275C2.54522 12.8275 0.5 16.4149 0.5 18.0814C0.5 19.7509 4.85443 20.1934 7.80435 20.1934C8.29583 20.1934 8.82696 20.1798 9.37061 20.1516C8.68087 19.6017 8.32609 18.913 8.32609 18.0814Z" fill="#B4C0D3"/>
<path fill-rule="evenodd" clip-rule="evenodd" d="M17.1956 12.8285C11.9365 12.8285 9.8913 16.4149 9.8913 18.0824C9.8913 19.7499 14.2457 20.1944 17.1956 20.1944C20.1456 20.1944 24.5 19.7499 24.5 18.0824C24.5 16.4149 22.4548 12.8285 17.1956 12.8285ZM17.1956 11.6316C17.7095 11.6316 18.2183 11.5304 18.6931 11.3338C19.1679 11.1371 19.5992 10.8489 19.9626 10.4855C20.3259 10.1222 20.6142 9.69079 20.8108 9.21604C21.0075 8.74129 21.1087 8.23245 21.1087 7.71859C21.1087 7.20472 21.0075 6.69588 20.8108 6.22113C20.6142 5.74638 20.3259 5.31501 19.9626 4.95165C19.5992 4.58829 19.1679 4.30005 18.6931 4.1034C18.2183 3.90676 17.7095 3.80554 17.1956 3.80554C16.1578 3.80554 15.1625 4.21781 14.4287 4.95165C13.6949 5.68548 13.2826 6.68078 13.2826 7.71859C13.2826 8.75639 13.6949 9.75169 14.4287 10.4855C15.1625 11.2194 16.1578 11.6316 17.1956 11.6316Z" fill="#B4C0D3"/>
</g>
<defs>
<clipPath id="clip0_121377_1229">
<rect width="24" height="24" fill="white" transform="translate(0.5)"/>
</clipPath>
</defs>
</svg>
