<svg width="25" height="24" viewBox="0 0 25 24" fill="none" xmlns="http://www.w3.org/2000/svg">
<path fill-rule="evenodd" clip-rule="evenodd" d="M22.6555 21H5.34453C5.20058 21 5.05901 20.9582 4.93327 20.8786C4.92826 20.8754 4.92329 20.8722 4.91835 20.8689C4.93377 20.9131 4.95053 20.9568 4.96863 21H2.3161C2.17699 21 2.04019 20.9617 1.91869 20.8886C1.79718 20.8155 1.69501 20.7101 1.62187 20.5824C1.54874 20.4547 1.50707 20.309 1.50082 20.159C1.49458 20.009 1.52396 19.8599 1.58618 19.7256L7.58024 8.97344C7.71506 8.68025 7.92327 8.43366 8.1813 8.26162C8.43933 8.08957 8.73685 7.99895 9.04016 8.00001C9.34346 7.99896 9.64097 8.08959 9.89898 8.26164C10.0153 8.33917 10.1214 8.43185 10.2153 8.5371L12.4893 4.06092C12.6295 3.74214 12.8452 3.47403 13.112 3.28664C13.3788 3.09926 13.6863 3 14 3C14.3137 3 14.6213 3.09926 14.8881 3.28664C15.1549 3.47403 15.3705 3.74214 15.5108 4.06092L23.4108 19.6116C23.4752 19.7579 23.5056 19.9204 23.4991 20.0838C23.4927 20.2472 23.4496 20.4059 23.3739 20.5451C23.2982 20.6842 23.1925 20.799 23.0667 20.8786C22.941 20.9582 22.7994 21 22.6555 21ZM9.60773 14.2574C10.2195 14.2574 10.7155 13.7521 10.7155 13.1287C10.7155 12.5053 10.2195 12 9.60773 12C8.99594 12 8.5 12.5053 8.5 13.1287C8.5 13.7521 8.99594 14.2574 9.60773 14.2574ZM15.718 16.144C16.0889 16.5004 16.1061 17.0957 15.7563 17.4736C14.9408 18.3551 13.642 18.7 12.5 18.7C11.358 18.7 10.0592 18.3551 9.24367 17.4736C8.89392 17.0957 8.9111 16.5004 9.28204 16.144C9.65298 15.7876 10.2372 15.8051 10.5869 16.1831C10.92 16.543 11.6316 16.8188 12.5 16.8188C13.3684 16.8188 14.08 16.543 14.4131 16.1831C14.7628 15.8051 15.347 15.7876 15.718 16.144ZM16.5 13.1287C16.5 13.7521 16.0041 14.2574 15.3923 14.2574C14.7805 14.2574 14.2845 13.7521 14.2845 13.1287C14.2845 12.5053 14.7805 12 15.3923 12C16.0041 12 16.5 12.5053 16.5 13.1287Z" fill="#B4C0D3"/>
</svg>
