<svg width="20" height="21" viewBox="0 0 20 21" fill="none" xmlns="http://www.w3.org/2000/svg">
<path fill-rule="evenodd" clip-rule="evenodd" d="M18.4629 18H4.03712C3.91716 18 3.79918 17.9652 3.6944 17.8988C3.69023 17.8962 3.68608 17.8935 3.68197 17.8908C3.69482 17.9276 3.70879 17.964 3.72387 18H1.51343C1.39751 18 1.2835 17.968 1.18225 17.9071C1.08099 17.8462 0.995851 17.7584 0.934906 17.652C0.87396 17.5456 0.839235 17.4241 0.83403 17.2992C0.828824 17.1742 0.85331 17.0499 0.905163 16.938L5.90021 7.97787C6.01256 7.73354 6.18607 7.52805 6.40109 7.38468C6.61612 7.24131 6.86405 7.16579 7.11681 7.16667C7.36956 7.1658 7.61748 7.24133 7.83249 7.3847C7.92939 7.44931 8.01786 7.52654 8.0961 7.61425L9.9911 3.8841C10.108 3.61845 10.2876 3.39503 10.51 3.23887C10.7324 3.08271 10.9886 3 11.25 3C11.5115 3 11.7677 3.08271 11.9901 3.23887C12.2125 3.39503 12.3921 3.61845 12.509 3.8841L19.0924 16.843C19.146 16.9649 19.1714 17.1004 19.166 17.2365C19.1606 17.3726 19.1246 17.505 19.0616 17.6209C18.9985 17.7368 18.9104 17.8325 18.8056 17.8988C18.7008 17.9652 18.5829 18 18.4629 18ZM7.58979 12.3812C8.0996 12.3812 8.51289 11.96 8.51289 11.4406C8.51289 10.9211 8.0996 10.5 7.58979 10.5C7.07996 10.5 6.66668 10.9211 6.66668 11.4406C6.66668 11.96 7.07996 12.3812 7.58979 12.3812ZM12.6816 13.9533C12.9908 14.2503 13.0051 14.7464 12.7136 15.0614C12.034 15.7959 10.9517 16.0833 10 16.0833C9.04837 16.0833 7.96604 15.7959 7.28641 15.0614C6.99495 14.7464 7.00926 14.2503 7.31838 13.9533C7.6275 13.6564 8.11436 13.6709 8.4058 13.986C8.68332 14.2858 9.27634 14.5157 10 14.5157C10.7237 14.5157 11.3167 14.2858 11.5942 13.986C11.8857 13.6709 12.3725 13.6564 12.6816 13.9533ZM13.3333 11.4406C13.3333 11.96 12.9201 12.3812 12.4102 12.3812C11.9004 12.3812 11.4871 11.96 11.4871 11.4406C11.4871 10.9211 11.9004 10.5 12.4102 10.5C12.9201 10.5 13.3333 10.9211 13.3333 11.4406Z" fill="#5AC563"/>
</svg>
