<svg width="60" height="60" viewBox="0 0 60 60" fill="none" xmlns="http://www.w3.org/2000/svg">
<rect width="60" height="60" rx="30" fill="#489E4F"/>
<path d="M18.842 22.6994V24.1591H16.2449L16.2449 29.1827C17.1075 29.1637 18.0553 29.0879 19.0885 28.8415L19.2591 30.339C17.7236 30.6803 16.4914 30.6803 15.3161 30.6992H14.5388V22.6994H18.842ZM24.3395 22.6994V24.1591H21.5339V29.1637C22.823 29.1353 23.7518 29.0595 24.8513 28.8035L25.0409 30.3201C23.6191 30.6423 22.5196 30.6613 20.6808 30.6613H19.8088L19.8088 22.6994H24.3395ZM27.638 21.1071V26.0927L29.7991 26.0927L29.7991 27.5903L27.638 27.5903L27.638 33.5048H25.8371L25.8371 21.1071L27.638 21.1071ZM28.2636 36.2915V37.7511H16.5103V32.4053H18.3491V36.2915H28.2636ZM44.5702 21.126V38.1492H42.7693V21.126L44.5702 21.126ZM35.4899 22.3961C38.0111 22.3961 39.8689 24.7089 39.8689 28.3486C39.8689 32.0072 38.0111 34.32 35.4899 34.32C32.9307 34.32 31.0919 32.0072 31.0919 28.3486C31.0919 24.7089 32.9307 22.3961 35.4899 22.3961ZM35.4899 24.0075C33.9165 24.0075 32.8359 25.6757 32.8359 28.3486C32.8359 31.0404 33.9165 32.7086 35.4899 32.7086C37.0443 32.7086 38.1249 31.0404 38.1249 28.3486C38.1249 25.6757 37.0443 24.0075 35.4899 24.0075Z" fill="white"/>
</svg>
