<svg width="20" height="21" viewBox="0 0 20 21" fill="none" xmlns="http://www.w3.org/2000/svg">
<g id="ic_closecircle_filled">
<path id="Subtract" fill-rule="evenodd" clip-rule="evenodd" d="M10 19.6666C15.0626 19.6666 19.1667 15.5625 19.1667 10.4999C19.1667 5.43731 15.0626 1.33325 10 1.33325C4.9374 1.33325 0.833344 5.43731 0.833344 10.4999C0.833344 15.5625 4.9374 19.6666 10 19.6666ZM14.6086 5.89131C14.8527 6.13539 14.8527 6.53112 14.6086 6.77519L10.8839 10.4999L14.6086 14.2246C14.8527 14.4687 14.8527 14.8644 14.6086 15.1085C14.3645 15.3526 13.9688 15.3526 13.7247 15.1085L10 11.3838L6.27528 15.1085C6.03121 15.3526 5.63548 15.3526 5.3914 15.1085C5.14732 14.8644 5.14732 14.4687 5.3914 14.2246L9.11613 10.4999L5.3914 6.77519C5.14732 6.53112 5.14732 6.13539 5.3914 5.89131C5.63548 5.64723 6.03121 5.64723 6.27528 5.89131L10 9.61603L13.7247 5.89131C13.9688 5.64723 14.3645 5.64723 14.6086 5.89131Z" fill="#CCCCCC"/>
</g>
</svg>
