<svg width="20" height="24" viewBox="0 0 20 24" fill="none" xmlns="http://www.w3.org/2000/svg">
<g id="Profile">
<g id="Group 3">
<mask id="mask0_5330_8956" style="mask-type:luminance" maskUnits="userSpaceOnUse" x="0" y="14" width="20" height="10">
<path id="Clip 2" fill-rule="evenodd" clip-rule="evenodd" d="M0.666992 14.9121H19.1469V23.5151H0.666992V14.9121Z" fill="white"/>
</mask>
<g mask="url(#mask0_5330_8956)">
<path id="Fill 1" fill-rule="evenodd" clip-rule="evenodd" d="M9.90816 16.6621C4.93699 16.6621 2.41699 17.5161 2.41699 19.2019C2.41699 20.9029 4.93699 21.7651 9.90816 21.7651C14.8782 21.7651 17.397 20.9111 17.397 19.2253C17.397 17.5243 14.8782 16.6621 9.90816 16.6621ZM9.90816 23.5151C7.62266 23.5151 0.666992 23.5151 0.666992 19.2019C0.666992 15.3566 5.94149 14.9121 9.90816 14.9121C12.1937 14.9121 19.147 14.9121 19.147 19.2253C19.147 23.0706 13.8737 23.5151 9.90816 23.5151Z" fill="#383A3F"/>
</g>
</g>
<g id="Group 6">
<mask id="mask1_5330_8956" style="mask-type:luminance" maskUnits="userSpaceOnUse" x="3" y="0" width="14" height="13">
<path id="Clip 5" fill-rule="evenodd" clip-rule="evenodd" d="M3.71191 0.333984H16.102V12.7224H3.71191V0.333984Z" fill="white"/>
</mask>
<g mask="url(#mask1_5330_8956)">
<path id="Fill 4" fill-rule="evenodd" clip-rule="evenodd" d="M9.90812 1.99998C7.41028 1.99998 5.37795 4.03115 5.37795 6.52898C5.36978 9.01865 7.38695 11.0487 9.87428 11.058L9.90812 11.891V11.058C12.4048 11.058 14.436 9.02565 14.436 6.52898C14.436 4.03115 12.4048 1.99998 9.90812 1.99998ZM9.90812 12.7228H9.87078C6.46178 12.7123 3.70028 9.93215 3.71195 6.52548C3.71195 3.11298 6.49095 0.333984 9.90812 0.333984C13.3241 0.333984 16.102 3.11298 16.102 6.52898C16.102 9.94498 13.3241 12.7228 9.90812 12.7228Z" fill="#383A3F"/>
</g>
</g>
</g>
</svg>
