<svg width="25" height="25" viewBox="0 0 25 25" fill="none" xmlns="http://www.w3.org/2000/svg">
<g id="Discovery">
<path id="Fill 1" fill-rule="evenodd" clip-rule="evenodd" d="M11.0793 11.0808L9.85777 14.9856L13.7614 13.7629L14.9841 9.85809L11.0793 11.0808ZM8.52311 17.1941C8.29444 17.1941 8.07044 17.1043 7.90361 16.9386C7.67377 16.7076 7.58977 16.3681 7.68777 16.0589L9.54627 10.1218C9.63144 9.84642 9.84611 9.63292 10.1191 9.54776L16.0563 7.68926C16.3678 7.59009 16.7061 7.67526 16.9371 7.90509C17.1669 8.13609 17.2509 8.47559 17.1529 8.78476L15.2956 14.7219C15.2104 14.9961 14.9946 15.2108 14.7216 15.2959L8.78444 17.1544C8.69811 17.1813 8.60944 17.1941 8.52311 17.1941Z" fill="#383A3F"/>
<g id="Group 5">
<mask id="mask0_5330_8978" style="mask-type:luminance" maskUnits="userSpaceOnUse" x="0" y="0" width="25" height="25">
<path id="Clip 4" fill-rule="evenodd" clip-rule="evenodd" d="M0.333008 0.333984H24.5084V24.5093H0.333008V0.333984Z" fill="white"/>
</mask>
<g mask="url(#mask0_5330_8978)">
<path id="Fill 3" fill-rule="evenodd" clip-rule="evenodd" d="M12.4208 2.08398C6.72051 2.08398 2.08301 6.72265 2.08301 12.4218C2.08301 18.1222 6.72051 22.7597 12.4208 22.7597C18.1212 22.7597 22.7587 18.1222 22.7587 12.4218C22.7587 6.72265 18.1212 2.08398 12.4208 2.08398ZM12.4208 24.5097C5.75567 24.5097 0.333008 19.087 0.333008 12.4218C0.333008 5.75665 5.75567 0.333984 12.4208 0.333984C19.086 0.333984 24.5087 5.75665 24.5087 12.4218C24.5087 19.087 19.086 24.5097 12.4208 24.5097Z" fill="#383A3F"/>
</g>
</g>
</g>
</svg>
