<svg width="24" height="24" viewBox="0 0 24 24" fill="none" xmlns="http://www.w3.org/2000/svg">
<g id="Iconly/Bold/Home">
<g id="Home">
<path id="Vector" d="M8.65732 22.2357V18.6684C8.65732 17.7577 9.40095 17.0195 10.3183 17.0195H13.6715C14.112 17.0195 14.5344 17.1932 14.8459 17.5025C15.1574 17.8117 15.3324 18.2311 15.3324 18.6684V22.2357C15.3296 22.6143 15.4792 22.9784 15.7478 23.247C16.0165 23.5157 16.3821 23.6668 16.7635 23.6668H19.0512C20.1197 23.6696 21.1453 23.2501 21.9018 22.5011C22.6583 21.7521 23.0834 20.735 23.0834 19.6743V9.5115C23.0834 8.6547 22.7008 7.84198 22.0388 7.29228L14.2564 1.12201C12.9027 0.0401514 10.963 0.0750819 9.6497 1.20497L2.04493 7.29228C1.35161 7.82577 0.937226 8.6409 0.916748 9.5115V19.6639C0.916748 21.8747 2.72203 23.6668 4.94895 23.6668H7.18442C7.97651 23.6668 8.62024 23.0324 8.62598 22.2461L8.65732 22.2357Z" fill="#19191B"/>
</g>
</g>
</svg>
