<svg width="18" height="18" viewBox="0 0 18 18" fill="none" xmlns="http://www.w3.org/2000/svg">
<g id="ai-navigation-spark--map-location-direction-travel-artificial-intelligence-ai" clip-path="url(#clip0_121680_675)">
<g id="ai-navigation-spark--map-location-direction-travel-artificial-intelligence-ai_2">
<path id="Union" fill-rule="evenodd" clip-rule="evenodd" d="M12.5202 1.45129C12.7339 0.475004 14.124 0.468928 14.3463 1.44331L14.3564 1.48807C14.3633 1.51834 14.3696 1.54624 14.3764 1.57533C14.6211 2.61789 15.465 3.41452 16.521 3.59826C17.5398 3.77551 17.5398 5.23801 16.521 5.41526C15.4592 5.59997 14.6122 6.40413 14.3725 7.4549L14.3463 7.57021C14.124 8.54459 12.7339 8.53851 12.5202 7.56222L12.4985 7.46328C12.2677 6.40873 11.4218 5.59865 10.3582 5.41361C9.34125 5.2367 9.34124 3.77682 10.3582 3.5999C11.418 3.41551 12.2618 2.61041 12.4961 1.56125L12.512 1.48867L12.5202 1.45129ZM10.153 6.59257C8.18833 6.25077 7.87389 3.82698 9.20979 2.81883C8.513 2.55054 7.75604 2.40348 6.96473 2.40348C3.51294 2.40348 0.714722 5.20171 0.714722 8.65348C0.714722 10.7821 1.84846 12.9211 3.11561 14.4955C3.75566 15.2906 4.45072 15.9685 5.09564 16.4535C5.41788 16.6957 5.73735 16.8973 6.03958 17.0405C6.33301 17.1796 6.65317 17.2844 6.96473 17.2844C7.27628 17.2844 7.59643 17.1796 7.88986 17.0405C8.1921 16.8973 8.51156 16.6957 8.8338 16.4535C9.47873 15.9685 10.1738 15.2906 10.8138 14.4955C11.9173 13.1244 12.9196 11.3253 13.1601 9.47769C12.3383 9.37719 11.5711 8.82327 11.3511 7.81813L11.3295 7.71918C11.2026 7.13954 10.7376 6.69427 10.153 6.59257ZM6.96473 10.7368C8.11531 10.7368 9.04806 9.80408 9.04806 8.65348C9.04806 7.50289 8.11531 6.57015 6.96473 6.57015C5.81413 6.57015 4.88139 7.50289 4.88139 8.65348C4.88139 9.80408 5.81413 10.7368 6.96473 10.7368Z" fill="white"/>
</g>
</g>
<defs>
<clipPath id="clip0_121680_675">
<rect width="16.6667" height="16.6667" fill="white" transform="translate(0.666626 0.666656)"/>
</clipPath>
</defs>
</svg>
