<svg width="20" height="20" viewBox="0 0 20 20" fill="none" xmlns="http://www.w3.org/2000/svg">
<g id="Group 1171275910">
<path id="Vector" d="M16.9445 9.99279C16.9449 11.3656 16.5378 12.7076 15.775 13.8492C15.0121 14.9908 13.9276 15.8806 12.6587 16.4062C11.3898 16.9317 9.99348 17.0694 8.64629 16.8018C7.2991 16.5342 6.06157 15.8733 5.09021 14.9027C4.11885 13.9321 3.4573 12.6954 3.18922 11.349C2.92114 10.0026 3.05857 8.60703 3.58413 7.33871C4.10969 6.0704 4.99977 4.98633 6.14181 4.22362C7.28386 3.46091 8.62656 3.05381 10.0001 3.05381C10.9125 3.05171 11.8164 3.22974 12.6597 3.57769C13.5031 3.92564 14.2694 4.43666 14.9147 5.0814C15.5599 5.72614 16.0714 6.49192 16.4198 7.33475C16.7681 8.17759 16.9464 9.08089 16.9445 9.99279V9.99279Z" stroke="#373F57" stroke-width="1.66667" stroke-linecap="square"/>
<path id="Vector_2" d="M13.3333 9.99372C13.3334 10.6527 13.1381 11.2968 12.7719 11.8448C12.4057 12.3928 11.8852 12.8199 11.2761 13.0722C10.667 13.3244 9.99678 13.3905 9.35013 13.262C8.70347 13.1336 8.10946 12.8164 7.64321 12.3505C7.17696 11.8846 6.85941 11.291 6.73073 10.6447C6.60205 9.99845 6.66802 9.32856 6.92029 8.71977C7.17256 8.11097 7.5998 7.59062 8.14798 7.22452C8.69616 6.85842 9.34065 6.66301 9.99996 6.66301C10.4379 6.662 10.8718 6.74746 11.2766 6.91448C11.6814 7.08149 12.0492 7.32678 12.359 7.63626C12.6687 7.94573 12.9142 8.3133 13.0814 8.71786C13.2486 9.12243 13.3342 9.55601 13.3333 9.99372V9.99372Z" stroke="#373F57" stroke-width="1.66667" stroke-linecap="square"/>
<line id="Line 78" x1="10.0694" y1="0.833334" x2="10.0694" y2="2.36111" stroke="#373F57" stroke-width="1.66667"/>
<line id="Line 79" x1="0.833374" y1="9.93062" x2="2.36115" y2="9.93062" stroke="#373F57" stroke-width="1.66667"/>
<line id="Line 80" x1="17.6389" y1="9.93062" x2="19.1667" y2="9.93062" stroke="#373F57" stroke-width="1.66667"/>
<line id="Line 81" x1="10.0694" y1="17.639" x2="10.0694" y2="19.1667" stroke="#373F57" stroke-width="1.66667"/>
</g>
</svg>
