<svg width="57" height="26" viewBox="0 0 57 26" fill="none" xmlns="http://www.w3.org/2000/svg">
<g id="Frame 1000000884">
<g id="star">
<path id="Vector" d="M14.8704 3.80212L16.7771 7.61545C17.0371 8.14629 17.7304 8.65545 18.3154 8.75295L21.7712 9.32712C23.9812 9.69545 24.5012 11.2988 22.9087 12.8805L20.2221 15.5671C19.7671 16.0221 19.5179 16.8996 19.6587 17.528L20.4279 20.8538C21.0346 23.4863 19.6371 24.5046 17.3079 23.1288L14.0687 21.2113C13.4837 20.8646 12.5196 20.8646 11.9237 21.2113L8.68457 23.1288C6.36624 24.5046 4.95791 23.4755 5.56457 20.8538L6.33374 17.528C6.47457 16.8996 6.22541 16.0221 5.77041 15.5671L3.08374 12.8805C1.50207 11.2988 2.01124 9.69545 4.22124 9.32712L7.67707 8.75295C8.25124 8.65545 8.94457 8.14629 9.20457 7.61545L11.1112 3.80212C12.1512 1.73295 13.8412 1.73295 14.8704 3.80212Z" fill="#8AA4A6"/>
</g>
<g id="Group">
<g id="Vector_2">
<path d="M47 5.39739C45.5266 5.39739 44.1135 5.99358 43.0717 7.0548C42.0298 8.11603 41.4445 9.55536 41.4445 11.0562V16.7149C41.4446 16.9385 41.3796 17.1571 41.2579 17.3431L40.1879 18.9784H53.811L52.741 17.3431C52.6196 17.1569 52.5551 16.9384 52.5555 16.7149V11.0562C52.5555 9.55536 51.9702 8.11603 50.9283 7.0548C49.8865 5.99358 48.4734 5.39739 47 5.39739Z" fill="#8AA4A6"/>
<path d="M47 5.39739C45.5266 5.39739 44.1135 5.99358 43.0717 7.0548C42.0298 8.11603 41.4445 9.55536 41.4445 11.0562V16.7149C41.4446 16.9385 41.3796 17.1571 41.2579 17.3431L40.1879 18.9784H53.811L52.741 17.3431C52.6196 17.1569 52.5551 16.9384 52.5555 16.7149V11.0562C52.5555 9.55536 51.9702 8.11603 50.9283 7.0548C49.8865 5.99358 48.4734 5.39739 47 5.39739Z" fill="#8AA4A6"/>
<path fill-rule="evenodd" clip-rule="evenodd" d="M44.94 3.41455C45.106 2.99661 45.3908 2.63869 45.7578 2.38666C46.1248 2.13464 46.5574 2 47 2C47.4426 2 47.8752 2.13464 48.2422 2.38666C48.6092 2.63869 48.894 2.99661 49.06 3.41455C50.703 3.87482 52.1523 4.87175 53.1852 6.25224C54.2181 7.63273 54.7776 9.32044 54.7776 11.0562V16.372L56.8132 19.4821C56.9248 19.6525 56.9889 19.8506 56.9987 20.0553C57.0085 20.2599 56.9635 20.4635 56.8686 20.6441C56.7737 20.8248 56.6324 20.9758 56.4599 21.0811C56.2873 21.1864 56.0899 21.242 55.8887 21.2419H50.8499H48.5722H45.4289H45.4278H43.1501H38.1113C37.9101 21.242 37.7127 21.1864 37.5401 21.0811C37.3676 20.9758 37.2263 20.8248 37.1314 20.6441C37.0365 20.4635 36.9915 20.2599 37.0013 20.0553C37.0111 19.8506 37.0752 19.6525 37.1868 19.4821L39.2224 16.372V11.0562C39.2224 7.40738 41.6445 4.33354 44.94 3.41455ZM43.0717 7.0548C44.1135 5.99358 45.5266 5.39739 47 5.39739C48.4734 5.39739 49.8865 5.99358 50.9283 7.0548C51.9702 8.11603 52.5555 9.55536 52.5555 11.0562V16.7149C52.5551 16.9384 52.6196 17.1569 52.741 17.3431L53.811 18.9784H40.1879L41.2579 17.3431C41.3796 17.1571 41.4446 16.9385 41.4445 16.7149V11.0562C41.4445 9.55536 42.0298 8.11603 43.0717 7.0548Z" fill="#8AA4A6"/>
</g>
<path id="Ellipse 29" d="M43.0723 21.1063C43.0723 21.6176 43.1716 22.1239 43.3645 22.5963C43.5575 23.0687 43.8403 23.498 44.1968 23.8595C44.5533 24.2211 44.9765 24.5079 45.4423 24.7035C45.9081 24.8992 46.4074 24.9999 46.9116 24.9999C47.4157 24.9999 47.915 24.8992 48.3808 24.7035C48.8466 24.5079 49.2698 24.2211 49.6263 23.8595C49.9828 23.498 50.2656 23.0687 50.4586 22.5963C50.6515 22.1239 50.7508 21.6176 50.7508 21.1063H46.9116L43.0723 21.1063Z" fill="#8AA4A6"/>
<path id="Ellipse 9" d="M57 5.54389C57 7.50112 55.433 9.08778 53.5 9.08778C51.567 9.08778 50 7.50112 50 5.54389C50 3.58665 51.567 2 53.5 2C55.433 2 57 3.58665 57 5.54389Z" fill="#FF0909"/>
</g>
</g>
</svg>
