<svg width="15" height="18" viewBox="0 0 15 18" fill="none" xmlns="http://www.w3.org/2000/svg">
<g id="Location">
<path id="Fill 1" fill-rule="evenodd" clip-rule="evenodd" d="M7.59196 6.12413C6.74264 6.12413 6.05174 6.81503 6.05174 7.66523C6.05174 8.51455 6.74264 9.20456 7.59196 9.20456C8.44128 9.20456 9.13218 8.51455 9.13218 7.66523C9.13218 6.81503 8.44128 6.12413 7.59196 6.12413M7.59185 10.5248C6.01467 10.5248 4.73145 9.24243 4.73145 7.66524C4.73145 6.08718 6.01467 4.80396 7.59185 4.80396C9.16904 4.80396 10.4523 6.08718 10.4523 7.66524C10.4523 9.24243 9.16904 10.5248 7.59185 10.5248" fill="#717171"/>
<g id="Group 5">
<mask id="mask0_5740_7319" style="mask-type:luminance" maskUnits="userSpaceOnUse" x="0" y="0" width="15" height="18">
<path id="Clip 4" fill-rule="evenodd" clip-rule="evenodd" d="M0.330078 0.40332H14.8517V17.5658H0.330078V0.40332Z" fill="white"/>
</mask>
<g mask="url(#mask0_5740_7319)">
<path id="Fill 3" fill-rule="evenodd" clip-rule="evenodd" d="M7.59024 1.7235C4.31442 1.7235 1.6494 4.41405 1.6494 7.71979C1.6494 11.9259 6.59922 16.0238 7.59024 16.242C8.58126 16.0229 13.5311 11.925 13.5311 7.71979C13.5311 4.41405 10.8661 1.7235 7.59024 1.7235V1.7235ZM7.59013 17.5658C6.01119 17.5658 0.329102 12.6793 0.329102 7.7198C0.329102 3.68531 3.58644 0.40332 7.59013 0.40332C11.5938 0.40332 14.8512 3.68531 14.8512 7.7198C14.8512 12.6793 9.16908 17.5658 7.59013 17.5658V17.5658Z" fill="#717171"/>
</g>
</g>
</g>
</svg>
