<svg width="20" height="20" viewBox="0 0 20 20" fill="none" xmlns="http://www.w3.org/2000/svg">
<line x1="4.79167" y1="12.3611" x2="4.79167" y2="0.833306" stroke="#011327" stroke-width="1.66667"/>
<line x1="4.79167" y1="19.1666" x2="4.79167" y2="15.6944" stroke="#011327" stroke-width="1.66667"/>
<path d="M6.80553 14.2952L6.80553 14.2972C6.80562 14.6813 6.69171 15.057 6.47817 15.3765C6.26462 15.6961 5.961 15.9452 5.60565 16.0924C5.2503 16.2396 4.85924 16.2782 4.48193 16.2032C4.10463 16.1283 3.75811 15.9432 3.48616 15.6714C3.21421 15.3997 3.02905 15.0535 2.95402 14.6767C2.879 14.2999 2.91746 13.9093 3.06455 13.5543C3.21165 13.1993 3.46081 12.8959 3.78059 12.6823C4.10037 12.4687 4.47639 12.3547 4.86109 12.3547L4.86301 12.3547C5.1183 12.3541 5.37118 12.4039 5.60712 12.5013C5.84307 12.5986 6.05743 12.7416 6.2379 12.9219C6.41837 13.1022 6.5614 13.3164 6.6588 13.552C6.7562 13.7877 6.80606 14.0403 6.80553 14.2952Z" stroke="#011327" stroke-width="1.66667" stroke-linecap="square"/>
<line x1="15.0695" y1="12.3611" x2="15.0695" y2="0.833306" stroke="#011327" stroke-width="1.66667"/>
<line x1="15.0695" y1="19.1666" x2="15.0695" y2="15.6944" stroke="#011327" stroke-width="1.66667"/>
<path d="M17.0834 14.2952L17.0834 14.2972C17.0834 14.6813 16.9695 15.057 16.756 15.3765C16.5425 15.6961 16.2388 15.9452 15.8835 16.0924C15.5281 16.2396 15.1371 16.2782 14.7598 16.2032C14.3825 16.1283 14.0359 15.9432 13.764 15.6714C13.492 15.3997 13.3069 15.0535 13.2319 14.6767C13.1568 14.2999 13.1953 13.9093 13.3424 13.5543C13.4895 13.1993 13.7386 12.8959 14.0584 12.6823C14.3782 12.4687 14.7542 12.3547 15.1389 12.3547L15.1408 12.3547C15.3961 12.3541 15.649 12.4039 15.885 12.5013C16.1209 12.5986 16.3353 12.7416 16.5157 12.9219C16.6962 13.1022 16.8392 13.3164 16.9366 13.552C17.034 13.7877 17.0839 14.0403 17.0834 14.2952Z" stroke="#011327" stroke-width="1.66667" stroke-linecap="square"/>
<line x1="10.0695" y1="8.33337" x2="10.0695" y2="19.1667" stroke="#011327" stroke-width="1.66667"/>
<line x1="10.0695" y1="0.833374" x2="10.0695" y2="4.3056" stroke="#011327" stroke-width="1.66667"/>
<path d="M8.05562 5.69366L8.05562 5.69174C8.05553 5.30755 8.16943 4.93193 8.38298 4.61238C8.59653 4.29282 8.90015 4.04366 9.25549 3.89648C9.61084 3.7493 10.0019 3.71074 10.3792 3.78569C10.7565 3.86064 11.103 4.04572 11.375 4.31746C11.6469 4.58919 11.8321 4.93536 11.9071 5.31217C11.9821 5.68898 11.9437 6.07956 11.7966 6.43455C11.6495 6.78954 11.4003 7.09304 11.0806 7.3066C10.7608 7.52017 10.3848 7.63419 10.0001 7.63419L9.99813 7.63419C9.74285 7.63478 9.48997 7.58497 9.25402 7.48762C9.01807 7.39028 8.80372 7.24733 8.62325 7.067C8.44278 6.88667 8.29975 6.67252 8.20235 6.43685C8.10494 6.20118 8.05508 5.94862 8.05562 5.69366Z" stroke="#011327" stroke-width="1.66667" stroke-linecap="square"/>
</svg>
