<svg width="15" height="15" viewBox="0 0 15 15" fill="none" xmlns="http://www.w3.org/2000/svg">
<g id="Icon">
<g id="Search">
<g id="Group 3">
<mask id="mask0_5558_20912" style="mask-type:luminance" maskUnits="userSpaceOnUse" x="1" y="1" width="13" height="13">
<path id="Clip 2" fill-rule="evenodd" clip-rule="evenodd" d="M1.87207 1.82739H13.1748V13.1303H1.87207V1.82739Z" fill="white"/>
</mask>
<g mask="url(#mask0_5558_20912)">
<path id="Fill 1" fill-rule="evenodd" clip-rule="evenodd" d="M7.5237 2.69678C4.88679 2.69678 2.7415 4.84148 2.7415 7.4784C2.7415 10.1153 4.88679 12.2606 7.5237 12.2606C10.16 12.2606 12.3053 10.1153 12.3053 7.4784C12.3053 4.84148 10.16 2.69678 7.5237 2.69678ZM7.52282 13.129C4.40651 13.129 1.87109 10.5936 1.87109 7.47731C1.87109 4.361 4.40651 1.82617 7.52282 1.82617C10.6391 1.82617 13.174 4.361 13.174 7.47731C13.174 10.5936 10.6391 13.129 7.52282 13.129Z" fill="#3C6270"/>
</g>
</g>
<g id="Group 6">
<mask id="mask1_5558_20912" style="mask-type:luminance" maskUnits="userSpaceOnUse" x="10" y="10" width="4" height="4">
<path id="Clip 5" fill-rule="evenodd" clip-rule="evenodd" d="M10.7158 10.9419H13.632V13.8526H10.7158V10.9419Z" fill="white"/>
</mask>
<g mask="url(#mask1_5558_20912)">
<path id="Fill 4" fill-rule="evenodd" clip-rule="evenodd" d="M13.1967 13.8526C13.0859 13.8526 12.9744 13.8103 12.8891 13.7255L10.8437 11.6859C10.6736 11.5158 10.673 11.2401 10.8431 11.07C11.0126 10.8988 11.2883 10.9 11.4589 11.0689L13.5044 13.1091C13.6744 13.2792 13.675 13.5543 13.505 13.7244C13.4202 13.8103 13.3082 13.8526 13.1967 13.8526Z" fill="#3C6270"/>
</g>
</g>
</g>
</g>
</svg>
