<svg width="375" height="529" viewBox="0 0 375 529" fill="none" xmlns="http://www.w3.org/2000/svg">
<rect width="375" height="529" fill="#F4F6FA"/>
<g filter="url(#filter0_d_121331_75102)">
<path d="M16 24C16 19.5817 19.5817 16 24 16H351C355.418 16 359 19.5817 359 24V161C359 165.418 355.418 169 351 169H24C19.5817 169 16 165.418 16 161V24Z" fill="white" shape-rendering="crispEdges"/>
<path d="M32.8633 47L32.8506 46.1621L35.9863 42.8613C37.0781 41.7061 37.5986 41.084 37.5986 40.2334C37.5986 39.2939 36.7988 38.6719 35.7705 38.6719C34.6787 38.6719 33.9805 39.3701 33.9805 40.3984H32.9014C32.8887 38.7734 34.1455 37.6816 35.8086 37.6816C37.4717 37.6816 38.665 38.7988 38.665 40.2334C38.665 41.2617 38.1826 42.0615 36.5576 43.7373L34.4502 45.9082V45.9844H38.8301V47H32.8633ZM43.3395 47.127C41.2955 47.127 40.1275 45.4131 40.1275 42.4043C40.1275 39.4209 41.3209 37.6816 43.3395 37.6816C45.358 37.6816 46.5514 39.4209 46.5514 42.4043C46.5514 45.4131 45.3707 47.127 43.3395 47.127ZM43.3395 46.1113C44.6598 46.1113 45.4342 44.7783 45.4342 42.4043C45.4342 40.0303 44.6598 38.6719 43.3395 38.6719C42.0191 38.6719 41.232 40.0303 41.232 42.4043C41.232 44.7783 42.0064 46.1113 43.3395 46.1113ZM47.9123 47L47.8996 46.1621L51.0354 42.8613C52.1271 41.7061 52.6477 41.084 52.6477 40.2334C52.6477 39.2939 51.8479 38.6719 50.8195 38.6719C49.7277 38.6719 49.0295 39.3701 49.0295 40.3984H47.9504C47.9377 38.7734 49.1945 37.6816 50.8576 37.6816C52.5207 37.6816 53.7141 38.7988 53.7141 40.2334C53.7141 41.2617 53.2316 42.0615 51.6066 43.7373L49.4992 45.9082V45.9844H53.8791V47H47.9123ZM54.948 45.1211V44.1816L59.0867 37.8086H60.4959V44.1182H61.7781V45.1211H60.4959V47H59.4041V45.1211H54.948ZM56.1795 44.1182H59.4041V39.2559H59.2898L56.1795 44.042V44.1182ZM63.4945 47.0762C63.0502 47.0762 62.6693 46.708 62.682 46.251C62.6693 45.8066 63.0502 45.4385 63.4945 45.4385C63.9389 45.4385 64.307 45.8066 64.307 46.251C64.307 46.708 63.9389 47.0762 63.4945 47.0762ZM68.5244 47.127C66.4805 47.127 65.3125 45.4131 65.3125 42.4043C65.3125 39.4209 66.5059 37.6816 68.5244 37.6816C70.543 37.6816 71.7363 39.4209 71.7363 42.4043C71.7363 45.4131 70.5557 47.127 68.5244 47.127ZM68.5244 46.1113C69.8447 46.1113 70.6191 44.7783 70.6191 42.4043C70.6191 40.0303 69.8447 38.6719 68.5244 38.6719C67.2041 38.6719 66.417 40.0303 66.417 42.4043C66.417 44.7783 67.1914 46.1113 68.5244 46.1113ZM76.2965 47.127C74.6969 47.1016 72.9449 46.1621 72.9449 42.7598C72.9449 39.5098 74.2779 37.6816 76.4361 37.6816C78.0484 37.6816 79.1783 38.6719 79.4195 40.1191H78.2896C78.0738 39.3066 77.4645 38.6973 76.4361 38.6973C74.9254 38.6973 74.024 39.9922 74.024 42.2012H74.1383C74.6715 41.4395 75.5094 40.9824 76.4996 40.9824C78.1373 40.9824 79.4957 42.252 79.4957 44.0293C79.4957 45.7559 78.2262 47.1396 76.2965 47.127ZM76.2965 46.124C77.4898 46.124 78.3785 45.1846 78.3912 44.042C78.3785 42.9121 77.5279 41.9854 76.3219 41.9854C75.1158 41.9854 74.1891 42.9629 74.1764 44.0547C74.1764 45.1338 75.065 46.124 76.2965 46.124ZM81.2629 47.0762C80.8186 47.0762 80.4377 46.708 80.4504 46.251C80.4377 45.8066 80.8186 45.4385 81.2629 45.4385C81.7072 45.4385 82.0754 45.8066 82.0754 46.251C82.0754 46.708 81.7072 47.0762 81.2629 47.0762ZM86.4451 47.127C84.617 47.127 83.3094 46.1494 83.2459 44.6895H84.4012C84.4646 45.5654 85.3406 46.1113 86.4324 46.1113C87.6385 46.1113 88.5271 45.4512 88.5271 44.499C88.5271 43.4961 87.7273 42.7852 86.2928 42.7852H85.5438V41.7822H86.2928C87.41 41.7822 88.1844 41.1602 88.1844 40.208C88.1844 39.2939 87.5115 38.6719 86.4705 38.6719C85.493 38.6719 84.5916 39.2178 84.5408 40.1191H83.4363C83.4998 38.6592 84.8455 37.6816 86.4832 37.6816C88.2352 37.6816 89.3016 38.8242 89.2889 40.1445C89.3016 41.1855 88.6922 41.96 87.7273 42.2266V42.29C88.9207 42.4805 89.657 43.3311 89.6443 44.499C89.657 46.0098 88.2732 47.127 86.4451 47.127ZM94.141 47.127C92.0971 47.127 90.9291 45.4131 90.9291 42.4043C90.9291 39.4209 92.1225 37.6816 94.141 37.6816C96.1596 37.6816 97.3529 39.4209 97.3529 42.4043C97.3529 45.4131 96.1723 47.127 94.141 47.127ZM94.141 46.1113C95.4613 46.1113 96.2357 44.7783 96.2357 42.4043C96.2357 40.0303 95.4613 38.6719 94.141 38.6719C92.8207 38.6719 92.0336 40.0303 92.0336 42.4043C92.0336 44.7783 92.808 46.1113 94.141 46.1113ZM104.823 47.127C102.779 47.127 101.611 45.4131 101.611 42.4043C101.611 39.4209 102.804 37.6816 104.823 37.6816C106.841 37.6816 108.035 39.4209 108.035 42.4043C108.035 45.4131 106.854 47.127 104.823 47.127ZM104.823 46.1113C106.143 46.1113 106.918 44.7783 106.918 42.4043C106.918 40.0303 106.143 38.6719 104.823 38.6719C103.503 38.6719 102.715 40.0303 102.715 42.4043C102.715 44.7783 103.49 46.1113 104.823 46.1113ZM112.455 37.6816C114.042 37.6943 115.794 38.6465 115.794 42.0361C115.794 45.2988 114.461 47.127 112.303 47.127C110.691 47.127 109.548 46.1367 109.32 44.6768H110.449C110.653 45.502 111.275 46.1113 112.303 46.1113C113.801 46.1113 114.715 44.8164 114.728 42.582H114.601C114.068 43.3438 113.23 43.8008 112.252 43.8008C110.602 43.8008 109.243 42.5439 109.243 40.7666C109.243 39.0527 110.5 37.6689 112.455 37.6816ZM112.455 38.6846C111.249 38.6846 110.348 39.624 110.361 40.7539C110.361 41.8965 111.211 42.7979 112.417 42.7979C113.611 42.7979 114.55 41.8076 114.55 40.7285C114.55 39.6748 113.674 38.6846 112.455 38.6846ZM117.993 45.7812C117.549 45.7812 117.168 45.4131 117.18 44.9561C117.168 44.5117 117.549 44.1436 117.993 44.1436C118.437 44.1436 118.805 44.5117 118.805 44.9561C118.805 45.4131 118.437 45.7812 117.993 45.7812ZM117.993 40.6777C117.549 40.6777 117.168 40.3096 117.18 39.8525C117.168 39.4082 117.549 39.04 117.993 39.04C118.437 39.04 118.805 39.4082 118.805 39.8525C118.805 40.3096 118.437 40.6777 117.993 40.6777ZM123.34 47.127C121.677 47.127 120.42 46.0986 120.357 44.6895H121.461C121.55 45.5146 122.35 46.124 123.34 46.124C124.534 46.124 125.397 45.248 125.397 44.0928C125.397 42.8994 124.496 42.0234 123.264 42.0107C122.49 41.998 121.893 42.2393 121.55 42.8359H120.446L121.093 37.8086H126.07V38.8242H122.045L121.703 41.5156H121.791C122.198 41.1982 122.82 40.9824 123.467 40.9824C125.219 40.9824 126.514 42.2773 126.514 44.0674C126.514 45.8447 125.168 47.127 123.34 47.127ZM127.71 45.1211V44.1816L131.849 37.8086H133.258V44.1182H134.54V45.1211H133.258V47H132.166V45.1211H127.71ZM128.941 44.1182H132.166V39.2559H132.052L128.941 44.042V44.1182Z" fill="#67738E"/>
<path d="M44.9072 61.6612C46.1782 61.3641 46.9628 60.0921 46.6657 58.8213C46.3686 57.5503 45.0966 56.7657 43.8257 57.0628C42.5549 57.3599 41.7702 58.6319 42.0673 59.9028C42.3644 61.1748 43.6354 61.9593 44.9072 61.6612Z" fill="#011327"/>
<path d="M36.1732 68.0193L38.3066 68.6679C38.5231 68.7223 38.7669 68.6951 38.9823 68.5601C39.1717 68.4524 39.3338 68.2631 39.3882 68.0193L40.8224 62.4742C40.8768 62.2576 40.8496 62.0139 40.7146 61.7984C40.6069 61.6091 40.4175 61.447 40.1738 61.3926L38.0121 60.7429C37.9305 60.7157 37.8772 60.7157 37.7956 60.7157C37.6335 60.7157 37.4985 60.7701 37.3625 60.8507C37.1732 60.9584 37.011 61.1478 36.9567 61.3915L35.5235 66.9377C35.4158 67.3969 35.6857 67.8843 36.1732 68.0193Z" fill="#011327"/>
<path d="M40.2271 70.0736C39.9561 69.695 39.6862 69.0726 39.8484 68.2075C39.8756 68.1803 39.8757 68.1801 39.8746 68.1247L41.3088 62.5795C41.3632 62.3368 41.5253 62.1475 41.7691 62.0931C41.9312 62.067 42.1206 62.0126 42.2827 61.9854C43.5537 61.7144 44.4731 62.3368 44.879 62.7427L44.8791 62.7428C44.9868 62.8505 45.0956 62.9593 45.2033 63.0942C45.6897 63.7438 46.1228 64.2302 46.8529 64.8798C46.9879 64.9875 47.0967 65.0691 47.2316 65.2041C47.7996 65.3662 48.3132 65.4478 48.9084 65.4206C49.1348 65.4192 49.6141 65.4279 49.7202 65.474C50.1532 65.6361 50.4503 65.9876 50.5319 66.4207C50.5852 66.9887 50.2066 67.449 49.693 67.6111C49.5879 67.6505 49.108 67.6819 48.8812 67.6928C47.9879 67.6928 47.2034 67.585 46.3383 67.3141C46.1761 67.2597 46.0401 67.1781 45.9052 67.0432C45.7159 66.881 45.5265 66.6917 45.3644 66.5567C45.175 66.3946 44.9585 66.2053 44.7692 66.0159L44.0934 68.8288H44.2284C47.1771 69.0452 47.7723 70.6677 47.9073 71.8581V71.9397C47.9073 71.9397 48.151 73.6982 48.3404 75.0236C48.4492 75.7537 47.9617 76.4033 47.2315 76.5111C47.1771 76.5383 47.1238 76.5383 47.0422 76.5383C46.3936 76.5383 45.8518 76.079 45.744 75.4294C45.6624 74.8071 45.3653 72.7516 45.311 72.3185V72.2641L45.3106 72.2612C45.2564 71.8572 45.2275 71.6414 44.0128 71.534C43.8235 71.5068 43.6341 71.5068 43.4448 71.4796L41.8757 77.9714C41.7407 78.5938 41.1999 78.9996 40.6047 78.9996C40.497 78.9996 40.4154 78.9996 40.3076 78.9724C39.6047 78.7831 39.1716 78.0791 39.3337 77.3761L40.93 70.7494C40.6601 70.5601 40.4164 70.3446 40.2271 70.0736Z" fill="#011327"/>
<path d="M50.1893 77.1789C50.2881 77.7223 50.8087 78.0827 51.352 77.9839C51.8954 77.8851 52.2558 77.3645 52.157 76.8211L50.1893 77.1789ZM48.1893 66.1789L50.1893 77.1789L52.157 76.8211L50.157 65.8211L48.1893 66.1789Z" fill="#011327"/>
<path d="M73.3438 67.9688V69.3438H60.4688V67.9688H73.3438ZM66.8906 70.2656C69.9375 70.25 71.7656 71.1719 71.7812 72.8281C71.7656 74.4688 69.9375 75.3906 66.8906 75.3906C63.8125 75.3906 61.9688 74.4688 61.9688 72.8281C61.9688 71.1719 63.8125 70.25 66.8906 70.2656ZM66.8906 71.5781C64.8281 71.5781 63.7188 72 63.7344 72.8281C63.7188 73.6406 64.8281 74.0469 66.8906 74.0469C68.9062 74.0469 70.0312 73.6406 70.0469 72.8281C70.0312 72 68.9062 71.5781 66.8906 71.5781ZM66.8906 61.5938C69.9844 61.5938 71.9688 62.6406 71.9844 64.3281C71.9688 66.0469 69.9844 67.0625 66.8906 67.0625C63.7969 67.0625 61.7969 66.0469 61.7969 64.3281C61.7969 62.6406 63.7969 61.5938 66.8906 61.5938ZM66.8906 62.9531C64.8281 62.9531 63.5938 63.4219 63.6094 64.3281C63.5938 65.2344 64.8281 65.7031 66.8906 65.7031C68.9531 65.7031 70.1875 65.2344 70.1875 64.3281C70.1875 63.4219 68.9531 62.9531 66.8906 62.9531ZM86.9719 68.1719V69.5781H74.0969V68.1719H79.6438V66.9375H75.7688V61.6562H77.4875V63H83.5813V61.6562H85.3V66.9375H81.3938V68.1719H86.9719ZM80.5188 70.3594C83.5656 70.3594 85.4094 71.2656 85.425 72.875C85.4094 74.4844 83.5656 75.375 80.5188 75.375C77.425 75.375 75.6125 74.4844 75.6125 72.875C75.6125 71.2656 77.425 70.3594 80.5188 70.3594ZM80.5188 71.6875C78.4563 71.7031 77.3469 72.0781 77.3469 72.875C77.3469 73.6562 78.4563 74.0469 80.5188 74.0469C82.5344 74.0469 83.6438 73.6562 83.6594 72.875C83.6438 72.0781 82.5344 71.7031 80.5188 71.6875ZM77.4875 65.5781H83.5813V64.3281H77.4875V65.5781ZM92.7875 63.7656C92.7719 65.625 93.9438 67.3906 96.1625 68.1094L95.2563 69.4844C93.6859 68.9531 92.5766 67.8906 91.9594 66.5312C91.3266 68.0312 90.1625 69.2031 88.5219 69.7812L87.5531 68.4062C89.8813 67.6562 91.0375 65.75 91.0375 63.75V62.1406H92.7875V63.7656ZM98.8656 61.2656V65.4375H100.834V66.9062H98.8656V71.6406H97.1313V61.2656H98.8656ZM99.4281 73.7031V75.1094H89.8188V70.625H91.6V73.7031H99.4281ZM116.778 61.2656V69.6562H115.044V66.2031H112.638V64.7812H115.044V61.2656H116.778ZM111.997 70.0156C114.997 70.0156 116.825 71 116.825 72.7031C116.825 74.4062 114.997 75.3906 111.997 75.3906C109.013 75.3906 107.184 74.4062 107.2 72.7031C107.184 71 109.013 70.0156 111.997 70.0156ZM111.997 71.3438C110.028 71.3438 108.919 71.8125 108.919 72.7031C108.919 73.5781 110.028 74.0469 111.997 74.0469C113.966 74.0469 115.091 73.5781 115.091 72.7031C115.091 71.8125 113.966 71.3438 111.997 71.3438ZM110.138 63.6875C110.138 65.4062 111.278 67.1406 113.466 67.875L112.591 69.25C111.02 68.7188 109.903 67.6406 109.294 66.3125C108.669 67.8203 107.489 69.0234 105.809 69.625L104.903 68.25C107.169 67.4688 108.372 65.5625 108.372 63.7031V63.5938H105.434V62.1875H113.059V63.5938H110.138V63.6875ZM123.578 63.5156C123.578 65.2969 124.734 66.9688 126.906 67.6562L125.969 69.0156C124.445 68.5 123.352 67.4688 122.75 66.1562C122.125 67.6562 120.984 68.8359 119.359 69.4062L118.422 68.0469C120.703 67.25 121.828 65.375 121.844 63.3594V62.0156H123.578V63.5156ZM129.719 61.2656V64.7031H131.688V66.1406H129.719V69.7188H127.984V61.2656H129.719ZM125.125 70.0312C128.047 70.0156 129.844 71.0156 129.859 72.6875C129.844 74.3906 128.047 75.375 125.125 75.375C122.172 75.375 120.344 74.3906 120.344 72.6875C120.344 71.0156 122.172 70.0156 125.125 70.0312ZM125.125 71.3906C123.188 71.3906 122.078 71.8594 122.078 72.6875C122.078 73.5625 123.188 74 125.125 74C127.062 74 128.141 73.5625 128.141 72.6875C128.141 71.8594 127.062 71.3906 125.125 71.3906ZM143.972 61.2656V68.4219H142.222V61.2656H143.972ZM139.706 61.8438C139.691 65.625 137.409 67.7812 133.034 68.7031L132.425 67.2969C135.933 66.6094 137.573 65.1406 137.784 63.25H133.175V61.8438H139.706ZM143.972 69V72.6875H136.378V73.8906H144.394V75.25H134.628V71.4219H142.222V70.3594H134.597V69H143.972ZM151.447 74H149.275L153.259 62.6875H155.759L159.759 74H157.588L156.65 71.2031H152.384L151.447 74ZM152.931 69.5625H156.103L154.556 65H154.463L152.931 69.5625ZM171.809 62.5156V63.7969C171.794 65.5156 171.825 67.4844 171.184 70.4688L169.481 70.2969C169.723 69.1641 169.872 68.1562 169.966 67.25L161.637 67.7188L161.387 66.2344L170.059 65.9219C170.091 65.1875 170.098 64.5312 170.106 63.9219H161.825V62.5156H171.809ZM173.2 72.2188V73.6562H160.325V72.2188H165.075V68.7344H166.794V72.2188H173.2ZM181.25 63.2031C181.25 65.3906 183.391 67.5781 186.344 68.0938L185.562 69.5469C183.195 69.0469 181.258 67.6172 180.344 65.7188C179.406 67.6016 177.469 69.0391 175.109 69.5469L174.344 68.0938C177.266 67.5625 179.391 65.375 179.406 63.2031V62.1562H181.25V63.2031ZM186.859 72.1562V73.5938H173.953V72.1562H186.859Z" fill="#011327"/>
<rect x="32" y="92" width="311" height="61" rx="8" fill="#F4F6FA"/>
<path d="M72.3982 105.496V116.02H71.2849V105.496H72.3982ZM66.7849 106.281C68.3435 106.281 69.4919 107.711 69.4919 109.961C69.4919 112.223 68.3435 113.652 66.7849 113.652C65.2029 113.652 64.0662 112.223 64.0662 109.961C64.0662 107.711 65.2029 106.281 66.7849 106.281ZM66.7849 107.277C65.8123 107.277 65.1443 108.309 65.1443 109.961C65.1443 111.625 65.8123 112.656 66.7849 112.656C67.7458 112.656 68.4138 111.625 68.4138 109.961C68.4138 108.309 67.7458 107.277 66.7849 107.277ZM83.5099 110.605V111.496H73.924V110.605H78.1779V109.492H75.1193V105.977H82.3263V106.855H76.2208V108.602H82.3966V109.492H79.256V110.605H83.5099ZM78.7052 112.176C80.9669 112.176 82.3263 112.867 82.3263 114.086C82.3263 115.305 80.9669 115.984 78.7052 115.996C76.4318 115.984 75.0607 115.305 75.0607 114.086C75.0607 112.867 76.4318 112.176 78.7052 112.176ZM78.7052 113.043C77.0998 113.043 76.1857 113.418 76.1857 114.086C76.1857 114.754 77.0998 115.129 78.7052 115.117C80.2873 115.129 81.213 114.754 81.213 114.086C81.213 113.418 80.2873 113.043 78.7052 113.043ZM92.8873 105.496V115.996H91.7857V110.57H89.4302V109.656H91.7857V105.496H92.8873ZM89.4654 106.621C89.4537 109.668 88.2701 112.281 84.7076 114.051L84.1216 113.172C86.9048 111.812 88.1412 109.92 88.3404 107.512H84.5904V106.621H89.4654ZM103.085 105.496V116.02H101.972V105.496H103.085ZM99.874 106.445V110.277H96.1005V112.574C97.7997 112.568 99.288 112.492 101.046 112.199L101.151 113.113C99.288 113.43 97.706 113.5 95.8544 113.5H94.9638V109.387H98.7372V107.348H94.9521V106.445H99.874Z" fill="#96A0B5"/>
<path d="M69.8005 137.137C67.7498 137.123 65.8083 135.906 65.8083 132.283C65.8083 128.947 67.408 126.965 69.8826 126.965C71.8787 126.965 73.2322 128.223 73.4373 129.85H71.4138C71.2498 129.152 70.6755 128.729 69.8826 128.729C68.5427 128.729 67.8318 129.945 67.8181 131.887H67.9138C68.365 131.012 69.3494 130.492 70.4431 130.492C72.2205 130.492 73.5466 131.832 73.5466 133.691C73.5466 135.701 72.029 137.15 69.8005 137.137ZM69.7869 135.51C70.7986 135.51 71.5505 134.744 71.5505 133.746C71.5505 132.762 70.8259 131.982 69.8142 131.982C68.8025 131.982 68.0369 132.775 68.0232 133.746C68.0369 134.717 68.7751 135.51 69.7869 135.51ZM75.5865 137.123C74.9439 137.123 74.4244 136.604 74.438 135.975C74.4244 135.346 74.9439 134.84 75.5865 134.84C76.188 134.84 76.7212 135.346 76.7212 135.975C76.7212 136.604 76.188 137.123 75.5865 137.123ZM81.1947 127.102V137H79.1302V129.057H79.0755L76.806 130.479V128.66L79.2533 127.102H81.1947ZM83.3302 137V127.102H85.3537V132.42H85.463L87.8693 129.576H90.1935L87.4318 132.789L90.3439 137H87.965L85.9279 133.979L85.3537 134.621V137H83.3302ZM90.9619 137V129.576H92.8896V130.875H92.9716C93.2861 130.014 94.038 129.48 95.0361 129.48C96.0615 129.48 96.8134 130.014 97.0595 130.875H97.1279C97.4423 130.027 98.2763 129.48 99.3701 129.48C100.751 129.48 101.708 130.396 101.708 132.01V137H99.6845V132.406C99.6845 131.559 99.1923 131.148 98.5224 131.148C97.7568 131.148 97.3193 131.682 97.3193 132.461V137H95.3505V132.352C95.3505 131.613 94.8857 131.148 94.2021 131.148C93.5185 131.148 92.9853 131.695 92.9853 132.543V137H90.9619Z" fill="#011327"/>
<path d="M182.054 110.875V111.777H172.48V110.875H176.711V109.668H177.812V110.875H182.054ZM177.812 105.484V106.492H181.093V107.383H177.882C178 108.396 179.453 109.158 181.539 109.328L181.199 110.184C179.382 110.014 177.912 109.404 177.261 108.426C176.605 109.404 175.134 110.014 173.336 110.184L172.984 109.328C175.058 109.158 176.511 108.396 176.64 107.383H173.441V106.492H176.711V105.484H177.812ZM177.261 112.469C179.546 112.469 180.882 113.09 180.882 114.227C180.882 115.363 179.546 115.984 177.261 115.973C174.964 115.984 173.617 115.363 173.617 114.227C173.617 113.09 174.964 112.469 177.261 112.469ZM177.261 113.301C175.644 113.301 174.742 113.629 174.742 114.227C174.742 114.824 175.644 115.141 177.261 115.129C178.855 115.141 179.769 114.824 179.769 114.227C179.769 113.629 178.855 113.301 177.261 113.301ZM186.557 108.168C186.545 110.09 187.705 112.012 189.334 112.738L188.666 113.617C187.459 113.043 186.504 111.865 186.018 110.43C185.525 111.965 184.559 113.236 183.299 113.852L182.619 112.914C184.271 112.176 185.432 110.172 185.432 108.168V106.375H186.557V108.168ZM191.396 105.496V116.02H190.283V105.496H191.396ZM201.172 105.496V108.602H202.696V109.527H201.172V113.125H200.047V105.496H201.172ZM198.325 106.293C198.325 109.047 196.45 111.051 193.379 111.977L192.911 111.086C195.366 110.348 196.895 108.953 197.118 107.219H193.356V106.293H198.325ZM201.606 114.871V115.773H194.504V112.34H195.629V114.871H201.606Z" fill="#96A0B5"/>
<path d="M156.711 135.25V133.623L160.895 127.102H163.479V133.596H164.736V135.25H163.479V137H161.523V135.25H156.711ZM158.789 133.596H161.551V129.357H161.455L158.789 133.514V133.596ZM170.331 128.633C170.331 130.916 171.37 133.213 173.475 134.102L172.45 135.496C171.028 134.854 170.044 133.616 169.483 132.078C168.916 133.753 167.897 135.106 166.38 135.797L165.327 134.348C167.501 133.432 168.554 131.053 168.567 128.633V126.773H170.331V128.633ZM175.909 125.816V138.285H174.145V125.816H175.909ZM187.287 125.816V129.303H188.968V130.738H187.287V134.73H185.523V125.816H187.287ZM183.896 126.746C183.896 130.109 181.791 132.461 178.058 133.514L177.334 132.133C180.116 131.354 181.695 129.911 181.982 128.168H177.88V126.746H183.896ZM187.711 136.645V138.039H179.193V133.814H180.957V136.645H187.711ZM193.414 137.137C191.241 137.137 189.682 135.934 189.641 134.211H191.719C191.76 134.949 192.471 135.441 193.428 135.441C194.412 135.441 195.123 134.881 195.11 134.088C195.123 133.281 194.399 132.707 193.237 132.707H192.321V131.189H193.237C194.207 131.189 194.891 130.656 194.891 129.877C194.891 129.125 194.317 128.605 193.442 128.605C192.567 128.605 191.842 129.098 191.815 129.85H189.846C189.873 128.141 191.418 126.965 193.442 126.965C195.506 126.965 196.887 128.182 196.873 129.754C196.887 130.861 196.108 131.654 195 131.846V131.928C196.45 132.105 197.256 132.994 197.243 134.225C197.256 135.92 195.643 137.137 193.414 137.137ZM202.359 137.137C199.884 137.137 198.38 135.291 198.38 132.051C198.38 128.811 199.884 126.965 202.359 126.965C204.833 126.965 206.337 128.824 206.337 132.051C206.337 135.305 204.833 137.137 202.359 137.137ZM202.359 135.441C203.507 135.441 204.245 134.334 204.232 132.051C204.232 129.795 203.507 128.646 202.359 128.646C201.21 128.646 200.486 129.795 200.486 132.051C200.472 134.334 201.21 135.441 202.359 135.441ZM218.549 132.201V133.568H213.859V135.578H212.137V133.568H207.16V132.201H218.549ZM217.291 136.645V138.039H208.5V134.594H210.223V136.645H217.291ZM210.346 126.213V127.512H215.336V126.213H217.072V131.326H208.623V126.213H210.346ZM210.346 129.945H215.336V128.811H210.346V129.945Z" fill="#011327"/>
<path d="M281.537 105.941C281.537 108.602 279.932 110.418 276.709 111.238L276.287 110.371C277.887 109.967 278.983 109.334 279.627 108.543L276.44 108.777L276.264 107.875L280.119 107.734C280.237 107.441 280.313 107.137 280.354 106.82H276.791V105.941H281.537ZM284.397 105.496V107.816H285.92V108.742H284.397V110.957H283.283V105.496H284.397ZM284.397 111.402V113.992H278.737V114.988H284.76V115.867H277.635V113.172H283.283V112.27H277.612V111.402H284.397ZM295.977 113.805V114.742H286.368V113.805H290.598V111.965H287.54V108.625H293.704V107.148H287.516V106.234H294.805V109.516H288.641V111.051H295.051V111.965H291.7V113.805H295.977ZM305.308 105.496V116.02H304.194V105.496H305.308ZM302.097 106.445V110.277H298.323V112.574C300.023 112.568 301.511 112.492 303.269 112.199L303.374 113.113C301.511 113.43 299.929 113.5 298.077 113.5H297.187V109.387H300.96V107.348H297.175V106.445H302.097Z" fill="#96A0B5"/>
<path d="M269.523 137.137C267.267 137.137 265.64 135.947 265.64 134.334C265.64 133.09 266.597 132.078 267.827 131.887V131.818C266.761 131.613 266.023 130.711 266.023 129.631C266.023 128.086 267.499 126.965 269.523 126.965C271.546 126.965 273.023 128.086 273.036 129.631C273.023 130.725 272.271 131.613 271.232 131.818V131.887C272.435 132.078 273.406 133.09 273.406 134.334C273.406 135.947 271.779 137.137 269.523 137.137ZM269.523 135.564C270.562 135.564 271.259 134.977 271.259 134.129C271.259 133.268 270.534 132.639 269.523 132.639C268.511 132.639 267.773 133.268 267.786 134.129C267.773 134.977 268.47 135.564 269.523 135.564ZM269.523 131.189C270.398 131.189 271.027 130.629 271.027 129.836C271.027 129.07 270.411 128.523 269.523 128.523C268.634 128.523 268.033 129.057 268.033 129.836C268.033 130.629 268.648 131.189 269.523 131.189ZM274.639 137L274.625 135.51L278.18 132.242C279.109 131.354 279.602 130.807 279.602 130.027C279.602 129.152 278.932 128.605 278.029 128.605C277.1 128.605 276.498 129.193 276.498 130.137H274.543C274.529 128.195 275.965 126.965 278.057 126.965C280.176 126.965 281.584 128.168 281.584 129.891C281.584 131.012 281.037 131.941 279 133.787L277.496 135.25V135.305H281.721V137H274.639ZM286.837 137.137C284.786 137.123 282.845 135.906 282.845 132.283C282.845 128.947 284.444 126.965 286.919 126.965C288.915 126.965 290.268 128.223 290.474 129.85H288.45C288.286 129.152 287.712 128.729 286.919 128.729C285.579 128.729 284.868 129.945 284.854 131.887H284.95C285.401 131.012 286.386 130.492 287.479 130.492C289.257 130.492 290.583 131.832 290.583 133.691C290.583 135.701 289.065 137.15 286.837 137.137ZM286.823 135.51C287.835 135.51 288.587 134.744 288.587 133.746C288.587 132.762 287.862 131.982 286.85 131.982C285.839 131.982 285.073 132.775 285.059 133.746C285.073 134.717 285.811 135.51 286.823 135.51ZM291.843 137V127.102H293.867V132.42H293.976L296.383 129.576H298.707L295.945 132.789L298.857 137H296.478L294.441 133.979L293.867 134.621V137H291.843ZM302.497 137.15C300.227 137.15 298.86 135.578 298.86 133.309C298.86 131.039 300.241 129.48 302.497 129.48C304.411 129.48 305.709 130.602 305.791 132.297H303.891C303.768 131.559 303.29 131.053 302.524 131.053C301.553 131.053 300.911 131.873 300.911 133.281C300.911 134.717 301.54 135.537 302.524 135.537C303.235 135.537 303.768 135.1 303.891 134.307H305.791C305.696 135.988 304.465 137.15 302.497 137.15ZM306.519 134.922C306.519 133.268 307.859 132.721 309.281 132.639C309.814 132.604 310.812 132.557 311.126 132.543V131.941C311.113 131.326 310.689 130.957 309.937 130.957C309.253 130.957 308.816 131.271 308.706 131.777H306.779C306.902 130.492 308.023 129.48 309.991 129.48C311.605 129.48 313.136 130.205 313.136 131.996V137H311.222V135.975H311.167C310.798 136.658 310.101 137.137 308.993 137.137C307.572 137.137 306.519 136.398 306.519 134.922ZM308.46 134.867C308.46 135.441 308.925 135.742 309.568 135.742C310.484 135.742 311.14 135.127 311.126 134.348V133.801C310.819 133.814 309.957 133.862 309.609 133.896C308.911 133.965 308.46 134.293 308.46 134.867ZM316.529 127.102V137H314.506V127.102H316.529Z" fill="#011327"/>
</g>
<g filter="url(#filter1_d_121331_75102)">
<path d="M16 189C16 184.582 19.5817 181 24 181H351C355.418 181 359 184.582 359 189V326C359 330.418 355.418 334 351 334H24C19.5817 334 16 330.418 16 326V189Z" fill="white" shape-rendering="crispEdges"/>
<path d="M32.8633 212L32.8506 211.162L35.9863 207.861C37.0781 206.706 37.5986 206.084 37.5986 205.233C37.5986 204.294 36.7988 203.672 35.7705 203.672C34.6787 203.672 33.9805 204.37 33.9805 205.398H32.9014C32.8887 203.773 34.1455 202.682 35.8086 202.682C37.4717 202.682 38.665 203.799 38.665 205.233C38.665 206.262 38.1826 207.062 36.5576 208.737L34.4502 210.908V210.984H38.8301V212H32.8633ZM43.3395 212.127C41.2955 212.127 40.1275 210.413 40.1275 207.404C40.1275 204.421 41.3209 202.682 43.3395 202.682C45.358 202.682 46.5514 204.421 46.5514 207.404C46.5514 210.413 45.3707 212.127 43.3395 212.127ZM43.3395 211.111C44.6598 211.111 45.4342 209.778 45.4342 207.404C45.4342 205.03 44.6598 203.672 43.3395 203.672C42.0191 203.672 41.232 205.03 41.232 207.404C41.232 209.778 42.0064 211.111 43.3395 211.111ZM47.9123 212L47.8996 211.162L51.0354 207.861C52.1271 206.706 52.6477 206.084 52.6477 205.233C52.6477 204.294 51.8479 203.672 50.8195 203.672C49.7277 203.672 49.0295 204.37 49.0295 205.398H47.9504C47.9377 203.773 49.1945 202.682 50.8576 202.682C52.5207 202.682 53.7141 203.799 53.7141 205.233C53.7141 206.262 53.2316 207.062 51.6066 208.737L49.4992 210.908V210.984H53.8791V212H47.9123ZM54.948 210.121V209.182L59.0867 202.809H60.4959V209.118H61.7781V210.121H60.4959V212H59.4041V210.121H54.948ZM56.1795 209.118H59.4041V204.256H59.2898L56.1795 209.042V209.118ZM63.4945 212.076C63.0502 212.076 62.6693 211.708 62.682 211.251C62.6693 210.807 63.0502 210.438 63.4945 210.438C63.9389 210.438 64.307 210.807 64.307 211.251C64.307 211.708 63.9389 212.076 63.4945 212.076ZM68.5244 212.127C66.4805 212.127 65.3125 210.413 65.3125 207.404C65.3125 204.421 66.5059 202.682 68.5244 202.682C70.543 202.682 71.7363 204.421 71.7363 207.404C71.7363 210.413 70.5557 212.127 68.5244 212.127ZM68.5244 211.111C69.8447 211.111 70.6191 209.778 70.6191 207.404C70.6191 205.03 69.8447 203.672 68.5244 203.672C67.2041 203.672 66.417 205.03 66.417 207.404C66.417 209.778 67.1914 211.111 68.5244 211.111ZM76.2965 212.127C74.6969 212.102 72.9449 211.162 72.9449 207.76C72.9449 204.51 74.2779 202.682 76.4361 202.682C78.0484 202.682 79.1783 203.672 79.4195 205.119H78.2896C78.0738 204.307 77.4645 203.697 76.4361 203.697C74.9254 203.697 74.024 204.992 74.024 207.201H74.1383C74.6715 206.439 75.5094 205.982 76.4996 205.982C78.1373 205.982 79.4957 207.252 79.4957 209.029C79.4957 210.756 78.2262 212.14 76.2965 212.127ZM76.2965 211.124C77.4898 211.124 78.3785 210.185 78.3912 209.042C78.3785 207.912 77.5279 206.985 76.3219 206.985C75.1158 206.985 74.1891 207.963 74.1764 209.055C74.1764 210.134 75.065 211.124 76.2965 211.124ZM81.2629 212.076C80.8186 212.076 80.4377 211.708 80.4504 211.251C80.4377 210.807 80.8186 210.438 81.2629 210.438C81.7072 210.438 82.0754 210.807 82.0754 211.251C82.0754 211.708 81.7072 212.076 81.2629 212.076ZM86.4451 212.127C84.617 212.127 83.3094 211.149 83.2459 209.689H84.4012C84.4646 210.565 85.3406 211.111 86.4324 211.111C87.6385 211.111 88.5271 210.451 88.5271 209.499C88.5271 208.496 87.7273 207.785 86.2928 207.785H85.5438V206.782H86.2928C87.41 206.782 88.1844 206.16 88.1844 205.208C88.1844 204.294 87.5115 203.672 86.4705 203.672C85.493 203.672 84.5916 204.218 84.5408 205.119H83.4363C83.4998 203.659 84.8455 202.682 86.4832 202.682C88.2352 202.682 89.3016 203.824 89.2889 205.145C89.3016 206.186 88.6922 206.96 87.7273 207.227V207.29C88.9207 207.48 89.657 208.331 89.6443 209.499C89.657 211.01 88.2732 212.127 86.4451 212.127ZM94.141 212.127C92.0971 212.127 90.9291 210.413 90.9291 207.404C90.9291 204.421 92.1225 202.682 94.141 202.682C96.1596 202.682 97.3529 204.421 97.3529 207.404C97.3529 210.413 96.1723 212.127 94.141 212.127ZM94.141 211.111C95.4613 211.111 96.2357 209.778 96.2357 207.404C96.2357 205.03 95.4613 203.672 94.141 203.672C92.8207 203.672 92.0336 205.03 92.0336 207.404C92.0336 209.778 92.808 211.111 94.141 211.111ZM104.823 212.127C102.779 212.127 101.611 210.413 101.611 207.404C101.611 204.421 102.804 202.682 104.823 202.682C106.841 202.682 108.035 204.421 108.035 207.404C108.035 210.413 106.854 212.127 104.823 212.127ZM104.823 211.111C106.143 211.111 106.918 209.778 106.918 207.404C106.918 205.03 106.143 203.672 104.823 203.672C103.503 203.672 102.715 205.03 102.715 207.404C102.715 209.778 103.49 211.111 104.823 211.111ZM112.455 202.682C114.042 202.694 115.794 203.646 115.794 207.036C115.794 210.299 114.461 212.127 112.303 212.127C110.691 212.127 109.548 211.137 109.32 209.677H110.449C110.653 210.502 111.275 211.111 112.303 211.111C113.801 211.111 114.715 209.816 114.728 207.582H114.601C114.068 208.344 113.23 208.801 112.252 208.801C110.602 208.801 109.243 207.544 109.243 205.767C109.243 204.053 110.5 202.669 112.455 202.682ZM112.455 203.685C111.249 203.685 110.348 204.624 110.361 205.754C110.361 206.896 111.211 207.798 112.417 207.798C113.611 207.798 114.55 206.808 114.55 205.729C114.55 204.675 113.674 203.685 112.455 203.685ZM117.993 210.781C117.549 210.781 117.168 210.413 117.18 209.956C117.168 209.512 117.549 209.144 117.993 209.144C118.437 209.144 118.805 209.512 118.805 209.956C118.805 210.413 118.437 210.781 117.993 210.781ZM117.993 205.678C117.549 205.678 117.168 205.31 117.18 204.853C117.168 204.408 117.549 204.04 117.993 204.04C118.437 204.04 118.805 204.408 118.805 204.853C118.805 205.31 118.437 205.678 117.993 205.678ZM123.34 212.127C121.677 212.127 120.42 211.099 120.357 209.689H121.461C121.55 210.515 122.35 211.124 123.34 211.124C124.534 211.124 125.397 210.248 125.397 209.093C125.397 207.899 124.496 207.023 123.264 207.011C122.49 206.998 121.893 207.239 121.55 207.836H120.446L121.093 202.809H126.07V203.824H122.045L121.703 206.516H121.791C122.198 206.198 122.82 205.982 123.467 205.982C125.219 205.982 126.514 207.277 126.514 209.067C126.514 210.845 125.168 212.127 123.34 212.127ZM127.71 210.121V209.182L131.849 202.809H133.258V209.118H134.54V210.121H133.258V212H132.166V210.121H127.71ZM128.941 209.118H132.166V204.256H132.052L128.941 209.042V209.118Z" fill="#67738E"/>
<path d="M44.9072 226.661C46.1782 226.364 46.9628 225.092 46.6657 223.821C46.3686 222.55 45.0966 221.766 43.8257 222.063C42.5549 222.36 41.7702 223.632 42.0673 224.903C42.3644 226.175 43.6354 226.959 44.9072 226.661Z" fill="#011327"/>
<path d="M36.1732 233.019L38.3066 233.668C38.5231 233.722 38.7669 233.695 38.9823 233.56C39.1717 233.452 39.3338 233.263 39.3882 233.019L40.8224 227.474C40.8768 227.258 40.8496 227.014 40.7146 226.798C40.6069 226.609 40.4175 226.447 40.1738 226.393L38.0121 225.743C37.9305 225.716 37.8772 225.716 37.7956 225.716C37.6335 225.716 37.4985 225.77 37.3625 225.851C37.1732 225.958 37.011 226.148 36.9567 226.391L35.5235 231.938C35.4158 232.397 35.6857 232.884 36.1732 233.019Z" fill="#011327"/>
<path d="M40.2271 235.074C39.9561 234.695 39.6862 234.073 39.8484 233.207C39.8756 233.18 39.8757 233.18 39.8746 233.125L41.3088 227.58C41.3632 227.337 41.5253 227.148 41.7691 227.093C41.9312 227.067 42.1206 227.013 42.2827 226.985C43.5537 226.714 44.4731 227.337 44.879 227.743L44.8791 227.743C44.9868 227.851 45.0956 227.959 45.2033 228.094C45.6897 228.744 46.1228 229.23 46.8529 229.88C46.9879 229.988 47.0967 230.069 47.2316 230.204C47.7996 230.366 48.3132 230.448 48.9084 230.421C49.1348 230.419 49.6141 230.428 49.7202 230.474C50.1532 230.636 50.4503 230.988 50.5319 231.421C50.5852 231.989 50.2066 232.449 49.693 232.611C49.5879 232.65 49.108 232.682 48.8812 232.693C47.9879 232.693 47.2034 232.585 46.3383 232.314C46.1761 232.26 46.0401 232.178 45.9052 232.043C45.7159 231.881 45.5265 231.692 45.3644 231.557C45.175 231.395 44.9585 231.205 44.7692 231.016L44.0934 233.829H44.2284C47.1771 234.045 47.7723 235.668 47.9073 236.858V236.94C47.9073 236.94 48.151 238.698 48.3404 240.024C48.4492 240.754 47.9617 241.403 47.2315 241.511C47.1771 241.538 47.1238 241.538 47.0422 241.538C46.3936 241.538 45.8518 241.079 45.744 240.429C45.6624 239.807 45.3653 237.752 45.311 237.319V237.264L45.3106 237.261C45.2564 236.857 45.2275 236.641 44.0128 236.534C43.8235 236.507 43.6341 236.507 43.4448 236.48L41.8757 242.971C41.7407 243.594 41.1999 244 40.6047 244C40.497 244 40.4154 244 40.3076 243.972C39.6047 243.783 39.1716 243.079 39.3337 242.376L40.93 235.749C40.6601 235.56 40.4164 235.345 40.2271 235.074Z" fill="#011327"/>
<path d="M50.1893 242.179C50.2881 242.722 50.8087 243.083 51.352 242.984C51.8954 242.885 52.2558 242.364 52.157 241.821L50.1893 242.179ZM48.1893 231.179L50.1893 242.179L52.157 241.821L50.157 230.821L48.1893 231.179Z" fill="#011327"/>
<path d="M65.5938 228.5C65.5938 230.312 66.7344 232.047 68.9062 232.75L67.9688 234.141C66.4375 233.602 65.3438 232.531 64.75 231.172C64.1172 232.656 62.9688 233.82 61.3438 234.406L60.4062 233.016C62.7031 232.25 63.8438 230.406 63.8438 228.391V227H65.5938V228.5ZM72.2969 235.344V240.391H70.5625V236.719H62.6719V235.344H72.2969ZM72.2969 226.266V234.656H70.5625V230.438H67.75V229.016H70.5625V226.266H72.2969ZM79.2688 228.297C79.2531 230.219 80.3781 231.969 82.5969 232.672L81.6594 234.031C80.1203 233.492 79.0422 232.469 78.4406 231.125C77.8156 232.664 76.6359 233.875 74.925 234.469L74.0031 233.062C76.3469 232.297 77.5188 230.406 77.5188 228.375V227.031H79.2688V228.297ZM85.925 226.266V234.578H84.1906V230.422H81.3781V229H84.1906V226.266H85.925ZM81.1438 234.953C84.1438 234.953 85.9719 235.953 85.9719 237.672C85.9719 239.391 84.1438 240.375 81.1438 240.375C78.1594 240.375 76.3313 239.391 76.3469 237.672C76.3313 235.953 78.1594 234.953 81.1438 234.953ZM81.1438 236.297C79.175 236.297 78.0656 236.781 78.0656 237.672C78.0656 238.531 79.175 239.016 81.1438 239.016C83.1125 239.016 84.2375 238.531 84.2375 237.672C84.2375 236.781 83.1125 236.297 81.1438 236.297ZM92.7875 228.766C92.7719 230.625 93.9438 232.391 96.1625 233.109L95.2563 234.484C93.6859 233.953 92.5766 232.891 91.9594 231.531C91.3266 233.031 90.1625 234.203 88.5219 234.781L87.5531 233.406C89.8813 232.656 91.0375 230.75 91.0375 228.75V227.141H92.7875V228.766ZM98.8656 226.266V230.438H100.834V231.906H98.8656V236.641H97.1313V226.266H98.8656ZM99.4281 238.703V240.109H89.8188V235.625H91.6V238.703H99.4281ZM113.153 231.5C112.919 230.141 111.825 229.359 110.45 229.359C108.591 229.359 107.294 230.781 107.294 233.344C107.294 235.938 108.606 237.328 110.45 237.328C111.794 237.328 112.888 236.578 113.153 235.25H115.2C114.888 237.422 113.106 239.156 110.419 239.156C107.434 239.156 105.247 236.984 105.247 233.344C105.247 229.688 107.466 227.531 110.419 227.531C112.919 227.531 114.856 228.984 115.2 231.5H113.153ZM127.656 227.516V228.797C127.641 230.516 127.672 232.484 127.031 235.469L125.328 235.297C125.57 234.164 125.719 233.156 125.812 232.25L117.484 232.719L117.234 231.234L125.906 230.922C125.938 230.188 125.945 229.531 125.953 228.922H117.672V227.516H127.656ZM129.047 237.219V238.656H116.172V237.219H120.922V233.734H122.641V237.219H129.047ZM137.097 228.203C137.097 230.391 139.238 232.578 142.191 233.094L141.409 234.547C139.042 234.047 137.105 232.617 136.191 230.719C135.253 232.602 133.316 234.039 130.956 234.547L130.191 233.094C133.113 232.562 135.238 230.375 135.253 228.203V227.156H137.097V228.203ZM142.706 237.156V238.594H129.8V237.156H142.706Z" fill="#011327"/>
<rect x="32" y="257" width="311" height="61" rx="8" fill="#F4F6FA"/>
<path d="M72.3982 270.496V281.02H71.2849V270.496H72.3982ZM66.7849 271.281C68.3435 271.281 69.4919 272.711 69.4919 274.961C69.4919 277.223 68.3435 278.652 66.7849 278.652C65.2029 278.652 64.0662 277.223 64.0662 274.961C64.0662 272.711 65.2029 271.281 66.7849 271.281ZM66.7849 272.277C65.8123 272.277 65.1443 273.309 65.1443 274.961C65.1443 276.625 65.8123 277.656 66.7849 277.656C67.7458 277.656 68.4138 276.625 68.4138 274.961C68.4138 273.309 67.7458 272.277 66.7849 272.277ZM83.5099 275.605V276.496H73.924V275.605H78.1779V274.492H75.1193V270.977H82.3263V271.855H76.2208V273.602H82.3966V274.492H79.256V275.605H83.5099ZM78.7052 277.176C80.9669 277.176 82.3263 277.867 82.3263 279.086C82.3263 280.305 80.9669 280.984 78.7052 280.996C76.4318 280.984 75.0607 280.305 75.0607 279.086C75.0607 277.867 76.4318 277.176 78.7052 277.176ZM78.7052 278.043C77.0998 278.043 76.1857 278.418 76.1857 279.086C76.1857 279.754 77.0998 280.129 78.7052 280.117C80.2873 280.129 81.213 279.754 81.213 279.086C81.213 278.418 80.2873 278.043 78.7052 278.043ZM92.8873 270.496V280.996H91.7857V275.57H89.4302V274.656H91.7857V270.496H92.8873ZM89.4654 271.621C89.4537 274.668 88.2701 277.281 84.7076 279.051L84.1216 278.172C86.9048 276.812 88.1412 274.92 88.3404 272.512H84.5904V271.621H89.4654ZM103.085 270.496V281.02H101.972V270.496H103.085ZM99.874 271.445V275.277H96.1005V277.574C97.7997 277.568 99.288 277.492 101.046 277.199L101.151 278.113C99.288 278.43 97.706 278.5 95.8544 278.5H94.9638V274.387H98.7372V272.348H94.9521V271.445H99.874Z" fill="#96A0B5"/>
<path d="M69.8005 302.137C67.7498 302.123 65.8083 300.906 65.8083 297.283C65.8083 293.947 67.408 291.965 69.8826 291.965C71.8787 291.965 73.2322 293.223 73.4373 294.85H71.4138C71.2498 294.152 70.6755 293.729 69.8826 293.729C68.5427 293.729 67.8318 294.945 67.8181 296.887H67.9138C68.365 296.012 69.3494 295.492 70.4431 295.492C72.2205 295.492 73.5466 296.832 73.5466 298.691C73.5466 300.701 72.029 302.15 69.8005 302.137ZM69.7869 300.51C70.7986 300.51 71.5505 299.744 71.5505 298.746C71.5505 297.762 70.8259 296.982 69.8142 296.982C68.8025 296.982 68.0369 297.775 68.0232 298.746C68.0369 299.717 68.7751 300.51 69.7869 300.51ZM75.5865 302.123C74.9439 302.123 74.4244 301.604 74.438 300.975C74.4244 300.346 74.9439 299.84 75.5865 299.84C76.188 299.84 76.7212 300.346 76.7212 300.975C76.7212 301.604 76.188 302.123 75.5865 302.123ZM81.1947 292.102V302H79.1302V294.057H79.0755L76.806 295.479V293.66L79.2533 292.102H81.1947ZM83.3302 302V292.102H85.3537V297.42H85.463L87.8693 294.576H90.1935L87.4318 297.789L90.3439 302H87.965L85.9279 298.979L85.3537 299.621V302H83.3302ZM90.9619 302V294.576H92.8896V295.875H92.9716C93.2861 295.014 94.038 294.48 95.0361 294.48C96.0615 294.48 96.8134 295.014 97.0595 295.875H97.1279C97.4423 295.027 98.2763 294.48 99.3701 294.48C100.751 294.48 101.708 295.396 101.708 297.01V302H99.6845V297.406C99.6845 296.559 99.1923 296.148 98.5224 296.148C97.7568 296.148 97.3193 296.682 97.3193 297.461V302H95.3505V297.352C95.3505 296.613 94.8857 296.148 94.2021 296.148C93.5185 296.148 92.9853 296.695 92.9853 297.543V302H90.9619Z" fill="#011327"/>
<path d="M182.054 275.875V276.777H172.48V275.875H176.711V274.668H177.812V275.875H182.054ZM177.812 270.484V271.492H181.093V272.383H177.882C178 273.396 179.453 274.158 181.539 274.328L181.199 275.184C179.382 275.014 177.912 274.404 177.261 273.426C176.605 274.404 175.134 275.014 173.336 275.184L172.984 274.328C175.058 274.158 176.511 273.396 176.64 272.383H173.441V271.492H176.711V270.484H177.812ZM177.261 277.469C179.546 277.469 180.882 278.09 180.882 279.227C180.882 280.363 179.546 280.984 177.261 280.973C174.964 280.984 173.617 280.363 173.617 279.227C173.617 278.09 174.964 277.469 177.261 277.469ZM177.261 278.301C175.644 278.301 174.742 278.629 174.742 279.227C174.742 279.824 175.644 280.141 177.261 280.129C178.855 280.141 179.769 279.824 179.769 279.227C179.769 278.629 178.855 278.301 177.261 278.301ZM186.557 273.168C186.545 275.09 187.705 277.012 189.334 277.738L188.666 278.617C187.459 278.043 186.504 276.865 186.018 275.43C185.525 276.965 184.559 278.236 183.299 278.852L182.619 277.914C184.271 277.176 185.432 275.172 185.432 273.168V271.375H186.557V273.168ZM191.396 270.496V281.02H190.283V270.496H191.396ZM201.172 270.496V273.602H202.696V274.527H201.172V278.125H200.047V270.496H201.172ZM198.325 271.293C198.325 274.047 196.45 276.051 193.379 276.977L192.911 276.086C195.366 275.348 196.895 273.953 197.118 272.219H193.356V271.293H198.325ZM201.606 279.871V280.773H194.504V277.34H195.629V279.871H201.606Z" fill="#96A0B5"/>
<path d="M156.711 300.25V298.623L160.895 292.102H163.479V298.596H164.736V300.25H163.479V302H161.523V300.25H156.711ZM158.789 298.596H161.551V294.357H161.455L158.789 298.514V298.596ZM170.331 293.633C170.331 295.916 171.37 298.213 173.475 299.102L172.45 300.496C171.028 299.854 170.044 298.616 169.483 297.078C168.916 298.753 167.897 300.106 166.38 300.797L165.327 299.348C167.501 298.432 168.554 296.053 168.567 293.633V291.773H170.331V293.633ZM175.909 290.816V303.285H174.145V290.816H175.909ZM187.287 290.816V294.303H188.968V295.738H187.287V299.73H185.523V290.816H187.287ZM183.896 291.746C183.896 295.109 181.791 297.461 178.058 298.514L177.334 297.133C180.116 296.354 181.695 294.911 181.982 293.168H177.88V291.746H183.896ZM187.711 301.645V303.039H179.193V298.814H180.957V301.645H187.711ZM193.414 302.137C191.241 302.137 189.682 300.934 189.641 299.211H191.719C191.76 299.949 192.471 300.441 193.428 300.441C194.412 300.441 195.123 299.881 195.11 299.088C195.123 298.281 194.399 297.707 193.237 297.707H192.321V296.189H193.237C194.207 296.189 194.891 295.656 194.891 294.877C194.891 294.125 194.317 293.605 193.442 293.605C192.567 293.605 191.842 294.098 191.815 294.85H189.846C189.873 293.141 191.418 291.965 193.442 291.965C195.506 291.965 196.887 293.182 196.873 294.754C196.887 295.861 196.108 296.654 195 296.846V296.928C196.45 297.105 197.256 297.994 197.243 299.225C197.256 300.92 195.643 302.137 193.414 302.137ZM202.359 302.137C199.884 302.137 198.38 300.291 198.38 297.051C198.38 293.811 199.884 291.965 202.359 291.965C204.833 291.965 206.337 293.824 206.337 297.051C206.337 300.305 204.833 302.137 202.359 302.137ZM202.359 300.441C203.507 300.441 204.245 299.334 204.232 297.051C204.232 294.795 203.507 293.646 202.359 293.646C201.21 293.646 200.486 294.795 200.486 297.051C200.472 299.334 201.21 300.441 202.359 300.441ZM218.549 297.201V298.568H213.859V300.578H212.137V298.568H207.16V297.201H218.549ZM217.291 301.645V303.039H208.5V299.594H210.223V301.645H217.291ZM210.346 291.213V292.512H215.336V291.213H217.072V296.326H208.623V291.213H210.346ZM210.346 294.945H215.336V293.811H210.346V294.945Z" fill="#011327"/>
<path d="M281.537 270.941C281.537 273.602 279.932 275.418 276.709 276.238L276.287 275.371C277.887 274.967 278.983 274.334 279.627 273.543L276.44 273.777L276.264 272.875L280.119 272.734C280.237 272.441 280.313 272.137 280.354 271.82H276.791V270.941H281.537ZM284.397 270.496V272.816H285.92V273.742H284.397V275.957H283.283V270.496H284.397ZM284.397 276.402V278.992H278.737V279.988H284.76V280.867H277.635V278.172H283.283V277.27H277.612V276.402H284.397ZM295.977 278.805V279.742H286.368V278.805H290.598V276.965H287.54V273.625H293.704V272.148H287.516V271.234H294.805V274.516H288.641V276.051H295.051V276.965H291.7V278.805H295.977ZM305.308 270.496V281.02H304.194V270.496H305.308ZM302.097 271.445V275.277H298.323V277.574C300.023 277.568 301.511 277.492 303.269 277.199L303.374 278.113C301.511 278.43 299.929 278.5 298.077 278.5H297.187V274.387H300.96V272.348H297.175V271.445H302.097Z" fill="#96A0B5"/>
<path d="M269.523 302.137C267.267 302.137 265.64 300.947 265.64 299.334C265.64 298.09 266.597 297.078 267.827 296.887V296.818C266.761 296.613 266.023 295.711 266.023 294.631C266.023 293.086 267.499 291.965 269.523 291.965C271.546 291.965 273.023 293.086 273.036 294.631C273.023 295.725 272.271 296.613 271.232 296.818V296.887C272.435 297.078 273.406 298.09 273.406 299.334C273.406 300.947 271.779 302.137 269.523 302.137ZM269.523 300.564C270.562 300.564 271.259 299.977 271.259 299.129C271.259 298.268 270.534 297.639 269.523 297.639C268.511 297.639 267.773 298.268 267.786 299.129C267.773 299.977 268.47 300.564 269.523 300.564ZM269.523 296.189C270.398 296.189 271.027 295.629 271.027 294.836C271.027 294.07 270.411 293.523 269.523 293.523C268.634 293.523 268.033 294.057 268.033 294.836C268.033 295.629 268.648 296.189 269.523 296.189ZM274.639 302L274.625 300.51L278.18 297.242C279.109 296.354 279.602 295.807 279.602 295.027C279.602 294.152 278.932 293.605 278.029 293.605C277.1 293.605 276.498 294.193 276.498 295.137H274.543C274.529 293.195 275.965 291.965 278.057 291.965C280.176 291.965 281.584 293.168 281.584 294.891C281.584 296.012 281.037 296.941 279 298.787L277.496 300.25V300.305H281.721V302H274.639ZM286.837 302.137C284.786 302.123 282.845 300.906 282.845 297.283C282.845 293.947 284.444 291.965 286.919 291.965C288.915 291.965 290.268 293.223 290.474 294.85H288.45C288.286 294.152 287.712 293.729 286.919 293.729C285.579 293.729 284.868 294.945 284.854 296.887H284.95C285.401 296.012 286.386 295.492 287.479 295.492C289.257 295.492 290.583 296.832 290.583 298.691C290.583 300.701 289.065 302.15 286.837 302.137ZM286.823 300.51C287.835 300.51 288.587 299.744 288.587 298.746C288.587 297.762 287.862 296.982 286.85 296.982C285.839 296.982 285.073 297.775 285.059 298.746C285.073 299.717 285.811 300.51 286.823 300.51ZM291.843 302V292.102H293.867V297.42H293.976L296.383 294.576H298.707L295.945 297.789L298.857 302H296.478L294.441 298.979L293.867 299.621V302H291.843ZM302.497 302.15C300.227 302.15 298.86 300.578 298.86 298.309C298.86 296.039 300.241 294.48 302.497 294.48C304.411 294.48 305.709 295.602 305.791 297.297H303.891C303.768 296.559 303.29 296.053 302.524 296.053C301.553 296.053 300.911 296.873 300.911 298.281C300.911 299.717 301.54 300.537 302.524 300.537C303.235 300.537 303.768 300.1 303.891 299.307H305.791C305.696 300.988 304.465 302.15 302.497 302.15ZM306.519 299.922C306.519 298.268 307.859 297.721 309.281 297.639C309.814 297.604 310.812 297.557 311.126 297.543V296.941C311.113 296.326 310.689 295.957 309.937 295.957C309.253 295.957 308.816 296.271 308.706 296.777H306.779C306.902 295.492 308.023 294.48 309.991 294.48C311.605 294.48 313.136 295.205 313.136 296.996V302H311.222V300.975H311.167C310.798 301.658 310.101 302.137 308.993 302.137C307.572 302.137 306.519 301.398 306.519 299.922ZM308.46 299.867C308.46 300.441 308.925 300.742 309.568 300.742C310.484 300.742 311.14 300.127 311.126 299.348V298.801C310.819 298.814 309.957 298.862 309.609 298.896C308.911 298.965 308.46 299.293 308.46 299.867ZM316.529 292.102V302H314.506V292.102H316.529Z" fill="#011327"/>
</g>
<g filter="url(#filter2_d_121331_75102)">
<path d="M16 354C16 349.582 19.5817 346 24 346H351C355.418 346 359 349.582 359 354V491C359 495.418 355.418 499 351 499H24C19.5817 499 16 495.418 16 491V354Z" fill="white" shape-rendering="crispEdges"/>
<path d="M32.8633 377L32.8506 376.162L35.9863 372.861C37.0781 371.706 37.5986 371.084 37.5986 370.233C37.5986 369.294 36.7988 368.672 35.7705 368.672C34.6787 368.672 33.9805 369.37 33.9805 370.398H32.9014C32.8887 368.773 34.1455 367.682 35.8086 367.682C37.4717 367.682 38.665 368.799 38.665 370.233C38.665 371.262 38.1826 372.062 36.5576 373.737L34.4502 375.908V375.984H38.8301V377H32.8633ZM43.3395 377.127C41.2955 377.127 40.1275 375.413 40.1275 372.404C40.1275 369.421 41.3209 367.682 43.3395 367.682C45.358 367.682 46.5514 369.421 46.5514 372.404C46.5514 375.413 45.3707 377.127 43.3395 377.127ZM43.3395 376.111C44.6598 376.111 45.4342 374.778 45.4342 372.404C45.4342 370.03 44.6598 368.672 43.3395 368.672C42.0191 368.672 41.232 370.03 41.232 372.404C41.232 374.778 42.0064 376.111 43.3395 376.111ZM47.9123 377L47.8996 376.162L51.0354 372.861C52.1271 371.706 52.6477 371.084 52.6477 370.233C52.6477 369.294 51.8479 368.672 50.8195 368.672C49.7277 368.672 49.0295 369.37 49.0295 370.398H47.9504C47.9377 368.773 49.1945 367.682 50.8576 367.682C52.5207 367.682 53.7141 368.799 53.7141 370.233C53.7141 371.262 53.2316 372.062 51.6066 373.737L49.4992 375.908V375.984H53.8791V377H47.9123ZM54.948 375.121V374.182L59.0867 367.809H60.4959V374.118H61.7781V375.121H60.4959V377H59.4041V375.121H54.948ZM56.1795 374.118H59.4041V369.256H59.2898L56.1795 374.042V374.118ZM63.4945 377.076C63.0502 377.076 62.6693 376.708 62.682 376.251C62.6693 375.807 63.0502 375.438 63.4945 375.438C63.9389 375.438 64.307 375.807 64.307 376.251C64.307 376.708 63.9389 377.076 63.4945 377.076ZM68.5244 377.127C66.4805 377.127 65.3125 375.413 65.3125 372.404C65.3125 369.421 66.5059 367.682 68.5244 367.682C70.543 367.682 71.7363 369.421 71.7363 372.404C71.7363 375.413 70.5557 377.127 68.5244 377.127ZM68.5244 376.111C69.8447 376.111 70.6191 374.778 70.6191 372.404C70.6191 370.03 69.8447 368.672 68.5244 368.672C67.2041 368.672 66.417 370.03 66.417 372.404C66.417 374.778 67.1914 376.111 68.5244 376.111ZM76.2965 377.127C74.6969 377.102 72.9449 376.162 72.9449 372.76C72.9449 369.51 74.2779 367.682 76.4361 367.682C78.0484 367.682 79.1783 368.672 79.4195 370.119H78.2896C78.0738 369.307 77.4645 368.697 76.4361 368.697C74.9254 368.697 74.024 369.992 74.024 372.201H74.1383C74.6715 371.439 75.5094 370.982 76.4996 370.982C78.1373 370.982 79.4957 372.252 79.4957 374.029C79.4957 375.756 78.2262 377.14 76.2965 377.127ZM76.2965 376.124C77.4898 376.124 78.3785 375.185 78.3912 374.042C78.3785 372.912 77.5279 371.985 76.3219 371.985C75.1158 371.985 74.1891 372.963 74.1764 374.055C74.1764 375.134 75.065 376.124 76.2965 376.124ZM81.2629 377.076C80.8186 377.076 80.4377 376.708 80.4504 376.251C80.4377 375.807 80.8186 375.438 81.2629 375.438C81.7072 375.438 82.0754 375.807 82.0754 376.251C82.0754 376.708 81.7072 377.076 81.2629 377.076ZM86.4451 377.127C84.617 377.127 83.3094 376.149 83.2459 374.689H84.4012C84.4646 375.565 85.3406 376.111 86.4324 376.111C87.6385 376.111 88.5271 375.451 88.5271 374.499C88.5271 373.496 87.7273 372.785 86.2928 372.785H85.5438V371.782H86.2928C87.41 371.782 88.1844 371.16 88.1844 370.208C88.1844 369.294 87.5115 368.672 86.4705 368.672C85.493 368.672 84.5916 369.218 84.5408 370.119H83.4363C83.4998 368.659 84.8455 367.682 86.4832 367.682C88.2352 367.682 89.3016 368.824 89.2889 370.145C89.3016 371.186 88.6922 371.96 87.7273 372.227V372.29C88.9207 372.48 89.657 373.331 89.6443 374.499C89.657 376.01 88.2732 377.127 86.4451 377.127ZM94.141 377.127C92.0971 377.127 90.9291 375.413 90.9291 372.404C90.9291 369.421 92.1225 367.682 94.141 367.682C96.1596 367.682 97.3529 369.421 97.3529 372.404C97.3529 375.413 96.1723 377.127 94.141 377.127ZM94.141 376.111C95.4613 376.111 96.2357 374.778 96.2357 372.404C96.2357 370.03 95.4613 368.672 94.141 368.672C92.8207 368.672 92.0336 370.03 92.0336 372.404C92.0336 374.778 92.808 376.111 94.141 376.111ZM104.823 377.127C102.779 377.127 101.611 375.413 101.611 372.404C101.611 369.421 102.804 367.682 104.823 367.682C106.841 367.682 108.035 369.421 108.035 372.404C108.035 375.413 106.854 377.127 104.823 377.127ZM104.823 376.111C106.143 376.111 106.918 374.778 106.918 372.404C106.918 370.03 106.143 368.672 104.823 368.672C103.503 368.672 102.715 370.03 102.715 372.404C102.715 374.778 103.49 376.111 104.823 376.111ZM112.455 367.682C114.042 367.694 115.794 368.646 115.794 372.036C115.794 375.299 114.461 377.127 112.303 377.127C110.691 377.127 109.548 376.137 109.32 374.677H110.449C110.653 375.502 111.275 376.111 112.303 376.111C113.801 376.111 114.715 374.816 114.728 372.582H114.601C114.068 373.344 113.23 373.801 112.252 373.801C110.602 373.801 109.243 372.544 109.243 370.767C109.243 369.053 110.5 367.669 112.455 367.682ZM112.455 368.685C111.249 368.685 110.348 369.624 110.361 370.754C110.361 371.896 111.211 372.798 112.417 372.798C113.611 372.798 114.55 371.808 114.55 370.729C114.55 369.675 113.674 368.685 112.455 368.685ZM117.993 375.781C117.549 375.781 117.168 375.413 117.18 374.956C117.168 374.512 117.549 374.144 117.993 374.144C118.437 374.144 118.805 374.512 118.805 374.956C118.805 375.413 118.437 375.781 117.993 375.781ZM117.993 370.678C117.549 370.678 117.168 370.31 117.18 369.853C117.168 369.408 117.549 369.04 117.993 369.04C118.437 369.04 118.805 369.408 118.805 369.853C118.805 370.31 118.437 370.678 117.993 370.678ZM123.34 377.127C121.677 377.127 120.42 376.099 120.357 374.689H121.461C121.55 375.515 122.35 376.124 123.34 376.124C124.534 376.124 125.397 375.248 125.397 374.093C125.397 372.899 124.496 372.023 123.264 372.011C122.49 371.998 121.893 372.239 121.55 372.836H120.446L121.093 367.809H126.07V368.824H122.045L121.703 371.516H121.791C122.198 371.198 122.82 370.982 123.467 370.982C125.219 370.982 126.514 372.277 126.514 374.067C126.514 375.845 125.168 377.127 123.34 377.127ZM127.71 375.121V374.182L131.849 367.809H133.258V374.118H134.54V375.121H133.258V377H132.166V375.121H127.71ZM128.941 374.118H132.166V369.256H132.052L128.941 374.042V374.118Z" fill="#67738E"/>
<path d="M44.9072 391.661C46.1782 391.364 46.9628 390.092 46.6657 388.821C46.3686 387.55 45.0966 386.766 43.8257 387.063C42.5549 387.36 41.7702 388.632 42.0673 389.903C42.3644 391.175 43.6354 391.959 44.9072 391.661Z" fill="#011327"/>
<path d="M36.1732 398.019L38.3066 398.668C38.5231 398.722 38.7669 398.695 38.9823 398.56C39.1717 398.452 39.3338 398.263 39.3882 398.019L40.8224 392.474C40.8768 392.258 40.8496 392.014 40.7146 391.798C40.6069 391.609 40.4175 391.447 40.1738 391.393L38.0121 390.743C37.9305 390.716 37.8772 390.716 37.7956 390.716C37.6335 390.716 37.4985 390.77 37.3625 390.851C37.1732 390.958 37.011 391.148 36.9567 391.391L35.5235 396.938C35.4158 397.397 35.6857 397.884 36.1732 398.019Z" fill="#011327"/>
<path d="M40.2271 400.074C39.9561 399.695 39.6862 399.073 39.8484 398.207C39.8756 398.18 39.8757 398.18 39.8746 398.125L41.3088 392.58C41.3632 392.337 41.5253 392.148 41.7691 392.093C41.9312 392.067 42.1206 392.013 42.2827 391.985C43.5537 391.714 44.4731 392.337 44.879 392.743L44.8791 392.743C44.9868 392.851 45.0956 392.959 45.2033 393.094C45.6897 393.744 46.1228 394.23 46.8529 394.88C46.9879 394.988 47.0967 395.069 47.2316 395.204C47.7996 395.366 48.3132 395.448 48.9084 395.421C49.1348 395.419 49.6141 395.428 49.7202 395.474C50.1532 395.636 50.4503 395.988 50.5319 396.421C50.5852 396.989 50.2066 397.449 49.693 397.611C49.5879 397.65 49.108 397.682 48.8812 397.693C47.9879 397.693 47.2034 397.585 46.3383 397.314C46.1761 397.26 46.0401 397.178 45.9052 397.043C45.7159 396.881 45.5265 396.692 45.3644 396.557C45.175 396.395 44.9585 396.205 44.7692 396.016L44.0934 398.829H44.2284C47.1771 399.045 47.7723 400.668 47.9073 401.858V401.94C47.9073 401.94 48.151 403.698 48.3404 405.024C48.4492 405.754 47.9617 406.403 47.2315 406.511C47.1771 406.538 47.1238 406.538 47.0422 406.538C46.3936 406.538 45.8518 406.079 45.744 405.429C45.6624 404.807 45.3653 402.752 45.311 402.319V402.264L45.3106 402.261C45.2564 401.857 45.2275 401.641 44.0128 401.534C43.8235 401.507 43.6341 401.507 43.4448 401.48L41.8757 407.971C41.7407 408.594 41.1999 409 40.6047 409C40.497 409 40.4154 409 40.3076 408.972C39.6047 408.783 39.1716 408.079 39.3337 407.376L40.93 400.749C40.6601 400.56 40.4164 400.345 40.2271 400.074Z" fill="#011327"/>
<path d="M50.1893 407.179C50.2881 407.722 50.8087 408.083 51.352 407.984C51.8954 407.885 52.2558 407.364 52.157 406.821L50.1893 407.179ZM48.1893 396.179L50.1893 407.179L52.157 406.821L50.157 395.821L48.1893 396.179Z" fill="#011327"/>
<path d="M72.2969 391.266V398.5H70.5625V394.922H67.75V393.531H70.5625V391.266H72.2969ZM72.2969 399.109V402.766H64.7188V403.844H72.75V405.219H63.0156V401.469H70.5781V400.469H63V399.109H72.2969ZM65.5938 392.859C65.5938 394.594 66.7344 396.25 68.9219 396.922L68 398.266C66.4688 397.75 65.3594 396.758 64.75 395.469C64.125 396.914 62.9688 398.031 61.2969 398.578L60.3906 397.188C62.6562 396.5 63.8438 394.766 63.8438 392.859V391.734H65.5938V392.859ZM78.0656 392.078C80.2375 392.062 81.8625 393.484 81.8781 395.469C81.8625 397.484 80.2375 398.891 78.0656 398.891C75.8781 398.891 74.2375 397.484 74.2531 395.469C74.2375 393.484 75.8781 392.062 78.0656 392.078ZM78.0656 393.547C76.8469 393.562 75.9406 394.297 75.9563 395.469C75.9406 396.672 76.8469 397.422 78.0656 397.406C79.2688 397.422 80.175 396.672 80.175 395.469C80.175 394.297 79.2688 393.562 78.0656 393.547ZM85.2375 391.266V394.703H87.2063V396.125H85.2375V399.547H83.5031V391.266H85.2375ZM85.2375 400.188V405.406H83.5031V401.594H75.8313V400.188H85.2375ZM92.7875 393.766C92.7719 395.625 93.9438 397.391 96.1625 398.109L95.2563 399.484C93.6859 398.953 92.5766 397.891 91.9594 396.531C91.3266 398.031 90.1625 399.203 88.5219 399.781L87.5531 398.406C89.8813 397.656 91.0375 395.75 91.0375 393.75V392.141H92.7875V393.766ZM98.8656 391.266V395.438H100.834V396.906H98.8656V401.641H97.1313V391.266H98.8656ZM99.4281 403.703V405.109H89.8188V400.625H91.6V403.703H99.4281ZM110.013 392.688V404H107.966V394.672H107.903L105.263 396.359V394.5L108.059 392.688H110.013ZM113.125 399.109C113.641 398.547 114.297 398.25 115.016 398.25C116.266 398.25 117.344 399.125 118.594 399.125C119.312 399.125 119.938 398.828 120.438 398.234V399.938C119.922 400.516 119.266 400.797 118.547 400.797C117.297 400.797 116.203 399.922 114.969 399.922C114.25 399.922 113.625 400.219 113.125 400.812V399.109ZM126.784 404.156C124.269 404.156 122.487 402.812 122.487 400.969C122.487 399.531 123.55 398.359 124.909 398.141V398.078C123.722 397.828 122.909 396.797 122.909 395.562C122.909 393.812 124.55 392.531 126.784 392.531C129.003 392.531 130.644 393.812 130.644 395.562C130.644 396.797 129.816 397.828 128.644 398.078V398.141C130.003 398.359 131.081 399.531 131.081 400.969C131.081 402.812 129.284 404.156 126.784 404.156ZM126.784 402.547C128.112 402.547 128.987 401.828 128.987 400.781C128.987 399.719 128.05 398.938 126.784 398.938C125.503 398.938 124.566 399.719 124.581 400.781C124.566 401.828 125.441 402.547 126.784 402.547ZM126.784 397.422C127.878 397.422 128.659 396.734 128.659 395.75C128.659 394.797 127.894 394.125 126.784 394.125C125.659 394.125 124.894 394.781 124.894 395.75C124.894 396.734 125.675 397.422 126.784 397.422ZM144.975 398.172V399.578H132.1V398.172H137.647V396.938H133.772V391.656H135.491V393H141.584V391.656H143.303V396.938H139.397V398.172H144.975ZM138.522 400.359C141.569 400.359 143.412 401.266 143.428 402.875C143.412 404.484 141.569 405.375 138.522 405.375C135.428 405.375 133.616 404.484 133.616 402.875C133.616 401.266 135.428 400.359 138.522 400.359ZM138.522 401.688C136.459 401.703 135.35 402.078 135.35 402.875C135.35 403.656 136.459 404.047 138.522 404.047C140.537 404.047 141.647 403.656 141.662 402.875C141.647 402.078 140.537 401.703 138.522 401.688ZM135.491 395.578H141.584V394.328H135.491V395.578ZM153.325 391.719C155.466 391.719 157.059 393.047 157.075 394.906C157.059 396.781 155.466 398.094 153.325 398.094C151.169 398.094 149.575 396.781 149.575 394.906C149.575 393.047 151.169 391.719 153.325 391.719ZM153.325 393.156C152.137 393.156 151.262 393.828 151.262 394.906C151.262 396 152.137 396.688 153.325 396.688C154.512 396.688 155.387 396 155.387 394.906C155.387 393.828 154.512 393.156 153.325 393.156ZM161.091 391.266V398.406H159.341V391.266H161.091ZM161.091 399.016V402.703H153.45V403.844H161.512V405.219H151.747V401.422H159.356V400.375H151.716V399.016H161.091ZM175.828 399.141V400.547H170.219V405.375H168.5V400.547H162.953V399.141H175.828ZM174.641 392.062V393.438H170.406C170.508 394.984 172.367 396.469 175.156 396.828L174.531 398.188C172.125 397.852 170.25 396.75 169.391 395.219C168.531 396.75 166.656 397.852 164.281 398.188L163.625 396.828C166.398 396.469 168.258 394.984 168.391 393.438H164.141V392.062H174.641ZM188.066 392.516V393.797C188.05 395.516 188.081 397.484 187.441 400.469L185.738 400.297C185.98 399.164 186.128 398.156 186.222 397.25L177.894 397.719L177.644 396.234L186.316 395.922C186.347 395.188 186.355 394.531 186.363 393.922H178.081V392.516H188.066ZM189.456 402.219V403.656H176.581V402.219H181.331V398.734H183.05V402.219H189.456ZM197.506 393.203C197.506 395.391 199.647 397.578 202.6 398.094L201.819 399.547C199.452 399.047 197.514 397.617 196.6 395.719C195.663 397.602 193.725 399.039 191.366 399.547L190.6 398.094C193.522 397.562 195.647 395.375 195.663 393.203V392.156H197.506V393.203ZM203.116 402.156V403.594H190.209V402.156H203.116Z" fill="#011327"/>
<rect x="32" y="422" width="311" height="61" rx="8" fill="#F4F6FA"/>
<path d="M72.3982 435.496V446.02H71.2849V435.496H72.3982ZM66.7849 436.281C68.3435 436.281 69.4919 437.711 69.4919 439.961C69.4919 442.223 68.3435 443.652 66.7849 443.652C65.2029 443.652 64.0662 442.223 64.0662 439.961C64.0662 437.711 65.2029 436.281 66.7849 436.281ZM66.7849 437.277C65.8123 437.277 65.1443 438.309 65.1443 439.961C65.1443 441.625 65.8123 442.656 66.7849 442.656C67.7458 442.656 68.4138 441.625 68.4138 439.961C68.4138 438.309 67.7458 437.277 66.7849 437.277ZM83.5099 440.605V441.496H73.924V440.605H78.1779V439.492H75.1193V435.977H82.3263V436.855H76.2208V438.602H82.3966V439.492H79.256V440.605H83.5099ZM78.7052 442.176C80.9669 442.176 82.3263 442.867 82.3263 444.086C82.3263 445.305 80.9669 445.984 78.7052 445.996C76.4318 445.984 75.0607 445.305 75.0607 444.086C75.0607 442.867 76.4318 442.176 78.7052 442.176ZM78.7052 443.043C77.0998 443.043 76.1857 443.418 76.1857 444.086C76.1857 444.754 77.0998 445.129 78.7052 445.117C80.2873 445.129 81.213 444.754 81.213 444.086C81.213 443.418 80.2873 443.043 78.7052 443.043ZM92.8873 435.496V445.996H91.7857V440.57H89.4302V439.656H91.7857V435.496H92.8873ZM89.4654 436.621C89.4537 439.668 88.2701 442.281 84.7076 444.051L84.1216 443.172C86.9048 441.812 88.1412 439.92 88.3404 437.512H84.5904V436.621H89.4654ZM103.085 435.496V446.02H101.972V435.496H103.085ZM99.874 436.445V440.277H96.1005V442.574C97.7997 442.568 99.288 442.492 101.046 442.199L101.151 443.113C99.288 443.43 97.706 443.5 95.8544 443.5H94.9638V439.387H98.7372V437.348H94.9521V436.445H99.874Z" fill="#96A0B5"/>
<path d="M69.8005 467.137C67.7498 467.123 65.8083 465.906 65.8083 462.283C65.8083 458.947 67.408 456.965 69.8826 456.965C71.8787 456.965 73.2322 458.223 73.4373 459.85H71.4138C71.2498 459.152 70.6755 458.729 69.8826 458.729C68.5427 458.729 67.8318 459.945 67.8181 461.887H67.9138C68.365 461.012 69.3494 460.492 70.4431 460.492C72.2205 460.492 73.5466 461.832 73.5466 463.691C73.5466 465.701 72.029 467.15 69.8005 467.137ZM69.7869 465.51C70.7986 465.51 71.5505 464.744 71.5505 463.746C71.5505 462.762 70.8259 461.982 69.8142 461.982C68.8025 461.982 68.0369 462.775 68.0232 463.746C68.0369 464.717 68.7751 465.51 69.7869 465.51ZM75.5865 467.123C74.9439 467.123 74.4244 466.604 74.438 465.975C74.4244 465.346 74.9439 464.84 75.5865 464.84C76.188 464.84 76.7212 465.346 76.7212 465.975C76.7212 466.604 76.188 467.123 75.5865 467.123ZM81.1947 457.102V467H79.1302V459.057H79.0755L76.806 460.479V458.66L79.2533 457.102H81.1947ZM83.3302 467V457.102H85.3537V462.42H85.463L87.8693 459.576H90.1935L87.4318 462.789L90.3439 467H87.965L85.9279 463.979L85.3537 464.621V467H83.3302ZM90.9619 467V459.576H92.8896V460.875H92.9716C93.2861 460.014 94.038 459.48 95.0361 459.48C96.0615 459.48 96.8134 460.014 97.0595 460.875H97.1279C97.4423 460.027 98.2763 459.48 99.3701 459.48C100.751 459.48 101.708 460.396 101.708 462.01V467H99.6845V462.406C99.6845 461.559 99.1923 461.148 98.5224 461.148C97.7568 461.148 97.3193 461.682 97.3193 462.461V467H95.3505V462.352C95.3505 461.613 94.8857 461.148 94.2021 461.148C93.5185 461.148 92.9853 461.695 92.9853 462.543V467H90.9619Z" fill="#011327"/>
<path d="M182.054 440.875V441.777H172.48V440.875H176.711V439.668H177.812V440.875H182.054ZM177.812 435.484V436.492H181.093V437.383H177.882C178 438.396 179.453 439.158 181.539 439.328L181.199 440.184C179.382 440.014 177.912 439.404 177.261 438.426C176.605 439.404 175.134 440.014 173.336 440.184L172.984 439.328C175.058 439.158 176.511 438.396 176.64 437.383H173.441V436.492H176.711V435.484H177.812ZM177.261 442.469C179.546 442.469 180.882 443.09 180.882 444.227C180.882 445.363 179.546 445.984 177.261 445.973C174.964 445.984 173.617 445.363 173.617 444.227C173.617 443.09 174.964 442.469 177.261 442.469ZM177.261 443.301C175.644 443.301 174.742 443.629 174.742 444.227C174.742 444.824 175.644 445.141 177.261 445.129C178.855 445.141 179.769 444.824 179.769 444.227C179.769 443.629 178.855 443.301 177.261 443.301ZM186.557 438.168C186.545 440.09 187.705 442.012 189.334 442.738L188.666 443.617C187.459 443.043 186.504 441.865 186.018 440.43C185.525 441.965 184.559 443.236 183.299 443.852L182.619 442.914C184.271 442.176 185.432 440.172 185.432 438.168V436.375H186.557V438.168ZM191.396 435.496V446.02H190.283V435.496H191.396ZM201.172 435.496V438.602H202.696V439.527H201.172V443.125H200.047V435.496H201.172ZM198.325 436.293C198.325 439.047 196.45 441.051 193.379 441.977L192.911 441.086C195.366 440.348 196.895 438.953 197.118 437.219H193.356V436.293H198.325ZM201.606 444.871V445.773H194.504V442.34H195.629V444.871H201.606Z" fill="#96A0B5"/>
<path d="M156.711 465.25V463.623L160.895 457.102H163.479V463.596H164.736V465.25H163.479V467H161.523V465.25H156.711ZM158.789 463.596H161.551V459.357H161.455L158.789 463.514V463.596ZM170.331 458.633C170.331 460.916 171.37 463.213 173.475 464.102L172.45 465.496C171.028 464.854 170.044 463.616 169.483 462.078C168.916 463.753 167.897 465.106 166.38 465.797L165.327 464.348C167.501 463.432 168.554 461.053 168.567 458.633V456.773H170.331V458.633ZM175.909 455.816V468.285H174.145V455.816H175.909ZM187.287 455.816V459.303H188.968V460.738H187.287V464.73H185.523V455.816H187.287ZM183.896 456.746C183.896 460.109 181.791 462.461 178.058 463.514L177.334 462.133C180.116 461.354 181.695 459.911 181.982 458.168H177.88V456.746H183.896ZM187.711 466.645V468.039H179.193V463.814H180.957V466.645H187.711ZM193.414 467.137C191.241 467.137 189.682 465.934 189.641 464.211H191.719C191.76 464.949 192.471 465.441 193.428 465.441C194.412 465.441 195.123 464.881 195.11 464.088C195.123 463.281 194.399 462.707 193.237 462.707H192.321V461.189H193.237C194.207 461.189 194.891 460.656 194.891 459.877C194.891 459.125 194.317 458.605 193.442 458.605C192.567 458.605 191.842 459.098 191.815 459.85H189.846C189.873 458.141 191.418 456.965 193.442 456.965C195.506 456.965 196.887 458.182 196.873 459.754C196.887 460.861 196.108 461.654 195 461.846V461.928C196.45 462.105 197.256 462.994 197.243 464.225C197.256 465.92 195.643 467.137 193.414 467.137ZM202.359 467.137C199.884 467.137 198.38 465.291 198.38 462.051C198.38 458.811 199.884 456.965 202.359 456.965C204.833 456.965 206.337 458.824 206.337 462.051C206.337 465.305 204.833 467.137 202.359 467.137ZM202.359 465.441C203.507 465.441 204.245 464.334 204.232 462.051C204.232 459.795 203.507 458.646 202.359 458.646C201.21 458.646 200.486 459.795 200.486 462.051C200.472 464.334 201.21 465.441 202.359 465.441ZM218.549 462.201V463.568H213.859V465.578H212.137V463.568H207.16V462.201H218.549ZM217.291 466.645V468.039H208.5V464.594H210.223V466.645H217.291ZM210.346 456.213V457.512H215.336V456.213H217.072V461.326H208.623V456.213H210.346ZM210.346 459.945H215.336V458.811H210.346V459.945Z" fill="#011327"/>
<path d="M281.537 435.941C281.537 438.602 279.932 440.418 276.709 441.238L276.287 440.371C277.887 439.967 278.983 439.334 279.627 438.543L276.44 438.777L276.264 437.875L280.119 437.734C280.237 437.441 280.313 437.137 280.354 436.82H276.791V435.941H281.537ZM284.397 435.496V437.816H285.92V438.742H284.397V440.957H283.283V435.496H284.397ZM284.397 441.402V443.992H278.737V444.988H284.76V445.867H277.635V443.172H283.283V442.27H277.612V441.402H284.397ZM295.977 443.805V444.742H286.368V443.805H290.598V441.965H287.54V438.625H293.704V437.148H287.516V436.234H294.805V439.516H288.641V441.051H295.051V441.965H291.7V443.805H295.977ZM305.308 435.496V446.02H304.194V435.496H305.308ZM302.097 436.445V440.277H298.323V442.574C300.023 442.568 301.511 442.492 303.269 442.199L303.374 443.113C301.511 443.43 299.929 443.5 298.077 443.5H297.187V439.387H300.96V437.348H297.175V436.445H302.097Z" fill="#96A0B5"/>
<path d="M269.523 467.137C267.267 467.137 265.64 465.947 265.64 464.334C265.64 463.09 266.597 462.078 267.827 461.887V461.818C266.761 461.613 266.023 460.711 266.023 459.631C266.023 458.086 267.499 456.965 269.523 456.965C271.546 456.965 273.023 458.086 273.036 459.631C273.023 460.725 272.271 461.613 271.232 461.818V461.887C272.435 462.078 273.406 463.09 273.406 464.334C273.406 465.947 271.779 467.137 269.523 467.137ZM269.523 465.564C270.562 465.564 271.259 464.977 271.259 464.129C271.259 463.268 270.534 462.639 269.523 462.639C268.511 462.639 267.773 463.268 267.786 464.129C267.773 464.977 268.47 465.564 269.523 465.564ZM269.523 461.189C270.398 461.189 271.027 460.629 271.027 459.836C271.027 459.07 270.411 458.523 269.523 458.523C268.634 458.523 268.033 459.057 268.033 459.836C268.033 460.629 268.648 461.189 269.523 461.189ZM274.639 467L274.625 465.51L278.18 462.242C279.109 461.354 279.602 460.807 279.602 460.027C279.602 459.152 278.932 458.605 278.029 458.605C277.1 458.605 276.498 459.193 276.498 460.137H274.543C274.529 458.195 275.965 456.965 278.057 456.965C280.176 456.965 281.584 458.168 281.584 459.891C281.584 461.012 281.037 461.941 279 463.787L277.496 465.25V465.305H281.721V467H274.639ZM286.837 467.137C284.786 467.123 282.845 465.906 282.845 462.283C282.845 458.947 284.444 456.965 286.919 456.965C288.915 456.965 290.268 458.223 290.474 459.85H288.45C288.286 459.152 287.712 458.729 286.919 458.729C285.579 458.729 284.868 459.945 284.854 461.887H284.95C285.401 461.012 286.386 460.492 287.479 460.492C289.257 460.492 290.583 461.832 290.583 463.691C290.583 465.701 289.065 467.15 286.837 467.137ZM286.823 465.51C287.835 465.51 288.587 464.744 288.587 463.746C288.587 462.762 287.862 461.982 286.85 461.982C285.839 461.982 285.073 462.775 285.059 463.746C285.073 464.717 285.811 465.51 286.823 465.51ZM291.843 467V457.102H293.867V462.42H293.976L296.383 459.576H298.707L295.945 462.789L298.857 467H296.478L294.441 463.979L293.867 464.621V467H291.843ZM302.497 467.15C300.227 467.15 298.86 465.578 298.86 463.309C298.86 461.039 300.241 459.48 302.497 459.48C304.411 459.48 305.709 460.602 305.791 462.297H303.891C303.768 461.559 303.29 461.053 302.524 461.053C301.553 461.053 300.911 461.873 300.911 463.281C300.911 464.717 301.54 465.537 302.524 465.537C303.235 465.537 303.768 465.1 303.891 464.307H305.791C305.696 465.988 304.465 467.15 302.497 467.15ZM306.519 464.922C306.519 463.268 307.859 462.721 309.281 462.639C309.814 462.604 310.812 462.557 311.126 462.543V461.941C311.113 461.326 310.689 460.957 309.937 460.957C309.253 460.957 308.816 461.271 308.706 461.777H306.779C306.902 460.492 308.023 459.48 309.991 459.48C311.605 459.48 313.136 460.205 313.136 461.996V467H311.222V465.975H311.167C310.798 466.658 310.101 467.137 308.993 467.137C307.572 467.137 306.519 466.398 306.519 464.922ZM308.46 464.867C308.46 465.441 308.925 465.742 309.568 465.742C310.484 465.742 311.14 465.127 311.126 464.348V463.801C310.819 463.814 309.957 463.862 309.609 463.896C308.911 463.965 308.46 464.293 308.46 464.867ZM316.529 457.102V467H314.506V457.102H316.529Z" fill="#011327"/>
</g>
<defs>
<filter id="filter0_d_121331_75102" x="4" y="4" width="367" height="177" filterUnits="userSpaceOnUse" color-interpolation-filters="sRGB">
<feFlood flood-opacity="0" result="BackgroundImageFix"/>
<feColorMatrix in="SourceAlpha" type="matrix" values="0 0 0 0 0 0 0 0 0 0 0 0 0 0 0 0 0 0 127 0" result="hardAlpha"/>
<feOffset/>
<feGaussianBlur stdDeviation="6"/>
<feComposite in2="hardAlpha" operator="out"/>
<feColorMatrix type="matrix" values="0 0 0 0 0 0 0 0 0 0 0 0 0 0 0 0 0 0 0.04 0"/>
<feBlend mode="normal" in2="BackgroundImageFix" result="effect1_dropShadow_121331_75102"/>
<feBlend mode="normal" in="SourceGraphic" in2="effect1_dropShadow_121331_75102" result="shape"/>
</filter>
<filter id="filter1_d_121331_75102" x="4" y="169" width="367" height="177" filterUnits="userSpaceOnUse" color-interpolation-filters="sRGB">
<feFlood flood-opacity="0" result="BackgroundImageFix"/>
<feColorMatrix in="SourceAlpha" type="matrix" values="0 0 0 0 0 0 0 0 0 0 0 0 0 0 0 0 0 0 127 0" result="hardAlpha"/>
<feOffset/>
<feGaussianBlur stdDeviation="6"/>
<feComposite in2="hardAlpha" operator="out"/>
<feColorMatrix type="matrix" values="0 0 0 0 0 0 0 0 0 0 0 0 0 0 0 0 0 0 0.04 0"/>
<feBlend mode="normal" in2="BackgroundImageFix" result="effect1_dropShadow_121331_75102"/>
<feBlend mode="normal" in="SourceGraphic" in2="effect1_dropShadow_121331_75102" result="shape"/>
</filter>
<filter id="filter2_d_121331_75102" x="4" y="334" width="367" height="177" filterUnits="userSpaceOnUse" color-interpolation-filters="sRGB">
<feFlood flood-opacity="0" result="BackgroundImageFix"/>
<feColorMatrix in="SourceAlpha" type="matrix" values="0 0 0 0 0 0 0 0 0 0 0 0 0 0 0 0 0 0 127 0" result="hardAlpha"/>
<feOffset/>
<feGaussianBlur stdDeviation="6"/>
<feComposite in2="hardAlpha" operator="out"/>
<feColorMatrix type="matrix" values="0 0 0 0 0 0 0 0 0 0 0 0 0 0 0 0 0 0 0.04 0"/>
<feBlend mode="normal" in2="BackgroundImageFix" result="effect1_dropShadow_121331_75102"/>
<feBlend mode="normal" in="SourceGraphic" in2="effect1_dropShadow_121331_75102" result="shape"/>
</filter>
</defs>
</svg>
