<svg width="24" height="24" viewBox="0 0 24 24" fill="none" xmlns="http://www.w3.org/2000/svg">
<g id="Iconly/Bold/Home">
<g id="Home">
<path id="Vector" d="M8.65757 22.2362V18.6689C8.65757 17.7582 9.40119 17.02 10.3185 17.02H13.6717C14.1122 17.02 14.5347 17.1937 14.8462 17.5029C15.1576 17.8122 15.3326 18.2316 15.3326 18.6689V22.2362C15.3299 22.6148 15.4794 22.9788 15.7481 23.2475C16.0168 23.5162 16.3824 23.6673 16.7638 23.6673H19.0515C20.1199 23.6701 21.1455 23.2506 21.902 22.5016C22.6585 21.7525 23.0837 20.7355 23.0837 19.6748V9.51199C23.0837 8.65519 22.7011 7.84247 22.039 7.29276L14.2567 1.1225C12.9029 0.0406397 10.9633 0.0755702 9.64995 1.20546L2.04517 7.29276C1.35186 7.82626 0.93747 8.64139 0.916992 9.51199V19.6644C0.916992 21.8751 2.72227 23.6673 4.94919 23.6673H7.18466C7.97676 23.6673 8.62049 23.0329 8.62623 22.2466L8.65757 22.2362Z" fill="#19191B"/>
</g>
</g>
</svg>
