<svg width="375" height="529" viewBox="0 0 375 529" fill="none" xmlns="http://www.w3.org/2000/svg">
<rect width="375" height="529" fill="url(#paint0_linear_121505_6684)" fill-opacity="0.7"/>
<rect x="20" y="32" width="179" height="45" rx="22.5" fill="white"/>
<rect x="20" y="54" width="159.79" height="23" fill="white"/>
<path d="M209.863 72L209.851 71.1621L212.986 67.8613C214.078 66.7061 214.599 66.084 214.599 65.2334C214.599 64.2939 213.799 63.6719 212.771 63.6719C211.679 63.6719 210.98 64.3701 210.98 65.3984H209.901C209.889 63.7734 211.146 62.6816 212.809 62.6816C214.472 62.6816 215.665 63.7988 215.665 65.2334C215.665 66.2617 215.183 67.0615 213.558 68.7373L211.45 70.9082V70.9844H215.83V72H209.863ZM220.339 72.127C218.296 72.127 217.128 70.4131 217.128 67.4043C217.128 64.4209 218.321 62.6816 220.339 62.6816C222.358 62.6816 223.551 64.4209 223.551 67.4043C223.551 70.4131 222.371 72.127 220.339 72.127ZM220.339 71.1113C221.66 71.1113 222.434 69.7783 222.434 67.4043C222.434 65.0303 221.66 63.6719 220.339 63.6719C219.019 63.6719 218.232 65.0303 218.232 67.4043C218.232 69.7783 219.006 71.1113 220.339 71.1113ZM224.912 72L224.9 71.1621L228.035 67.8613C229.127 66.7061 229.648 66.084 229.648 65.2334C229.648 64.2939 228.848 63.6719 227.82 63.6719C226.728 63.6719 226.029 64.3701 226.029 65.3984H224.95C224.938 63.7734 226.195 62.6816 227.858 62.6816C229.521 62.6816 230.714 63.7988 230.714 65.2334C230.714 66.2617 230.232 67.0615 228.607 68.7373L226.499 70.9082V70.9844H230.879V72H224.912ZM231.948 70.1211V69.1816L236.087 62.8086H237.496V69.1182H238.778V70.1211H237.496V72H236.404V70.1211H231.948ZM233.179 69.1182H236.404V64.2559H236.29L233.179 69.042V69.1182ZM240.495 72.0762C240.05 72.0762 239.669 71.708 239.682 71.251C239.669 70.8066 240.05 70.4385 240.495 70.4385C240.939 70.4385 241.307 70.8066 241.307 71.251C241.307 71.708 240.939 72.0762 240.495 72.0762ZM245.524 72.127C243.48 72.127 242.312 70.4131 242.312 67.4043C242.312 64.4209 243.506 62.6816 245.524 62.6816C247.543 62.6816 248.736 64.4209 248.736 67.4043C248.736 70.4131 247.556 72.127 245.524 72.127ZM245.524 71.1113C246.845 71.1113 247.619 69.7783 247.619 67.4043C247.619 65.0303 246.845 63.6719 245.524 63.6719C244.204 63.6719 243.417 65.0303 243.417 67.4043C243.417 69.7783 244.191 71.1113 245.524 71.1113ZM253.296 72.127C251.697 72.1016 249.945 71.1621 249.945 67.7598C249.945 64.5098 251.278 62.6816 253.436 62.6816C255.048 62.6816 256.178 63.6719 256.42 65.1191H255.29C255.074 64.3066 254.464 63.6973 253.436 63.6973C251.925 63.6973 251.024 64.9922 251.024 67.2012H251.138C251.671 66.4395 252.509 65.9824 253.5 65.9824C255.137 65.9824 256.496 67.252 256.496 69.0293C256.496 70.7559 255.226 72.1396 253.296 72.127ZM253.296 71.124C254.49 71.124 255.379 70.1846 255.391 69.042C255.379 67.9121 254.528 66.9854 253.322 66.9854C252.116 66.9854 251.189 67.9629 251.176 69.0547C251.176 70.1338 252.065 71.124 253.296 71.124ZM258.263 72.0762C257.819 72.0762 257.438 71.708 257.45 71.251C257.438 70.8066 257.819 70.4385 258.263 70.4385C258.707 70.4385 259.075 70.8066 259.075 71.251C259.075 71.708 258.707 72.0762 258.263 72.0762ZM263.445 72.127C261.617 72.127 260.309 71.1494 260.246 69.6895H261.401C261.465 70.5654 262.341 71.1113 263.432 71.1113C264.638 71.1113 265.527 70.4512 265.527 69.499C265.527 68.4961 264.727 67.7852 263.293 67.7852H262.544V66.7822H263.293C264.41 66.7822 265.184 66.1602 265.184 65.208C265.184 64.2939 264.512 63.6719 263.471 63.6719C262.493 63.6719 261.592 64.2178 261.541 65.1191H260.436C260.5 63.6592 261.846 62.6816 263.483 62.6816C265.235 62.6816 266.302 63.8242 266.289 65.1445C266.302 66.1855 265.692 66.96 264.727 67.2266V67.29C265.921 67.4805 266.657 68.3311 266.644 69.499C266.657 71.0098 265.273 72.127 263.445 72.127ZM271.141 72.127C269.097 72.127 267.929 70.4131 267.929 67.4043C267.929 64.4209 269.122 62.6816 271.141 62.6816C273.16 62.6816 274.353 64.4209 274.353 67.4043C274.353 70.4131 273.172 72.127 271.141 72.127ZM271.141 71.1113C272.461 71.1113 273.236 69.7783 273.236 67.4043C273.236 65.0303 272.461 63.6719 271.141 63.6719C269.821 63.6719 269.034 65.0303 269.034 67.4043C269.034 69.7783 269.808 71.1113 271.141 71.1113ZM281.823 72.127C279.779 72.127 278.611 70.4131 278.611 67.4043C278.611 64.4209 279.804 62.6816 281.823 62.6816C283.841 62.6816 285.035 64.4209 285.035 67.4043C285.035 70.4131 283.854 72.127 281.823 72.127ZM281.823 71.1113C283.143 71.1113 283.918 69.7783 283.918 67.4043C283.918 65.0303 283.143 63.6719 281.823 63.6719C280.503 63.6719 279.715 65.0303 279.715 67.4043C279.715 69.7783 280.49 71.1113 281.823 71.1113ZM289.455 62.6816C291.042 62.6943 292.794 63.6465 292.794 67.0361C292.794 70.2988 291.461 72.127 289.303 72.127C287.691 72.127 286.548 71.1367 286.32 69.6768H287.449C287.653 70.502 288.275 71.1113 289.303 71.1113C290.801 71.1113 291.715 69.8164 291.728 67.582H291.601C291.068 68.3438 290.23 68.8008 289.252 68.8008C287.602 68.8008 286.243 67.5439 286.243 65.7666C286.243 64.0527 287.5 62.6689 289.455 62.6816ZM289.455 63.6846C288.249 63.6846 287.348 64.624 287.361 65.7539C287.361 66.8965 288.211 67.7979 289.417 67.7979C290.611 67.7979 291.55 66.8076 291.55 65.7285C291.55 64.6748 290.674 63.6846 289.455 63.6846ZM294.993 70.7812C294.549 70.7812 294.168 70.4131 294.18 69.9561C294.168 69.5117 294.549 69.1436 294.993 69.1436C295.437 69.1436 295.805 69.5117 295.805 69.9561C295.805 70.4131 295.437 70.7812 294.993 70.7812ZM294.993 65.6777C294.549 65.6777 294.168 65.3096 294.18 64.8525C294.168 64.4082 294.549 64.04 294.993 64.04C295.437 64.04 295.805 64.4082 295.805 64.8525C295.805 65.3096 295.437 65.6777 294.993 65.6777ZM300.34 72.127C298.677 72.127 297.42 71.0986 297.357 69.6895H298.461C298.55 70.5146 299.35 71.124 300.34 71.124C301.534 71.124 302.397 70.248 302.397 69.0928C302.397 67.8994 301.496 67.0234 300.264 67.0107C299.49 66.998 298.893 67.2393 298.55 67.8359H297.446L298.093 62.8086H303.07V63.8242H299.045L298.703 66.5156H298.791C299.198 66.1982 299.82 65.9824 300.467 65.9824C302.219 65.9824 303.514 67.2773 303.514 69.0674C303.514 70.8447 302.168 72.127 300.34 72.127ZM304.71 70.1211V69.1816L308.849 62.8086H310.258V69.1182H311.54V70.1211H310.258V72H309.166V70.1211H304.71ZM305.941 69.1182H309.166V64.2559H309.052L305.941 69.042V69.1182Z" fill="#373F57"/>
<rect x="20" y="272" width="179" height="45" rx="22.5" fill="white"/>
<rect x="20" y="294" width="159.79" height="23" fill="white"/>
<path d="M209.863 312L209.851 311.162L212.986 307.861C214.078 306.706 214.599 306.084 214.599 305.233C214.599 304.294 213.799 303.672 212.771 303.672C211.679 303.672 210.98 304.37 210.98 305.398H209.901C209.889 303.773 211.146 302.682 212.809 302.682C214.472 302.682 215.665 303.799 215.665 305.233C215.665 306.262 215.183 307.062 213.558 308.737L211.45 310.908V310.984H215.83V312H209.863ZM220.339 312.127C218.296 312.127 217.128 310.413 217.128 307.404C217.128 304.421 218.321 302.682 220.339 302.682C222.358 302.682 223.551 304.421 223.551 307.404C223.551 310.413 222.371 312.127 220.339 312.127ZM220.339 311.111C221.66 311.111 222.434 309.778 222.434 307.404C222.434 305.03 221.66 303.672 220.339 303.672C219.019 303.672 218.232 305.03 218.232 307.404C218.232 309.778 219.006 311.111 220.339 311.111ZM224.912 312L224.9 311.162L228.035 307.861C229.127 306.706 229.648 306.084 229.648 305.233C229.648 304.294 228.848 303.672 227.82 303.672C226.728 303.672 226.029 304.37 226.029 305.398H224.95C224.938 303.773 226.195 302.682 227.858 302.682C229.521 302.682 230.714 303.799 230.714 305.233C230.714 306.262 230.232 307.062 228.607 308.737L226.499 310.908V310.984H230.879V312H224.912ZM231.948 310.121V309.182L236.087 302.809H237.496V309.118H238.778V310.121H237.496V312H236.404V310.121H231.948ZM233.179 309.118H236.404V304.256H236.29L233.179 309.042V309.118ZM240.495 312.076C240.05 312.076 239.669 311.708 239.682 311.251C239.669 310.807 240.05 310.438 240.495 310.438C240.939 310.438 241.307 310.807 241.307 311.251C241.307 311.708 240.939 312.076 240.495 312.076ZM245.524 312.127C243.48 312.127 242.312 310.413 242.312 307.404C242.312 304.421 243.506 302.682 245.524 302.682C247.543 302.682 248.736 304.421 248.736 307.404C248.736 310.413 247.556 312.127 245.524 312.127ZM245.524 311.111C246.845 311.111 247.619 309.778 247.619 307.404C247.619 305.03 246.845 303.672 245.524 303.672C244.204 303.672 243.417 305.03 243.417 307.404C243.417 309.778 244.191 311.111 245.524 311.111ZM253.296 312.127C251.697 312.102 249.945 311.162 249.945 307.76C249.945 304.51 251.278 302.682 253.436 302.682C255.048 302.682 256.178 303.672 256.42 305.119H255.29C255.074 304.307 254.464 303.697 253.436 303.697C251.925 303.697 251.024 304.992 251.024 307.201H251.138C251.671 306.439 252.509 305.982 253.5 305.982C255.137 305.982 256.496 307.252 256.496 309.029C256.496 310.756 255.226 312.14 253.296 312.127ZM253.296 311.124C254.49 311.124 255.379 310.185 255.391 309.042C255.379 307.912 254.528 306.985 253.322 306.985C252.116 306.985 251.189 307.963 251.176 309.055C251.176 310.134 252.065 311.124 253.296 311.124ZM258.263 312.076C257.819 312.076 257.438 311.708 257.45 311.251C257.438 310.807 257.819 310.438 258.263 310.438C258.707 310.438 259.075 310.807 259.075 311.251C259.075 311.708 258.707 312.076 258.263 312.076ZM263.445 312.127C261.617 312.127 260.309 311.149 260.246 309.689H261.401C261.465 310.565 262.341 311.111 263.432 311.111C264.638 311.111 265.527 310.451 265.527 309.499C265.527 308.496 264.727 307.785 263.293 307.785H262.544V306.782H263.293C264.41 306.782 265.184 306.16 265.184 305.208C265.184 304.294 264.512 303.672 263.471 303.672C262.493 303.672 261.592 304.218 261.541 305.119H260.436C260.5 303.659 261.846 302.682 263.483 302.682C265.235 302.682 266.302 303.824 266.289 305.145C266.302 306.186 265.692 306.96 264.727 307.227V307.29C265.921 307.48 266.657 308.331 266.644 309.499C266.657 311.01 265.273 312.127 263.445 312.127ZM271.141 312.127C269.097 312.127 267.929 310.413 267.929 307.404C267.929 304.421 269.122 302.682 271.141 302.682C273.16 302.682 274.353 304.421 274.353 307.404C274.353 310.413 273.172 312.127 271.141 312.127ZM271.141 311.111C272.461 311.111 273.236 309.778 273.236 307.404C273.236 305.03 272.461 303.672 271.141 303.672C269.821 303.672 269.034 305.03 269.034 307.404C269.034 309.778 269.808 311.111 271.141 311.111ZM281.823 312.127C279.779 312.127 278.611 310.413 278.611 307.404C278.611 304.421 279.804 302.682 281.823 302.682C283.841 302.682 285.035 304.421 285.035 307.404C285.035 310.413 283.854 312.127 281.823 312.127ZM281.823 311.111C283.143 311.111 283.918 309.778 283.918 307.404C283.918 305.03 283.143 303.672 281.823 303.672C280.503 303.672 279.715 305.03 279.715 307.404C279.715 309.778 280.49 311.111 281.823 311.111ZM289.455 302.682C291.042 302.694 292.794 303.646 292.794 307.036C292.794 310.299 291.461 312.127 289.303 312.127C287.691 312.127 286.548 311.137 286.32 309.677H287.449C287.653 310.502 288.275 311.111 289.303 311.111C290.801 311.111 291.715 309.816 291.728 307.582H291.601C291.068 308.344 290.23 308.801 289.252 308.801C287.602 308.801 286.243 307.544 286.243 305.767C286.243 304.053 287.5 302.669 289.455 302.682ZM289.455 303.685C288.249 303.685 287.348 304.624 287.361 305.754C287.361 306.896 288.211 307.798 289.417 307.798C290.611 307.798 291.55 306.808 291.55 305.729C291.55 304.675 290.674 303.685 289.455 303.685ZM294.993 310.781C294.549 310.781 294.168 310.413 294.18 309.956C294.168 309.512 294.549 309.144 294.993 309.144C295.437 309.144 295.805 309.512 295.805 309.956C295.805 310.413 295.437 310.781 294.993 310.781ZM294.993 305.678C294.549 305.678 294.168 305.31 294.18 304.853C294.168 304.408 294.549 304.04 294.993 304.04C295.437 304.04 295.805 304.408 295.805 304.853C295.805 305.31 295.437 305.678 294.993 305.678ZM300.34 312.127C298.677 312.127 297.42 311.099 297.357 309.689H298.461C298.55 310.515 299.35 311.124 300.34 311.124C301.534 311.124 302.397 310.248 302.397 309.093C302.397 307.899 301.496 307.023 300.264 307.011C299.49 306.998 298.893 307.239 298.55 307.836H297.446L298.093 302.809H303.07V303.824H299.045L298.703 306.516H298.791C299.198 306.198 299.82 305.982 300.467 305.982C302.219 305.982 303.514 307.277 303.514 309.067C303.514 310.845 302.168 312.127 300.34 312.127ZM304.71 310.121V309.182L308.849 302.809H310.258V309.118H311.54V310.121H310.258V312H309.166V310.121H304.71ZM305.941 309.118H309.166V304.256H309.052L305.941 309.042V309.118Z" fill="#373F57"/>
<rect width="179" height="45" rx="22.5" transform="matrix(-1 0 0 1 355 97)" fill="white"/>
<rect width="159.79" height="23" transform="matrix(-1 0 0 1 355 119)" fill="white"/>
<path d="M23.8633 247L23.8506 246.162L26.9863 242.861C28.0781 241.706 28.5986 241.084 28.5986 240.233C28.5986 239.294 27.7988 238.672 26.7705 238.672C25.6787 238.672 24.9805 239.37 24.9805 240.398H23.9014C23.8887 238.773 25.1455 237.682 26.8086 237.682C28.4717 237.682 29.665 238.799 29.665 240.233C29.665 241.262 29.1826 242.062 27.5576 243.737L25.4502 245.908V245.984H29.8301V247H23.8633ZM34.3395 247.127C32.2955 247.127 31.1275 245.413 31.1275 242.404C31.1275 239.421 32.3209 237.682 34.3395 237.682C36.358 237.682 37.5514 239.421 37.5514 242.404C37.5514 245.413 36.3707 247.127 34.3395 247.127ZM34.3395 246.111C35.6598 246.111 36.4342 244.778 36.4342 242.404C36.4342 240.03 35.6598 238.672 34.3395 238.672C33.0191 238.672 32.232 240.03 32.232 242.404C32.232 244.778 33.0064 246.111 34.3395 246.111ZM38.9123 247L38.8996 246.162L42.0354 242.861C43.1271 241.706 43.6477 241.084 43.6477 240.233C43.6477 239.294 42.8479 238.672 41.8195 238.672C40.7277 238.672 40.0295 239.37 40.0295 240.398H38.9504C38.9377 238.773 40.1945 237.682 41.8576 237.682C43.5207 237.682 44.7141 238.799 44.7141 240.233C44.7141 241.262 44.2316 242.062 42.6066 243.737L40.4992 245.908V245.984H44.8791V247H38.9123ZM45.948 245.121V244.182L50.0867 237.809H51.4959V244.118H52.7781V245.121H51.4959V247H50.4041V245.121H45.948ZM47.1795 244.118H50.4041V239.256H50.2898L47.1795 244.042V244.118ZM54.4945 247.076C54.0502 247.076 53.6693 246.708 53.682 246.251C53.6693 245.807 54.0502 245.438 54.4945 245.438C54.9389 245.438 55.307 245.807 55.307 246.251C55.307 246.708 54.9389 247.076 54.4945 247.076ZM59.5244 247.127C57.4805 247.127 56.3125 245.413 56.3125 242.404C56.3125 239.421 57.5059 237.682 59.5244 237.682C61.543 237.682 62.7363 239.421 62.7363 242.404C62.7363 245.413 61.5557 247.127 59.5244 247.127ZM59.5244 246.111C60.8447 246.111 61.6191 244.778 61.6191 242.404C61.6191 240.03 60.8447 238.672 59.5244 238.672C58.2041 238.672 57.417 240.03 57.417 242.404C57.417 244.778 58.1914 246.111 59.5244 246.111ZM67.2965 247.127C65.6969 247.102 63.9449 246.162 63.9449 242.76C63.9449 239.51 65.2779 237.682 67.4361 237.682C69.0484 237.682 70.1783 238.672 70.4195 240.119H69.2896C69.0738 239.307 68.4645 238.697 67.4361 238.697C65.9254 238.697 65.024 239.992 65.024 242.201H65.1383C65.6715 241.439 66.5094 240.982 67.4996 240.982C69.1373 240.982 70.4957 242.252 70.4957 244.029C70.4957 245.756 69.2262 247.14 67.2965 247.127ZM67.2965 246.124C68.4898 246.124 69.3785 245.185 69.3912 244.042C69.3785 242.912 68.5279 241.985 67.3219 241.985C66.1158 241.985 65.1891 242.963 65.1764 244.055C65.1764 245.134 66.065 246.124 67.2965 246.124ZM72.2629 247.076C71.8186 247.076 71.4377 246.708 71.4504 246.251C71.4377 245.807 71.8186 245.438 72.2629 245.438C72.7072 245.438 73.0754 245.807 73.0754 246.251C73.0754 246.708 72.7072 247.076 72.2629 247.076ZM77.4451 247.127C75.617 247.127 74.3094 246.149 74.2459 244.689H75.4012C75.4646 245.565 76.3406 246.111 77.4324 246.111C78.6385 246.111 79.5271 245.451 79.5271 244.499C79.5271 243.496 78.7273 242.785 77.2928 242.785H76.5438V241.782H77.2928C78.41 241.782 79.1844 241.16 79.1844 240.208C79.1844 239.294 78.5115 238.672 77.4705 238.672C76.493 238.672 75.5916 239.218 75.5408 240.119H74.4363C74.4998 238.659 75.8455 237.682 77.4832 237.682C79.2352 237.682 80.3016 238.824 80.2889 240.145C80.3016 241.186 79.6922 241.96 78.7273 242.227V242.29C79.9207 242.48 80.657 243.331 80.6443 244.499C80.657 246.01 79.2732 247.127 77.4451 247.127ZM85.141 247.127C83.0971 247.127 81.9291 245.413 81.9291 242.404C81.9291 239.421 83.1225 237.682 85.141 237.682C87.1596 237.682 88.3529 239.421 88.3529 242.404C88.3529 245.413 87.1723 247.127 85.141 247.127ZM85.141 246.111C86.4613 246.111 87.2357 244.778 87.2357 242.404C87.2357 240.03 86.4613 238.672 85.141 238.672C83.8207 238.672 83.0336 240.03 83.0336 242.404C83.0336 244.778 83.808 246.111 85.141 246.111ZM95.8229 247.127C93.7789 247.127 92.6109 245.413 92.6109 242.404C92.6109 239.421 93.8043 237.682 95.8229 237.682C97.8414 237.682 99.0348 239.421 99.0348 242.404C99.0348 245.413 97.8541 247.127 95.8229 247.127ZM95.8229 246.111C97.1432 246.111 97.9176 244.778 97.9176 242.404C97.9176 240.03 97.1432 238.672 95.8229 238.672C94.5025 238.672 93.7154 240.03 93.7154 242.404C93.7154 244.778 94.4898 246.111 95.8229 246.111ZM103.455 237.682C105.042 237.694 106.794 238.646 106.794 242.036C106.794 245.299 105.461 247.127 103.303 247.127C101.691 247.127 100.548 246.137 100.32 244.677H101.449C101.653 245.502 102.275 246.111 103.303 246.111C104.801 246.111 105.715 244.816 105.728 242.582H105.601C105.068 243.344 104.23 243.801 103.252 243.801C101.602 243.801 100.243 242.544 100.243 240.767C100.243 239.053 101.5 237.669 103.455 237.682ZM103.455 238.685C102.249 238.685 101.348 239.624 101.361 240.754C101.361 241.896 102.211 242.798 103.417 242.798C104.611 242.798 105.55 241.808 105.55 240.729C105.55 239.675 104.674 238.685 103.455 238.685ZM108.993 245.781C108.549 245.781 108.168 245.413 108.18 244.956C108.168 244.512 108.549 244.144 108.993 244.144C109.437 244.144 109.805 244.512 109.805 244.956C109.805 245.413 109.437 245.781 108.993 245.781ZM108.993 240.678C108.549 240.678 108.168 240.31 108.18 239.853C108.168 239.408 108.549 239.04 108.993 239.04C109.437 239.04 109.805 239.408 109.805 239.853C109.805 240.31 109.437 240.678 108.993 240.678ZM114.34 247.127C112.677 247.127 111.42 246.099 111.357 244.689H112.461C112.55 245.515 113.35 246.124 114.34 246.124C115.534 246.124 116.397 245.248 116.397 244.093C116.397 242.899 115.496 242.023 114.264 242.011C113.49 241.998 112.893 242.239 112.55 242.836H111.446L112.093 237.809H117.07V238.824H113.045L112.703 241.516H112.791C113.198 241.198 113.82 240.982 114.467 240.982C116.219 240.982 117.514 242.277 117.514 244.067C117.514 245.845 116.168 247.127 114.34 247.127ZM118.71 245.121V244.182L122.849 237.809H124.258V244.118H125.54V245.121H124.258V247H123.166V245.121H118.71ZM119.941 244.118H123.166V239.256H123.052L119.941 244.042V244.118Z" fill="#373F57"/>
<rect width="120" height="45" rx="22.5" transform="matrix(-1 0 0 1 355 152)" fill="white"/>
<rect width="99" height="23" transform="matrix(-1 0 0 1 355 174)" fill="white"/>
<rect width="218" height="45" rx="22.5" transform="matrix(-1 0 0 1 355 207)" fill="white"/>
<rect width="194.605" height="23" transform="matrix(-1 0 0 1 355 229)" fill="white"/>
<defs>
<linearGradient id="paint0_linear_121505_6684" x1="187.5" y1="0" x2="187.5" y2="529" gradientUnits="userSpaceOnUse">
<stop stop-color="#91CD96"/>
<stop offset="0.300015" stop-color="#91CD96" stop-opacity="0.92"/>
</linearGradient>
</defs>
</svg>
