<svg width="17" height="16" viewBox="0 0 17 16" fill="none" xmlns="http://www.w3.org/2000/svg">
<g id="icon-24-place-gray">
<g id="Exclude">
<path fill-rule="evenodd" clip-rule="evenodd" d="M8.49996 14.6667C8.49996 14.6667 13.8333 10.7891 13.8333 7.00799C13.8333 3.75758 11.4455 1.33334 8.49996 1.33334C5.55444 1.33334 3.16663 3.75758 3.16663 7.00799C3.16663 10.6896 8.49996 14.6667 8.49996 14.6667ZM10.6725 8.14316C10.9594 7.70479 11.1125 7.18945 11.1124 6.6623C11.1131 6.31212 11.0461 5.96526 10.915 5.64161C10.784 5.31796 10.5916 5.0239 10.3489 4.77632C10.1062 4.52874 9.81789 4.33251 9.50064 4.1989C9.18339 4.06529 8.8434 3.99692 8.50018 3.99773C7.9835 3.99773 7.47843 4.15405 7.04884 4.44693C6.61924 4.73982 6.28442 5.1561 6.08673 5.64313C5.88903 6.13016 5.83734 6.66607 5.93818 7.18309C6.03902 7.7001 6.28787 8.17499 6.65326 8.54769C7.01865 8.9204 7.48416 9.17419 7.99093 9.27695C8.49769 9.37972 9.02294 9.32686 9.50026 9.12504C9.97757 8.92322 10.3855 8.58153 10.6725 8.14316Z" fill="#5AC563"/>
<path d="M8.49996 14.6667L8.20106 15.0675L8.4962 15.2876L8.79398 15.0711L8.49996 14.6667ZM11.1124 6.6623L10.6124 6.66128V6.66241L11.1124 6.6623ZM10.915 5.64161L10.4516 5.82924V5.82924L10.915 5.64161ZM10.3489 4.77632L10.7059 4.42629V4.42629L10.3489 4.77632ZM9.50064 4.1989L9.69471 3.7381V3.7381L9.50064 4.1989ZM8.50018 3.99773V4.49773L8.50136 4.49773L8.50018 3.99773ZM5.93818 7.18309L6.42893 7.08737L5.93818 7.18309ZM7.99093 9.27695L8.0903 8.78693H8.0903L7.99093 9.27695ZM9.50026 9.12504L9.30554 8.66451L9.50026 9.12504ZM13.3333 7.00799C13.3333 7.83821 13.0392 8.70415 12.5634 9.556C12.0891 10.4054 11.4499 11.2124 10.7995 11.9158C10.1504 12.6178 9.49969 13.2064 9.01053 13.6198C8.76632 13.8263 8.56332 13.9882 8.42218 14.098C8.35163 14.1528 8.2966 14.1946 8.25968 14.2223C8.24122 14.2362 8.2273 14.2465 8.21823 14.2532C8.2137 14.2566 8.21038 14.259 8.20832 14.2605C8.20728 14.2613 8.20657 14.2618 8.20617 14.2621C8.20597 14.2622 8.20585 14.2623 8.20581 14.2623C8.20579 14.2624 8.20582 14.2623 8.20581 14.2623C8.20586 14.2623 8.20593 14.2623 8.49996 14.6667C8.79398 15.0711 8.7941 15.071 8.79423 15.0709C8.7943 15.0709 8.79445 15.0707 8.7946 15.0706C8.79488 15.0704 8.79525 15.0702 8.79569 15.0698C8.79659 15.0692 8.7978 15.0683 8.79933 15.0672C8.8024 15.0649 8.80673 15.0617 8.81228 15.0576C8.8234 15.0494 8.83942 15.0375 8.86003 15.0221C8.90123 14.9911 8.96079 14.9459 9.03607 14.8874C9.1866 14.7703 9.40026 14.5998 9.65605 14.3836C10.1669 13.9518 10.8495 13.3347 11.5337 12.5947C12.2167 11.8561 12.9109 10.9847 13.4365 10.0436C13.9607 9.105 14.3333 8.06833 14.3333 7.00799H13.3333ZM8.49996 1.83334C11.1471 1.83334 13.3333 4.01095 13.3333 7.00799H14.3333C14.3333 3.50421 11.7439 0.833336 8.49996 0.833336V1.83334ZM3.66663 7.00799C3.66663 4.01095 5.85282 1.83334 8.49996 1.83334V0.833336C5.25606 0.833336 2.66663 3.50421 2.66663 7.00799H3.66663ZM8.49996 14.6667C8.79886 14.2658 8.79892 14.2659 8.79897 14.2659C8.79896 14.2659 8.79898 14.2659 8.79896 14.2659C8.79891 14.2659 8.79879 14.2658 8.79858 14.2656C8.79817 14.2653 8.79744 14.2648 8.7964 14.264C8.79431 14.2624 8.79096 14.2599 8.7864 14.2565C8.77728 14.2496 8.7633 14.2389 8.74479 14.2247C8.70776 14.1962 8.65262 14.1534 8.58195 14.0972C8.44057 13.9848 8.2373 13.8192 7.99281 13.6088C7.5031 13.1873 6.85165 12.5889 6.20186 11.8801C5.55067 11.1697 4.9108 10.3588 4.43595 9.51306C3.95923 8.66395 3.66663 7.81122 3.66663 7.00799H2.66663C2.66663 8.04557 3.04069 9.07057 3.56397 10.0026C4.08912 10.938 4.78258 11.8117 5.46472 12.5558C6.14827 13.3014 6.83015 13.9274 7.34044 14.3667C7.59595 14.5866 7.80935 14.7605 7.95964 14.88C8.0348 14.9397 8.09424 14.9859 8.13534 15.0175C8.15589 15.0333 8.17186 15.0455 8.18292 15.0538C8.18845 15.058 8.19275 15.0613 8.19579 15.0635C8.19731 15.0647 8.19851 15.0656 8.19939 15.0662C8.19983 15.0666 8.20019 15.0668 8.20047 15.0671C8.20061 15.0672 8.20076 15.0673 8.20083 15.0673C8.20095 15.0674 8.20106 15.0675 8.49996 14.6667ZM10.6124 6.66241C10.6125 7.09287 10.4875 7.5129 10.2541 7.86931L11.0908 8.41701C11.4314 7.89669 11.6126 7.28602 11.6124 6.66218L10.6124 6.66241ZM10.4516 5.82924C10.5583 6.09278 10.613 6.37557 10.6124 6.66128L11.6124 6.66331C11.6133 6.24868 11.5338 5.83773 11.3785 5.45397L10.4516 5.82924ZM9.99183 5.12635C10.1885 5.32694 10.3449 5.56572 10.4516 5.82924L11.3785 5.45397C11.2231 5.0702 10.9947 4.72087 10.7059 4.42629L9.99183 5.12635ZM9.30657 4.6597C9.56224 4.76738 9.7952 4.92579 9.99183 5.12635L10.7059 4.42629C10.4171 4.13169 10.0735 3.89765 9.69471 3.7381L9.30657 4.6597ZM8.50136 4.49773C8.77732 4.49708 9.05093 4.55203 9.30657 4.6597L9.69471 3.7381C9.31586 3.57854 8.90948 3.49676 8.499 3.49773L8.50136 4.49773ZM7.33049 4.86006C7.67762 4.6234 8.08466 4.49773 8.50018 4.49773V3.49773C7.88235 3.49773 7.27924 3.68471 6.76718 4.03381L7.33049 4.86006ZM6.55001 5.83119C6.71109 5.43437 6.98323 5.0968 7.33049 4.86006L6.76718 4.03381C6.25525 4.38283 5.85776 4.87783 5.62344 5.45507L6.55001 5.83119ZM6.42893 7.08737C6.34662 6.66539 6.3889 6.22809 6.55001 5.83119L5.62344 5.45507C5.38916 6.03223 5.32805 6.66676 5.44743 7.27881L6.42893 7.08737ZM7.0103 8.19766C6.71407 7.8955 6.51123 7.50929 6.42893 7.08737L5.44743 7.27881C5.56681 7.8909 5.86167 8.45447 6.29622 8.89772L7.0103 8.19766ZM8.0903 8.78693C7.68246 8.70422 7.30643 8.49972 7.0103 8.19766L6.29622 8.89772C6.73087 9.34109 7.28586 9.64415 7.89155 9.76698L8.0903 8.78693ZM9.30554 8.66451C8.92082 8.82718 8.49807 8.86962 8.0903 8.78693L7.89155 9.76698C8.49732 9.88982 9.12507 9.82653 9.69498 9.58557L9.30554 8.66451ZM10.2541 7.86931C10.0209 8.22561 9.69037 8.5018 9.30554 8.66451L9.69498 9.58557C10.2648 9.34465 10.7501 8.93744 11.0908 8.41701L10.2541 7.86931Z" fill="#5AC563"/>
</g>
</g>
</svg>
