<svg width="20" height="18" viewBox="0 0 20 18" fill="none" xmlns="http://www.w3.org/2000/svg">
<g id="&#234;&#183;&#184;&#235;&#163;&#185; 829">
<path id="&#237;&#140;&#168;&#236;&#138;&#164; 825" fill-rule="evenodd" clip-rule="evenodd" d="M1.66663 6.1875C1.66663 4.78125 2.12959 4.3125 3.51848 4.3125H4.90737C5.83329 4.3125 5.64811 4.3125 6.38885 3.5625L7.36107 2.25C7.7108 1.77787 8.25968 1.5 8.84255 1.5H11.1574C11.7402 1.5 12.2891 1.77787 12.6388 2.25L13.6111 3.5625C14.3518 4.3125 14.1666 4.3125 15.0926 4.3125H16.4814C17.8703 4.3125 18.3333 4.78125 18.3333 6.1875V14.625C18.3333 16.0312 17.8703 16.5 16.4814 16.5H3.51848C2.12959 16.5 1.66663 16.0312 1.66663 14.625V6.1875Z" stroke="#373F57" stroke-width="1.66667" stroke-linecap="round" stroke-linejoin="round"/>
<path id="&#237;&#131;&#128;&#236;&#155;&#144; 116" fill-rule="evenodd" clip-rule="evenodd" d="M9.99996 13.1667C11.8409 13.1667 13.3333 11.6743 13.3333 9.83333C13.3333 7.99238 11.8409 6.5 9.99996 6.5C8.15901 6.5 6.66663 7.99238 6.66663 9.83333C6.66663 11.6743 8.15901 13.1667 9.99996 13.1667Z" stroke="#373F57" stroke-width="1.66667" stroke-linecap="round" stroke-linejoin="round"/>
</g>
</svg>
